<?xml version="1.0" encoding="utf-8"?>
<!-- Generator: Adobe Illustrator 24.2.3, SVG Export Plug-In . SVG Version: 6.00 Build 0)  -->
<svg version="1.1" id="Capa_1" xmlns="http://www.w3.org/2000/svg" xmlns:xlink="http://www.w3.org/1999/xlink" x="0px" y="0px"
	 viewBox="0 0 595.3 841.9" style="enable-background:new 0 0 595.3 841.9;" xml:space="preserve">
<style type="text/css">
	.st0{fill:#3C3C3C;}
</style>
<g>
	<path class="st0" d="M386.9,305.2c-1.9-3.6-3.9-7.2-5.8-10.8c-21.3-39.6-53.9-64.6-97.5-75.1c-22.5-5.4-45.4-6-68.4-4.2
		c-15.3,1.2-30.3,3.9-44.7,9.2c-46,16.9-75.8,48.7-86.4,97c-4.4,20-3.1,40,4.3,59.4c7.1,18.7,20,31.4,38.8,38.3
		c11,4,22.4,6.4,34.1,6.8c11.1,0.4,22.3,0,33.4-0.7c20-1.3,39.4-5.7,58.6-11.2c27.7-7.8,54.5-18.4,80.1-31.5
		c17-8.7,33.6-18.3,50.6-27c23.7-12.1,48.2-22.3,74.2-28.8c14.8-3.7,29.7-5.6,44.9-4.5c6,0.5,11.8,2,17.3,4.6
		c13,6.1,18,18.2,16.2,31.2c-1.6,12.2-7,22.9-15.2,31.9c-17.8,19.8-40.1,31.5-66.5,34.8c-11.6,1.5-23,0.1-32.6-7.4
		c-1.7-1.3-2.8-3.5-4.1-5.3l-0.1,0c7.4,8.2,16.9,10.6,27.5,10.2c19-0.7,35.4-8.3,50.5-19c10.8-7.7,20-17.1,26-29.1
		c3.2-6.3,5.1-13,5-20.1c-0.2-7.7-3.7-13.6-10.8-16.5c-4.4-1.8-9.2-2.8-14-3.1c-14.8-1-29.1,2.3-43.1,6.6c-31,9.6-59.7,24.2-87.3,41
		c-32.5,19.7-66.4,36.5-102.5,48.4c-21.7,7.1-43.7,12.6-66.4,15.5c-16,2-32.2,2.7-48.3,1.2c-14.3-1.4-28.2-4.4-41.5-10.2
		c-24.3-10.7-39.3-29.5-46.9-54.4c-8.6-28.2-7.2-56.2,2.9-83.6c17.3-46.8,50.9-76.4,98.2-90.9c21.2-6.5,43.1-8,65.1-7.5
		c25.9,0.6,50.9,5.1,74.6,15.8c38.5,17.3,64.8,46.1,79.2,85.8C386.6,302.9,386.7,304,386.9,305.2L386.9,305.2z"/>
	<path class="st0" d="M320,544.8c0-22.8,0-45.6,0-68.4c0-1,0-2,0-3c-0.1-1.6,0.6-2.5,2.3-2.5c3.3,0,6.7,0.1,10,0c2,0,2.4,1,2.7,2.7
		c2.6,13.7,5.4,27.4,8,41.1c2.5,13,5,26.1,7.5,39.1c0.5,2.8,0.8,5.6,1.3,8.4c0.1,0.5,0.4,0.9,0.6,1.3c0.1-0.4,0.3-0.8,0.3-1.2
		c0-1.7,0.1-3.3,0-5c-2.3-27.2-1.9-54.5-1.8-81.7c0-4.6,0-4.6,4.7-4.6c2.7,0,5.3,0.1,8,0c1.7,0,2.4,0.7,2.4,2.4c0,1.2,0,2.3,0,3.5
		c0,45.7,0,91.5,0,137.2c0,0.8-0.1,1.7,0,2.5c0.2,2.1-0.7,3.1-2.9,3c-2.5-0.1-5,0-7.5,0c-3.6,0-4-0.4-4.7-4.3
		c-1.3-6.7-2.5-13.4-3.8-20c-3.6-18.2-7.2-36.5-10.7-54.7c-0.7-3.7-1.1-7.6-1.7-11.3c-0.1-0.8-0.6-1.4-1-2.2
		c-0.1,0.7-0.4,1.4-0.3,2.1c2.4,28,1.8,56.2,1.9,84.3c0,6.8,0.4,6.1-6.2,6.2c-9,0-9,0-9-8.8C320,588.7,320,566.8,320,544.8
		C320,544.8,320,544.8,320,544.8z"/>
	<path class="st0" d="M88.6,554.3c0-19.6,0-39.3,0-58.9c0-9,2.6-16.7,10.5-21.9c13.9-9.2,32.8-0.9,35.2,15.6c0.4,2.5,0.6,5,0.6,7.4
		c0,38.9,0,77.9,0,116.8c0,1.2,0,2.3,0,3.5c0,1.8-1,2.7-2.8,2.7c-3.3,0-6.7,0-10,0c-1.9,0-2.7-0.8-2.7-2.7c0.1-1.5,0-3,0-4.5
		c0-17.8,0-35.6,0-53.4c0-1.3,0.2-2.7-0.1-4c-0.3-0.8-1.3-1.5-2.1-2.1c-0.3-0.2-1-0.1-1.5-0.1c-3.6,0.1-7.3,0.3-10.9,0.4
		c-0.3,3.6-0.8,7.2-0.8,10.7c-0.1,16.5,0,32.9,0,49.4c0,1.3,0.2,2.7-0.2,4c-0.3,0.8-1.4,2-2.1,2c-3.5,0.2-7,0.1-10.5,0.1
		c-1.7,0-2.5-0.7-2.5-2.3c0-1.3-0.1-2.7-0.1-4C88.6,593.6,88.6,573.9,88.6,554.3z M119.4,511.9c0-7.5-0.1-14.9,0-22.4
		c0-2.5-0.7-3.7-3.4-3.5c-2.6,0.2-5.3,0-8,0c-3.9,0.1-3.9,0.1-4,3.9c-0.1,4,0,8,0,12c0,10.6,0,21.2,0,31.9c0,3.9,0.1,3.9,3.9,4
		c2.2,0,4.3,0,6.5,0c5,0,5,0,5-4.8C119.4,525.9,119.4,518.9,119.4,511.9z"/>
	<path class="st0" d="M304.2,552.8c0,20.3,0,40.6,0,60.9c0,1.2,0,2.3,0,3.5c0,1.6-0.8,2.4-2.5,2.4c-0.3,0-0.7,0-1,0
		c-3.6-0.2-7.2-0.3-10.9-0.5c-0.2-3.4-0.6-6.8-0.6-10.3c-0.1-16.6,0-33.3,0-49.9c0-1.3,0.2-2.7-0.2-4c-0.3-0.8-1.3-1.5-2.2-2.1
		c-0.3-0.2-1-0.1-1.5-0.1c-3.6,0.1-7.2,0.3-10.9,0.4c-0.3,3.6-0.7,7.2-0.7,10.7c-0.1,16.1,0,32.3,0,48.4c0,1.2-0.1,2.3,0,3.5
		c0.2,2.7-1,3.9-3.8,3.7c-2.6-0.2-5.3-0.1-8,0c-2.5,0.1-3.8-0.7-3.6-3.4c0.1-0.8,0-1.7,0-2.5c0-39.4,0-78.8,0-118.2
		c0-5.7,0.7-11.2,4.3-16.1c5.7-7.7,13.4-10.8,22.7-9.3c9.1,1.5,15.3,6.9,18,15.9c0.7,2.5,0.8,5.2,0.8,7.9
		C304.3,513.5,304.2,533.1,304.2,552.8z M289.2,511.9C289.2,511.9,289.2,511.9,289.2,511.9c0-7.5-0.1-14.9,0-22.4
		c0-2.5-0.9-3.6-3.5-3.5c-2.3,0.2-4.6,0-7,0c-4.9,0-4.9,0-4.9,5c0,14.1,0,28.2,0,42.3c0,0.7,0,1.3,0,2c0,1.6,0.8,2.4,2.4,2.4
		c3.2,0,6.3-0.1,9.5,0c2.6,0.1,3.5-0.9,3.5-3.4C289.1,526.8,289.2,519.3,289.2,511.9z"/>
	<path class="st0" d="M508.8,575.7c0,7.6,0.2,15.3,0,22.9c-0.3,10.6-7.6,19-18.2,21.6c-9.6,2.3-20.3-2.5-24.9-11.4
		c-1.4-2.6-2.4-5.6-2.6-8.5c-0.4-5.6-0.2-11.3-0.3-16.9c0-2,1.1-2.6,2.8-2.6c3.2,0,6.3,0.1,9.5,0c2.2,0,2.9,1.1,2.9,3.1
		c-0.1,5.5-0.1,11,0,16.5c0,3.8,0.1,3.9,3.9,4c3,0.1,6,0,9,0c2.1,0,2.9-1,2.9-3c0-15.1-0.1-30.3,0-45.4c0-2.4-0.9-3.2-3.2-3.2
		c-4,0.1-8,0.1-12,0c-9.3-0.1-15.7-6.4-15.7-15.7c-0.1-14.8-0.1-29.6,0-44.4c0.1-13.1,10.1-22.9,23.2-22.9
		c12.6,0,22.6,9.9,22.8,22.8c0.1,4.5,0,9,0,13.5c0,2.4-0.8,3.8-3.5,3.6c-3.6-0.3-7.3-0.3-10.9-0.5c-0.3-3.6-0.6-7.1-0.8-10.7
		c-0.1-3.3-0.1-6.7,0-10c0-1.6-0.7-2.5-2.4-2.4c-3.7,0-7.3,0-11,0c-1.7,0-2.4,0.8-2.4,2.5c0,1.8,0,3.7,0,5.5c0,13.1,0,26.3,0,39.4
		c0,4.2,0.1,4.2,4.1,4.3c3.8,0.1,7.7-0.1,11.5,0c9.1,0.2,15.2,6.4,15.3,15.5C508.9,560.7,508.8,568.2,508.8,575.7
		C508.8,575.7,508.8,575.7,508.8,575.7z"/>
	<path class="st0" d="M200.4,545.1c0-22.9,0-45.9,0-68.8c0-5.4-0.5-5.3,5.5-5.3c1,0,2,0,3,0c6.7,0,6.8,0,6.8,6.5
		c0,40.2-0.1,80.5-0.1,120.7c0,0.5,0,1,0,1.5c0.2,4.5-1.1,4.9,5,4.8c2,0,4,0,6,0c4.5,0,4.6,0,4.6-4.8c0-7,0-14,0-20.9c0-5,0-5,4.8-5
		c10.3-0.1,10.3-0.1,10.3,10.2c0,10.3,0,20.6,0,30.9c0,4.7-0.1,4.8-4.7,4.8c-12.1,0-24.3,0-36.4,0c-4.8,0-4.8-0.1-4.8-5.2
		C200.4,591.3,200.4,568.2,200.4,545.1C200.4,545.1,200.4,545.1,200.4,545.1z"/>
	<path class="st0" d="M391.6,552.8c0-20.3,0-40.6,0-60.8c0-1,0-2,0-3c0.1-2.1-0.9-3-3-2.9c-3.2,0.1-6.3-0.1-9.5,0
		c-2.4,0.1-3.3-0.8-3.2-3.2c0.1-3,0.1-6,0-9c-0.1-2.1,0.7-3,2.9-3c3.8,0.1,7.6,0,11.5,0c9.3,0,18.6,0.1,27.9,0c2.8,0,3.8,1,3.8,3.8
		c-0.2,13.7,1.4,11.1-10.3,11.3c-5,0.1-5,0-5,5.4c0,40.2,0,80.5,0,120.7c0,0.8,0,1.7,0,2.5c0,4.9,0,4.9-5.1,4.9c-2.3,0-4.7,0-7,0
		c-2,0-3.1-0.8-3-2.9c0.1-1.2,0-2.3,0-3.5C391.6,593,391.6,572.9,391.6,552.8C391.6,552.8,391.6,552.8,391.6,552.8z"/>
	<path class="st0" d="M160.1,552.5c0-20,0-39.9,0-59.9c0-1.3-0.1-2.7,0-4c0.1-1.9-0.8-2.7-2.7-2.7c-3.2,0.1-6.3-0.1-9.5,0
		c-2.3,0.1-3.3-0.8-3.1-3.2c0.2-3,0.1-6,0.1-9c0-2.1,0.8-3,3-2.9c4.2,0.1,8.3,0,12.5,0c9,0,18,0.1,26.9,0c2.5,0,3.8,0.5,3.5,3.3
		c-0.2,2.5,0,5,0,7.5c-0.1,4.2-0.1,4.2-4.1,4.3c-2.8,0.1-5.7,0.1-8.5,0c-2.1-0.1-3.1,0.8-2.9,2.9c0.1,1.2,0,2.3,0,3.5
		c0,40.1,0,80.1,0,120.2c0,0.5,0,1,0,1.5c-0.1,5.7,0.5,5.4-5.5,5.3c-3,0-5.9-0.2-8.9-0.4c-0.3-3.1-0.7-6.2-0.7-9.3
		C160.1,590.8,160.1,571.7,160.1,552.5z"/>
	<path class="st0" d="M431.9,544.8c0-23.1,0-46.2,0-69.3c0-4.4,0-4.5,4.3-4.4c3.4,0.1,6.8,0.4,10.3,0.7c0.2,3.3,0.5,6.6,0.5,9.9
		c0,43.6,0,87.1,0,130.7c0,0.8,0,1.7,0,2.5c0,4.8,0,4.9-5,4.9c-2,0-4,0.1-6,0c-3.8-0.1-4-0.3-4.1-4c0-1.2,0-2.3,0-3.5
		C431.8,589.7,431.8,567.2,431.9,544.8C431.8,544.8,431.9,544.8,431.9,544.8z"/>
	<path class="st0" d="M298.3,643.6c-67.8,0-135.5,0-203.3,0c-1,0-2,0-3,0c-0.6,0-1.1-0.3-1.7-0.5c0.6-0.1,1.3-0.3,1.9-0.4
		c1-0.1,2,0,3,0c134.5,0,269,0,403.5,0c2.2,0,4.3,0.1,6.5,0.2c0.7,0,1.3,0.1,2,0.2c-0.7,0.1-1.5,0.3-2.2,0.3
		c-1.8,0.1-3.7,0.2-5.5,0.2C432.4,643.6,365.3,643.6,298.3,643.6C298.3,643.6,298.3,643.6,298.3,643.6z"/>
	<path class="st0" d="M387.9,308.1c-0.4-1-0.7-1.9-1.1-2.9l0.1,0C387.2,306.2,387.5,307.2,387.9,308.1L387.9,308.1z"/>
	<path class="st0" d="M387.9,308.2c0.2,0.2,0.4,0.5,0.6,0.7C388.3,308.6,388.1,308.4,387.9,308.2L387.9,308.2z"/>
	<polygon class="st0" points="418,412 417.7,411.9 417.9,412 	"/>
</g>
</svg>
