<?xml version="1.0" encoding="utf-8"?>
<!-- Generator: Adobe Illustrator 24.2.3, SVG Export Plug-In . SVG Version: 6.00 Build 0)  -->
<svg version="1.1" id="Layer_1" xmlns="http://www.w3.org/2000/svg" xmlns:xlink="http://www.w3.org/1999/xlink" x="0px" y="0px"
	 viewBox="0 0 497.8 74" style="enable-background:new 0 0 497.8 74;" xml:space="preserve">
<style type="text/css">
	.st0{fill:#3D3D3C;}
</style>
<g>
	<path class="st0" d="M20.3,45.1h32.4c3.9,0,6.7-0.9,7.2-4.3c0.6-4-1.8-4.9-5.8-4.9H21.7L20.3,45.1z M23.6,23.6h32
		c3.3,0,5.5-1.2,6-4.6s-1.2-4.7-4.6-4.7h-32L23.6,23.6z M9.2,0h52c14.4,0,20.8,3.9,19,15.6c-1.6,10.2-5.5,12.1-10.8,13.6v0.2
		c7.8,1,10,5.2,8.6,14.2C76,56.7,67.9,59.4,57.6,59.4H0L9.2,0z"/>
	<path class="st0" d="M112.4,50.2c10.8,0,12-1.6,12.4-4.4c0.5-3.1-0.2-4.3-8.9-4.3h-6.9c-6.6,0-8.2,1.5-8.8,4.9
		c-0.4,2.7,1.5,3.8,7.6,3.8H112.4z M85.4,44.7c1.8-11.4,9.7-12.1,24.8-12.1c8.6,0,13.2,0.2,15.8,3.4l0.6-3.7
		c0.6-4.1-0.4-5.6-6.5-5.6H111c-4.6,0-5.9,0.4-6.6,3.4H89.3C91,18.8,96.8,16.9,110,16.9h18.2c10.8,0,15.7,5.2,14.1,15l-4.3,27.5
		h-14.8l0.7-4.8c-5,4.5-6.8,5.4-14.6,5.4H98.7c-9.5,0.1-15.3-2-13.8-11.9L85.4,44.7z"/>
	<path class="st0" d="M181.6,45.1c7.7,0,9.9-2,10.8-8.4s-0.5-8.5-8.2-8.5h-7.7c-7.7,0-9.9,2.1-10.9,8.5s0.5,8.4,8.2,8.4H181.6z
		 M151.1,33.3c2-13,9.1-16.4,21.6-16.4h9.1c7.9,0,9.6,1,12.7,6.4h0.2l0.9-5.8h14.7l-6.1,39.2c-1.4,8.7-5.4,17.2-25.1,17.2h-17.3
		c-10.5,0-16.1-2.5-14.4-13h16.1c-0.3,2,0.8,3.2,3.3,3.2h11.3c6.8,0,10.5-2.2,11.6-9.3l0.4-2.8c-3.6,3.1-6.4,4.3-14.7,4.3h-8.2
		c-15.1,0-18.9-6.1-17.1-17.4L151.1,33.3z"/>
	<path class="st0" d="M233.9,45.2h32.4c3.9,0,6.7-0.9,7.2-4.3c0.6-4-1.8-4.9-5.8-4.9h-32.4L233.9,45.2z M237.3,23.6h32
		c3.3,0,5.5-1.2,6-4.6s-1.2-4.7-4.6-4.7h-32L237.3,23.6z M222.8,0h52c14.4,0,20.8,3.9,19,15.6c-1.6,10.2-5.5,12.1-10.8,13.6v0.2
		c7.8,1,10,5.2,8.6,14.2c-2,13-10.1,15.8-20.4,15.8h-57.6L222.8,0z"/>
	<path class="st0" d="M326.1,50.3c10.8,0,12-1.6,12.4-4.4c0.5-3.1-0.2-4.3-8.9-4.3h-6.9c-6.6,0-8.2,1.5-8.7,4.9
		c-0.4,2.7,1.5,3.8,7.6,3.8L326.1,50.3z M299.1,44.8c1.8-11.4,9.7-12.1,24.8-12.1c8.6,0,13.2,0.2,15.8,3.4l0.6-3.7
		c0.6-4.1-0.4-5.6-6.5-5.6h-9.2c-4.6,0-5.9,0.4-6.5,3.4h-15.2c1.8-11.3,7.6-13.2,20.8-13.2h18.2c10.8,0,15.6,5.2,14.1,15l-4.3,27.5
		h-14.8l0.7-4.8c-5,4.5-6.8,5.4-14.6,5.4h-10.7c-9.5,0.1-15.3-2.1-13.8-11.9L299.1,44.8z"/>
	<path class="st0" d="M378.3,46.4c-0.4,2.3,0.2,3.9,9.1,3.9h5.6c7.4,0,9.4-0.6,9.8-3.1s-0.7-3.5-6.2-3.5h-14.7
		c-14.6-0.1-18.4-3.3-16.6-14.8c1.6-10.4,10.2-12,20.9-12h10.9c20.5,0,23.6,2.9,22.2,12.7h-15.6c-0.4-2.5-1.8-2.9-11.2-2.9
		c-9,0-10.8,0.2-11.2,3.1c-0.3,1.8,0.8,2.5,9,2.5H401c18.7,0,19.1,6.3,18,13.8c-1.7,11.1-6.6,13.9-24.4,13.9h-14.8
		c-14.4,0-19.2-3.4-17.6-13.7L378.3,46.4z"/>
	<path class="st0" d="M466.8,32.7c0.8-5-1.4-5.9-10.5-5.9c-10.2,0-11.5,0.9-12.3,5.9L466.8,32.7z M427.8,36.2
		C430.3,20.4,438.6,17,450,17h10.9c16.6,0,22.9,3.5,20.7,18l-1.1,7.1h-38l-0.4,2.5c-0.7,4.4,2.2,5.7,8.7,5.7h4.8
		c8.5,0,9.2-2.3,9.6-4.8H480l-0.3,1.8c-1.6,10.5-11.3,12.8-22.6,12.8h-11.8c-10.4,0-21-2-18.2-19.9L427.8,36.2z"/>
	<path class="st0" d="M489.7,9.2h0.6c1,0,1.5,0.3,1.5,1.1s-0.5,1-1.4,1h-0.8V9.2z M487.5,7.9v7.9h2.2v-3.2h0.6l1.5,3.2h2.4l-1.8-3.5
		c1-0.2,1.7-1.1,1.7-2.1c0-1.5-1.2-2.3-3.4-2.3L487.5,7.9z M490.6,4.8c-1.9,0-3.7,0.7-5,2c-1.4,1.4-2.2,3.2-2.2,5.2
		c0,1.9,0.8,3.7,2.1,5c1.3,1.4,3.2,2.2,5.1,2.2c1.9,0,3.7-0.8,5.1-2.1c1.4-1.3,2.1-3.2,2.1-5.1c0-1.9-0.7-3.7-2-5
		C494.5,5.6,492.6,4.8,490.6,4.8 M490.6,6.1c3.3,0,5.9,2.6,5.9,5.9c0,0,0,0,0,0c0,1.6-0.6,3.1-1.8,4.2c-1.1,1.1-2.6,1.7-4.2,1.7
		c-3.2,0-5.9-2.7-5.9-5.9c0-1.6,0.6-3.1,1.8-4.3C487.6,6.7,489.1,6.1,490.6,6.1"/>
</g>
</svg>
