<?xml version="1.0" encoding="utf-8"?>
<!-- Generator: Adobe Illustrator 24.2.3, SVG Export Plug-In . SVG Version: 6.00 Build 0)  -->
<svg version="1.1" id="Layer_1" xmlns="http://www.w3.org/2000/svg" xmlns:xlink="http://www.w3.org/1999/xlink" x="0px" y="0px"
	 viewBox="0 0 521.3 109.9" style="enable-background:new 0 0 521.3 109.9;" xml:space="preserve">
<style type="text/css">
	.st0{fill:#3D3C3C;}
</style>
<path class="st0" d="M513,4.6h0.7c1.1,0,1.6,0.3,1.6,1.1s-0.5,1.1-1.5,1.1H513V4.6z M510.8,3.2v8.1h2.2V8.1h0.7l1.5,3.2h2.5
	l-1.8-3.6c1-0.2,1.7-1.1,1.7-2.2c0-1.5-1.2-2.4-3.5-2.4h-3.3V3.2z M513.9,0c-1.9,0-3.8,0.7-5.1,2.1c-1.4,1.4-2.2,3.3-2.2,5.3
	c0,1.9,0.8,3.8,2.1,5.2c1.4,1.4,3.3,2.3,5.3,2.3s3.8-0.8,5.2-2.1c1.4-1.4,2.2-3.3,2.2-5.3C521.4,3.3,518.1,0,513.9,0
	C514,0,513.9,0,513.9,0 M513.9,1.3c3.3,0,6,2.7,6,6v0.1c0,1.6-0.6,3.2-1.8,4.3c-1.1,1.1-2.7,1.8-4.3,1.8s-3.2-0.7-4.3-1.9
	c-1.1-1.1-1.7-2.6-1.7-4.2c0-1.7,0.7-3.3,1.9-4.4C510.8,1.9,512.4,1.3,513.9,1.3"/>
<path class="st0" d="M25.6,64.4h3.8c6.6,0,9.2-2.2,9.2-7.2c0-4.1-3.2-6.1-9.5-6.1h-3.5C25.6,51.1,25.6,64.4,25.6,64.4z M25.6,25.4
	v12.9h3.6c6.2,0,8.2-2.8,8.2-6.8c0-4.5-2.9-6.1-8.3-6.1H25.6z M0.4,11h40.3c14.7,0,21.8,6.2,21.8,17.6c0,6.6-2.7,12.4-12.8,14.8v0.2
	c10.4,1.4,14.6,8.6,14.6,15.9c0,11.7-9.1,19.5-26,19.5H0.4V11z"/>
<path class="st0" d="M101.2,49.4v-0.7c0-4.5-2.3-6.9-5.9-6.9s-6.1,2.4-6.1,6.9v0.7H101.2z M121.2,63.7c-1.7,10.7-9.9,16.5-27.5,16.5
	c-13.8,0-26.2-6.2-26.2-25.3c0-16.3,11-24.7,27.9-24.7c17.9,0,26.4,9.1,26.4,26v3.2H89.2v1.4c0,5.4,1.9,7.8,6.4,7.8
	c2.9,0,5.3-2.1,5.6-4.9L121.2,63.7z"/>
<path class="st0" d="M158.6,49.4v-0.7c0-4.5-2.4-6.9-5.9-6.9s-6.1,2.4-6.1,6.9v0.7H158.6z M178.5,63.7c-1.7,10.7-9.9,16.5-27.5,16.5
	c-13.8,0-26.2-6.2-26.2-25.3c0-16.3,11-24.7,27.9-24.7c17.9,0,26.4,9.1,26.4,26v3.2h-32.5v1.4c0,5.4,1.9,7.8,6.4,7.8
	c2.9,0,5.3-2.1,5.6-4.9L178.5,63.7z"/>
<path class="st0" d="M215.4,51c-0.2-5.9-0.9-9.1-4.9-9.1c-3.8,0-5.6,2-5.6,14c0,11,1.9,12.7,5.4,12.7c3.7,0,4.7-2.7,5.2-8.8h21.1
	c-0.3,13.2-8.5,20.5-27.2,20.5c-14.8,0-27.2-6.2-27.2-25.3c0-16.3,11-24.7,27.7-24.7c18.3,0,25.9,8,26.6,20.8L215.4,51z"/>
<path class="st0" d="M240.4,11h22.8v27h0.2c3.3-5.1,7.1-7.8,14.9-7.8c9.5,0,16.4,4.7,16.4,17.2v31.4h-22.8V49.6
	c0-3.5-1.4-5.5-4.1-5.5c-2.5,0-4.5,1.5-4.5,5.3v29.4h-22.8L240.4,11L240.4,11z"/>
<path class="st0" d="M336.1,31.6h22.8v47.2h-22.8V31.6z M336.1,11h22.8v14.5h-22.8V11z M301.1,45.6H296v-14h5.1V27
	c0-10.8,8.4-16.5,19.1-16.5c4.3,0,8.5,0.4,12.7,1.3v13.3c-1.6-0.1-3.3-0.2-4.9-0.2c-2.9,0-4.1,1.3-4.1,4.1v2.7h8v13.9h-8v33.3h-22.7
	L301.1,45.6z"/>
<path class="st0" d="M396.6,49.4v-0.7c0-4.5-2.4-6.9-5.9-6.9s-6.1,2.4-6.1,6.9v0.7H396.6z M416.5,63.7c-1.7,10.7-9.9,16.5-27.5,16.5
	c-13.8,0-26.2-6.2-26.2-25.3c0-16.3,11-24.7,27.9-24.7c17.9,0,26.4,9.1,26.4,26v3.2h-32.5v1.4c0,5.4,1.9,7.8,6.4,7.8
	c2.8,0,5.3-2.1,5.6-4.9L416.5,63.7z"/>
<rect x="421" y="11" class="st0" width="22.8" height="67.9"/>
<path class="st0" d="M480.7,47.9c-0.6-2.7-2.4-4.3-4.9-4.3c-4.7,0-5.4,4.1-5.4,11.7c0,6.4,0.6,11.6,5.5,11.6
	c1.8,0.2,3.5-0.8,4.2-2.5c0.7-1.4,0.9-4.2,0.9-9.1C481.1,51.1,481.1,49.9,480.7,47.9 M482,73.4c-4,5.4-9.5,6.9-14.7,6.9
	c-11.5,0-19.6-8.8-19.6-25.6c0-17.9,9.1-24.4,19.4-24.4c5.3,0,10.2,1.5,14,5.7V11h22.7v67.8h-21.4L482,73.4z"/>
<path class="st0" d="M11.2,105.5c4.3,0,5-4,5-7c0.1-1.9-0.3-3.8-1.4-5.5c-0.9-1.1-2.2-1.7-3.6-1.6c-4,0-5.1,3.4-5.1,7.2
	C6.2,102.1,7.2,105.5,11.2,105.5 M3,90.1c2.7-2.8,6.9-3,8.5-3c8.7,0,11,6.2,11,11.5c0,8.7-6.1,11.3-11.3,11.3
	C5.4,109.9,0,106.7,0,98.6C0,97.2,0.2,92.8,3,90.1"/>
<path class="st0" d="M40.9,97h2.3c0.8,0.1,1.7,0,2.5-0.2c1-0.4,1.7-1.4,1.6-2.5c0-2.7-2.3-2.7-4.1-2.7h-2.3V97z M34.9,87.7h10
	c3.9,0,5.4,0.2,6.7,1.6c1.1,1.1,1.6,2.7,1.5,4.2c0,2.4-1,3.4-2,4s-2.1,1-3.3,1.1v0.1c4.2,0.1,4.5,2,4.9,5.3c0.2,1.8,0.5,3.6,1,5.4
	h-6.5c-0.4-1.6-0.6-3.3-0.7-4.9c-0.3-2.6-0.4-3.6-3.1-3.6h-2.5v8.5h-6C34.9,109.4,34.9,87.7,34.9,87.7z"/>
<rect x="65.5" y="87.7" class="st0" width="6.2" height="21.7"/>
<path class="st0" d="M99.6,94.2c-0.3-2.3-2.1-2.9-3.8-2.9c-4.1,0-5.6,3.6-5.6,7.3c0,5.1,2.8,7.2,6.4,7.2c1.1,0,2.2-0.1,3.3-0.4v-4.2
	h-4.6V97h10.3v11.6c-3.1,0.8-6.4,1.2-9.6,1.2c-2.9,0.1-5.7-0.7-8.1-2.3c-2.7-2.2-4.2-5.5-4-9c0-2.6,0.8-6.3,3.2-8.6s6.4-2.9,9-2.9
	c3.4,0,6.2,0.7,8,2.5c1.1,1.2,1.7,2.9,1.6,4.5L99.6,94.2z"/>
<rect x="118.6" y="87.7" class="st0" width="6.2" height="21.7"/>
<polygon class="st0" points="137.9,87.7 146.2,87.7 153.5,103.8 153.5,87.7 158.7,87.7 158.7,109.4 150.6,109.4 143.1,92.5 
	143.2,109.4 137.9,109.4 "/>
<path class="st0" d="M185,101l-2.8-9.1h-0.1l-3,9.1H185z M178.8,87.6h7.4l8.6,21.7H188l-1.5-4.4h-8.7l-1.5,4.4h-6L178.8,87.6z"/>
<polygon class="st0" points="206.1,87.7 212.2,87.7 212.2,105.1 221.9,105.1 221.9,109.4 206.1,109.4 "/>
<polygon class="st0" points="252.5,87.7 258.6,87.7 258.6,96.1 265.8,96.1 265.8,87.7 271.9,87.7 271.9,109.4 265.8,109.4 
	265.8,100.6 258.5,100.6 258.5,109.4 252.5,109.4 "/>
<polygon class="st0" points="285.1,87.7 301.4,87.7 301.4,91.9 291,91.9 291,96.4 300.8,96.4 300.8,100.5 291,100.5 291,105.2 
	301.6,105.2 301.6,109.4 285.1,109.4 "/>
<path class="st0" d="M327.1,101l-2.8-9.1h-0.1l-3,9.1H327.1z M320.9,87.6h7.4l8.6,21.7H330l-1.5-4.4h-8.7l-1.5,4.4h-6L320.9,87.6z"
	/>
<path class="st0" d="M354.6,105.2h2.6c4,0,6.6-1.7,6.6-6.8c0-6.6-4.9-6.6-6.8-6.6h-2.4L354.6,105.2L354.6,105.2z M348.4,87.7h9.2
	c2.6,0,6,0.3,8.3,1.8c3.2,2.2,4.1,5.8,4.1,9c0,4.8-1.5,8.4-5.9,10.1c-2.1,0.7-4.2,0.9-6.4,0.8h-9.2V87.7H348.4z"/>
<polygon class="st0" points="380.5,87.7 386.5,87.7 388.5,103.5 392.1,87.7 399.5,87.7 402.7,103.4 404.7,87.7 410.1,87.7 
	406.4,109.4 399.2,109.4 395.4,93.3 391.4,109.4 384.2,109.4 "/>
<polygon class="st0" points="421.5,87.7 437.8,87.7 437.8,91.9 427.5,91.9 427.5,96.4 437.2,96.4 437.2,100.5 427.5,100.5 
	427.5,105.2 438,105.2 438,109.4 421.5,109.4 "/>
<path class="st0" d="M463.6,101l-2.8-9.1h-0.1l-3,9.1H463.6z M457.3,87.6h7.3l8.6,21.7h-6.8L465,105h-8.7l-1.5,4.4h-6L457.3,87.6z"
	/>
<path class="st0" d="M490.6,97h2.3c0.8,0.1,1.7,0,2.5-0.2c1-0.4,1.7-1.4,1.6-2.5c0-2.7-2.4-2.7-4.1-2.7h-2.3V97z M484.6,87.7h10.1
	c3.9,0,5.4,0.2,6.7,1.6c1.1,1.1,1.6,2.7,1.5,4.2c0,2.4-1,3.4-2,4s-2.1,1-3.3,1.1v0.1c4.2,0.1,4.5,2,4.9,5.3c0.2,1.8,0.5,3.6,1,5.4
	H497c-0.3-1.6-0.6-3.3-0.7-4.9c-0.3-2.6-0.4-3.6-3.1-3.6h-2.5v8.5h-6L484.6,87.7z"/>
</svg>
