<?xml version="1.0" encoding="utf-8"?>
<!-- Generator: Adobe Illustrator 24.2.3, SVG Export Plug-In . SVG Version: 6.00 Build 0)  -->
<svg version="1.1" id="Capa_1" xmlns="http://www.w3.org/2000/svg" xmlns:xlink="http://www.w3.org/1999/xlink" x="0px" y="0px"
	 viewBox="0 0 336 29" style="enable-background:new 0 0 336 29;" xml:space="preserve">
<style type="text/css">
	.st0{fill-rule:evenodd;clip-rule:evenodd;}
</style>
<desc>Created with Sketch.</desc>
<g id="Home-Page">
	<g id="Logo-Designs" transform="translate(-143.000000, -752.000000)">
		<g id="bellacanvas-logo-1440" transform="translate(143.000000, 751.099476)">
			<g id="logo_x2F_Bella-Cavas" transform="translate(0.000000, 0.900524)">
				<g>
					<path id="Fill-1" class="st0" d="M12.3,23.5c0.6,0,1.1-0.1,1.7-0.2c0.5-0.1,1-0.3,1.4-0.6c0.4-0.3,0.7-0.6,1-1.1
						c0.2-0.5,0.4-1.1,0.4-1.8c0-1.4-0.4-2.4-1.2-3c-0.8-0.6-1.8-0.9-3.1-0.9H5.9v7.6H12.3z M11.9,11.8c1.1,0,1.9-0.3,2.6-0.8
						c0.7-0.5,1-1.4,1-2.5c0-0.6-0.1-1.2-0.3-1.6c-0.2-0.4-0.5-0.7-0.9-1c-0.4-0.2-0.8-0.4-1.3-0.5c-0.5-0.1-1-0.1-1.5-0.1H5.9v6.5
						H11.9z M12.7,0.7c1.3,0,2.5,0.1,3.5,0.3c1.1,0.2,2,0.6,2.7,1.1c0.8,0.5,1.3,1.2,1.8,2.1c0.4,0.9,0.6,2,0.6,3.2
						c0,1.4-0.3,2.6-0.9,3.5c-0.6,0.9-1.5,1.7-2.7,2.3c1.7,0.5,2.9,1.3,3.7,2.6c0.8,1.2,1.2,2.7,1.2,4.4c0,1.4-0.3,2.6-0.8,3.6
						c-0.5,1-1.2,1.8-2.1,2.5c-0.9,0.6-1.9,1.1-3.1,1.4c-1.1,0.3-2.3,0.5-3.5,0.5H0V0.7H12.7z"/>
					<polygon id="Fill-3" class="st0" points="49,0.7 49,5.8 34.8,5.8 34.8,11.7 47.8,11.7 47.8,16.4 34.8,16.4 34.8,23.1 
						49.3,23.1 49.3,28.3 28.8,28.3 28.8,0.7 					"/>
					<polygon id="Fill-5" class="st0" points="61.5,0.7 61.5,23.1 74.6,23.1 74.6,28.3 55.5,28.3 55.5,0.7 					"/>
					<polygon id="Fill-7" class="st0" points="86.9,0.7 86.9,23.1 100,23.1 100,28.3 80.9,28.3 80.9,0.7 					"/>
					<path id="Fill-9" class="st0" d="M123.1,17.6l-3.4-10.1h-0.1l-3.5,10.1H123.1z M122.8,0.7l10.1,27.6h-6.2l-2-6.1h-10.1
						l-2.1,6.1h-6l10.2-27.6H122.8z"/>
					<path id="Fill-11" class="st0" d="M178.1,8c-0.4-0.6-0.8-1.1-1.3-1.5c-0.5-0.4-1.1-0.8-1.8-1c-0.7-0.2-1.4-0.4-2.1-0.4
						c-1.3,0-2.5,0.3-3.4,0.8c-0.9,0.5-1.7,1.2-2.3,2.1c-0.6,0.9-1,1.9-1.3,3c-0.3,1.1-0.4,2.3-0.4,3.5c0,1.2,0.1,2.3,0.4,3.4
						c0.3,1.1,0.7,2.1,1.3,3c0.6,0.9,1.3,1.6,2.3,2.1c0.9,0.5,2.1,0.8,3.4,0.8c1.8,0,3.2-0.6,4.2-1.7c1-1.1,1.6-2.6,1.9-4.5h5.7
						c-0.2,1.7-0.5,3.3-1.2,4.7c-0.6,1.4-1.5,2.6-2.5,3.6c-1,1-2.2,1.7-3.6,2.2c-1.4,0.5-2.9,0.8-4.6,0.8c-2.1,0-3.9-0.4-5.6-1.1
						c-1.6-0.7-3-1.7-4.2-3c-1.1-1.3-2-2.8-2.6-4.5c-0.6-1.7-0.9-3.6-0.9-5.6c0-2.1,0.3-4,0.9-5.7c0.6-1.8,1.5-3.3,2.6-4.6
						c1.1-1.3,2.5-2.3,4.2-3.1c1.6-0.7,3.5-1.1,5.6-1.1c1.5,0,2.9,0.2,4.2,0.7c1.3,0.4,2.5,1.1,3.5,1.9c1,0.8,1.9,1.9,2.6,3.1
						c0.7,1.2,1.1,2.7,1.3,4.3h-5.7C178.7,9.2,178.4,8.6,178.1,8"/>
					<path id="Fill-13" class="st0" d="M206.3,17.6l-3.4-10.1h-0.1l-3.5,10.1H206.3z M206,0.7L216,28.3h-6.2l-2-6.1h-10.1l-2.1,6.1
						h-6l10.2-27.6H206z"/>
					<polygon id="Fill-15" class="st0" points="228,0.7 239.3,19.2 239.4,19.2 239.4,0.7 244.9,0.7 244.9,28.3 239,28.3 227.8,9.8 
						227.7,9.8 227.7,28.3 222.2,28.3 222.2,0.7 					"/>
					<polygon id="Fill-17" class="st0" points="259.7,28.3 251,0.7 257.1,0.7 263.1,20.1 263.2,20.1 269.2,0.7 275.4,0.7 
						266.4,28.3 					"/>
					<path id="Fill-19" class="st0" d="M290.5,17.6l-3.4-10.1H287l-3.5,10.1H290.5z M290.1,0.7l10.1,27.6H294l-2-6.1h-10.1l-2.1,6.1
						h-6L284,0.7H290.1z"/>
					<path id="Fill-21" class="st0" d="M309.3,21.4c0.3,0.6,0.8,1.2,1.3,1.6c0.5,0.4,1.2,0.7,1.9,0.9c0.7,0.2,1.5,0.3,2.3,0.3
						c0.5,0,1.1,0,1.7-0.1c0.6-0.1,1.2-0.3,1.7-0.5c0.5-0.3,1-0.6,1.3-1.1c0.4-0.5,0.5-1,0.5-1.7c0-0.7-0.2-1.4-0.7-1.8
						c-0.5-0.5-1.1-0.9-1.8-1.2c-0.8-0.3-1.6-0.6-2.6-0.8c-1-0.2-1.9-0.5-2.9-0.8c-1-0.3-2-0.6-2.9-0.9c-1-0.4-1.8-0.9-2.6-1.4
						c-0.8-0.6-1.4-1.3-1.8-2.2c-0.5-0.9-0.7-2-0.7-3.2c0-1.4,0.3-2.6,0.9-3.7c0.6-1,1.4-1.9,2.3-2.6c1-0.7,2-1.2,3.2-1.5
						c1.2-0.3,2.4-0.5,3.6-0.5c1.4,0,2.8,0.2,4.1,0.5c1.3,0.3,2.4,0.8,3.5,1.6c1,0.7,1.8,1.6,2.4,2.8c0.6,1.1,0.9,2.5,0.9,4.1h-5.7
						c-0.1-0.8-0.2-1.5-0.5-2c-0.3-0.5-0.7-1-1.2-1.3c-0.5-0.3-1-0.5-1.6-0.7c-0.6-0.1-1.3-0.2-2-0.2c-0.5,0-1,0.1-1.4,0.2
						c-0.5,0.1-0.9,0.3-1.3,0.5c-0.4,0.3-0.7,0.6-1,1c-0.3,0.4-0.4,0.9-0.4,1.5c0,0.5,0.1,1,0.3,1.3c0.2,0.3,0.6,0.6,1.2,0.9
						c0.6,0.3,1.4,0.6,2.5,0.9s2.4,0.6,4.1,1.1c0.5,0.1,1.2,0.3,2.1,0.6c0.9,0.3,1.8,0.7,2.7,1.3c0.9,0.6,1.6,1.4,2.3,2.4
						c0.6,1,1,2.3,1,3.8c0,1.3-0.2,2.4-0.7,3.5c-0.5,1.1-1.2,2-2.1,2.8c-0.9,0.8-2.1,1.4-3.5,1.8c-1.4,0.4-3,0.7-4.8,0.7
						c-1.5,0-2.9-0.2-4.3-0.6c-1.4-0.4-2.6-1-3.7-1.8c-1.1-0.8-1.9-1.8-2.5-3.1c-0.6-1.2-0.9-2.7-0.9-4.4h5.7
						C308.8,20,309,20.8,309.3,21.4"/>
					<polygon id="Fill-23" class="st0" points="151.3,12.8 151.3,15.6 146.1,15.6 146.1,21 143.2,21 143.2,15.6 138,15.6 138,12.8 
						143.2,12.8 143.2,7.4 146.1,7.4 146.1,12.8 					"/>
					<path id="Fill-25" class="st0" d="M328.5,25.5c0.1,0,0.2,0,0.2,0c0.1,0,0.1,0,0.2-0.1c0.1,0,0.1-0.1,0.1-0.1
						c0-0.1,0.1-0.1,0.1-0.2c0-0.1,0-0.2-0.1-0.2c0-0.1-0.1-0.1-0.1-0.1c-0.1,0-0.1,0-0.2-0.1c-0.1,0-0.1,0-0.2,0H328v0.8H328.5z
						 M328,27.1h-0.5v-2.9h1.1c0.3,0,0.6,0.1,0.8,0.2c0.2,0.1,0.3,0.3,0.3,0.6c0,0.3-0.1,0.5-0.2,0.6c-0.1,0.1-0.3,0.2-0.5,0.2
						l0.8,1.3h-0.5l-0.7-1.2H328V27.1z M330.4,25.6c0-0.3-0.1-0.6-0.2-0.9c-0.1-0.3-0.2-0.5-0.4-0.7c-0.2-0.2-0.4-0.3-0.6-0.4
						c-0.2-0.1-0.5-0.2-0.8-0.2c-0.3,0-0.5,0.1-0.8,0.2c-0.2,0.1-0.4,0.3-0.6,0.4c-0.2,0.2-0.3,0.4-0.4,0.7
						c-0.1,0.3-0.2,0.6-0.2,0.9c0,0.3,0,0.6,0.1,0.8c0.1,0.3,0.2,0.5,0.4,0.7c0.2,0.2,0.4,0.4,0.6,0.5c0.2,0.1,0.5,0.2,0.8,0.2
						c0.3,0,0.5-0.1,0.8-0.2c0.2-0.1,0.4-0.3,0.6-0.4c0.2-0.2,0.3-0.4,0.4-0.7C330.4,26.3,330.4,26,330.4,25.6L330.4,25.6z
						 M331,25.6c0,0.4-0.1,0.7-0.2,1.1s-0.3,0.6-0.5,0.8c-0.2,0.2-0.5,0.4-0.8,0.5c-0.3,0.1-0.6,0.2-1,0.2c-0.4,0-0.7-0.1-1-0.2
						c-0.3-0.1-0.6-0.3-0.8-0.5c-0.2-0.2-0.4-0.5-0.5-0.8c-0.1-0.3-0.2-0.7-0.2-1c0-0.4,0.1-0.7,0.2-1.1s0.3-0.6,0.5-0.8
						c0.2-0.2,0.5-0.4,0.8-0.5c0.3-0.1,0.6-0.2,1-0.2c0.3,0,0.6,0.1,1,0.2c0.3,0.1,0.6,0.3,0.8,0.5c0.2,0.2,0.4,0.5,0.5,0.8
						S331,25.3,331,25.6L331,25.6z"/>
				</g>
			</g>
		</g>
	</g>
</g>
</svg>
