<?xml version="1.0" encoding="utf-8"?>
<!-- Generator: Adobe Illustrator 24.2.3, SVG Export Plug-In . SVG Version: 6.00 Build 0)  -->
<svg version="1.1" id="Capa_1" xmlns="http://www.w3.org/2000/svg" xmlns:xlink="http://www.w3.org/1999/xlink" x="0px" y="0px"
	 viewBox="0 0 366 65" style="enable-background:new 0 0 366 65;" xml:space="preserve">
<style type="text/css">
	.st0{fill:#3C3C3C;}
</style>
<g>
	<path class="st0" d="M353.8,54.3c-0.3,0.3-0.8,1.4-1.5,1.6c-1.3,0.4-2.6,0.2-2.9-1.7c-0.9-5.4-1.8-10.8-2.8-16.2
		c-0.4-2.3-0.7-4.6-1.1-6.9c-0.1-0.6-0.5-1.1-0.8-1.6c-0.4,0.4-1.1,0.7-1.3,1.2c-1.4,3.4-2.7,6.8-4,10.2c-1.8,4.6-3.6,9.3-5.4,13.9
		c-0.2,0.6-0.7,1.1-1,1.6c-0.4-0.5-0.9-1-1.2-1.6c-2.7-7-5.4-14-8.1-20.9c-0.7-1.8-1.8-3.5-2.6-5.2c-0.5,1.9-1.1,3.8-1.4,5.7
		c-1.1,6.2-2.1,12.5-3.1,18.7c-0.1,0.7,0,1.7-0.4,1.9c-0.9,0.5-2.1,0.8-3.1,0.8c-0.3,0-0.9-1.5-0.8-2.2c2.1-12.8,4.3-25.6,6.6-38.3
		c0.1-0.6,0.6-1.1,1-1.6c0.3,0.5,0.8,1,1,1.5c3.3,8.7,6.6,17.4,9.9,26.1c0.3,0.8,0.5,1.6,0.9,2.3c0.4,0.7,1,1.3,1.4,1.9
		c0.3-0.6,0.7-1.1,0.9-1.7c0.9-2.2,1.7-4.3,2.6-6.5c2.8-7.5,5.6-14.9,8.5-22.4c0.2-0.6,0.7-1,1.1-1.5c0.3,0.6,0.7,1.2,0.8,1.8
		c1.5,8.5,3,17,4.5,25.5C352.2,45,352.9,49.2,353.8,54.3z"/>
	<path class="st0" d="M259.7,34.6c-0.2,9.2-3.6,16.5-12.3,20.5c-7.9,3.6-15.3,2.3-21.6-3.7c-9-8.6-9.1-25,0-33.2
		c6-5.4,13.1-7.4,20.7-4.5c8.1,3.1,11.9,9.7,13.2,18C259.8,32.6,259.7,33.6,259.7,34.6z M255,33.7c0-0.1,0.1-1.2-0.2-2.4
		c-1.3-6.4-4.4-11.5-11-13.6c-6-1.9-11.2-0.1-15.4,4.3c-6.2,6.6-6.3,17.2-0.6,24.3c5.6,7,15,7.8,21.5,1.8
		C253.3,44.6,255.2,40.2,255,33.7z"/>
	<path class="st0" d="M266.8,32.5c0.2-6.5,3.5-13.4,11.2-17.7c7.1-3.9,15.7-3,21.9,2.3c10.9,9.2,10.2,28-1.4,36.3
		c-8.9,6.5-21.1,4.2-27.6-5.2C268.2,44.4,266.8,39.7,266.8,32.5z M303.1,35.1c-0.2-5.1-1.9-9.8-5.2-13.2c-6.7-6.9-16.6-6.4-22.5,1.2
		c-3.8,5-4.7,10.6-3.2,16.5c1.8,7.3,7.7,12.3,14.3,12.5c7,0.2,13-4.3,15.4-11.8C302.4,38.7,302.7,36.9,303.1,35.1z"/>
	<path class="st0" d="M42.5,34.6c0-6,0.1-12,0-18c-0.1-2.5,0.7-3.7,3.3-3.5c3.1,0.2,6.3,0,9.4,0.3c4.2,0.5,7.1,2.8,8,7
		c1.1,4.9,1.1,9.7-3.2,13.3c-1.2,1-3,1.2-4.6,1.6c-1.9,0.4-2.1,1.1-1,2.7c3,4.2,6,8.3,9.1,12.5c0.4,0.5,0.9,1,1.2,1.6
		c0.6,1.2,1.7,2.6,1.5,3.7c-0.1,1-4.5,0-5.6-1.4c-2.1-2.8-4-5.7-6-8.6c-1.6-2.3-3.1-4.7-4.8-7c-0.5-0.8-1.3-1.4-1.9-2.1
		c-0.2,1-0.6,2.1-0.6,3.1c-0.1,4.5,0,9-0.2,13.5c0,0.9-0.7,2.3-1.4,2.6c-1.7,0.8-3.1-0.2-3.1-2.3C42.5,47.2,42.5,40.9,42.5,34.6
		C42.5,34.6,42.5,34.6,42.5,34.6z M47.2,24.6C47.2,24.6,47.2,24.6,47.2,24.6c0.1,1.8-0.1,3.7,0.1,5.5c0.1,0.6,0.7,1.5,1.3,1.7
		c6,2,11.5-2.3,10.8-8.3c-0.6-4.5-3.2-6.1-9.3-5.8c-2.9,0.2-2.9,0.2-2.9,5.9C47.2,23.9,47.2,24.2,47.2,24.6z"/>
	<path class="st0" d="M96.3,28.6c0-4.3,0-8.7,0-13c0-1.5,0.3-2.5,2.2-2.5c1.7,0,2.4,0.7,2.4,2.3c-0.2,9.6,0.2,19.3-0.6,28.9
		c-0.9,10.8-12.4,16.3-22,11.1c-4.3-2.3-6.6-6.3-6.7-11c-0.3-9.6-0.2-19.3-0.3-28.9c0-1.6,0.5-2.5,2.3-2.4c2,0.1,2,1.3,2,2.7
		c0,7.2,0,14.3,0.1,21.5c0,2.6,0.2,5.3,0.8,7.9c1,4.6,4.1,6.9,8.9,7.1c5.7,0.1,8.8-1.9,10.1-6.8c0.5-1.9,0.8-3.9,0.8-5.9
		C96.4,35.9,96.3,32.3,96.3,28.6C96.3,28.6,96.3,28.6,96.3,28.6z"/>
	<path class="st0" d="M15.5,34.5c0-6,0.1-12,0-18c0-2.2,0.4-3.5,3-3.4c4.8,0.1,9.6,0,14.4,0c1.5,0,2.6,0.3,2.5,2.2
		c0,1.7-0.4,2.8-2.5,2.8c-3.5-0.1-7,0-10.5,0c-1.9,0-2.6,0.8-2.8,2.6c-1.1,9-0.6,9.6,8.2,9.6c1.5,0,3,0,4.5,0c1.6,0,3,0,3,2.2
		c0.1,2.2-1.1,2.4-2.8,2.4c-3.3-0.1-6.6,0.1-10,0c-2.1-0.1-3,0.8-3,2.9c0.1,4.5,0,9,0,13.5c0,1.2,0.2,2.4-0.3,3.4
		c-0.3,0.6-1.5,1.1-2.3,1.2c-0.5,0-1.3-0.8-1.5-1.4c-0.3-0.9-0.1-2-0.1-3C15.5,45.8,15.5,40.1,15.5,34.5z"/>
	<path class="st0" d="M130.4,36.9c0-5.2-0.1-10.3,0-15.5c0.1-2.6-0.9-3.6-3.5-3.4c-1.6,0.1-3.3,0-5,0c-2,0.1-2.6-0.9-2.5-2.7
		c0-1.9,1-2.2,2.5-2.2c7.1,0,14.3,0,21.4,0c1.5,0,2.6,0.2,2.6,2.1c0,1.8-0.4,2.9-2.5,2.8c-1.2-0.1-2.3,0-3.5,0c-4.9,0-5,0-5,4.8
		c0,9.2,0,18.3,0,27.5c0,1-0.1,2,0,3c0.1,1.8-0.5,2.8-2.5,2.7c-1.9-0.1-2.1-1.1-2.1-2.6C130.4,47.9,130.4,42.4,130.4,36.9
		C130.4,36.9,130.4,36.9,130.4,36.9z"/>
	<path class="st0" d="M198.2,34.5c0-6.2,0-12.3,0-18.5c0-1.7,0.2-3,2.4-2.9c1.3,0.1,2.3,0.3,2.3,1.9c0,1.2,0,2.3,0,3.5
		c0,9.7,0,19.3,0,29c0,3.5,0.1,3.5,3.6,3.6c2.8,0.1,5.7,0.1,8.5,0c1.6,0,2.5,0.4,2.5,2.2c0,1.9-0.6,2.8-2.6,2.7
		c-4.7-0.1-9.3-0.1-14,0c-2.3,0-2.8-1-2.8-3C198.2,46.9,198.2,40.7,198.2,34.5C198.2,34.5,198.2,34.5,198.2,34.5z"/>
	<path class="st0" d="M114.4,34.8c0,5.3,0,10.7,0,16c0,1,0,2,0,3c0,1.4-0.5,2.2-2,2.2c-1.4,0-2.2-0.5-2.2-2c0-1,0-2,0-3
		c0-11,0-22,0-33c0-0.5,0-1,0-1.5c0.1-1.6-0.4-3.5,2.3-3.4c2.4,0.1,2,1.8,2,3.2c0.1,3,0,6,0,9C114.4,28.5,114.4,31.6,114.4,34.8z"/>
	<path class="st0" d="M155,21.8c-0.1-5.5,3.6-9.8,8.4-9.7c4.6,0.1,8.5,4.2,8.6,9.2c0.1,5.3-3.7,9.5-8.6,9.7
		C158.7,31.1,155.1,27.1,155,21.8z M169.2,21.9c0.1-3.7-2.4-6.8-5.6-7c-3.2-0.2-5.9,2.9-5.9,6.6c0,3.8,2.5,6.6,5.8,6.7
		C166.6,28.3,169.1,25.4,169.2,21.9z"/>
	<path class="st0" d="M162.3,46.5c0-2.3-0.1-4.7,0.1-7c0-0.5,0.9-1,1.4-1.5c0.4,0.5,0.8,0.9,1.1,1.4c0.1,0.3,0,0.7,0.1,1
		c0.4,4,0.5,3.8,4.3,4c3.4,0.2,3.8-1.7,3.7-4.3c0-0.6,0.7-1.3,1.1-1.9c0.4,0.6,1.1,1.2,1.1,1.8c0.1,4.6,0.1,9.3,0,14
		c0,0.5-0.6,1-1,1.5c-0.4-0.4-1.1-0.8-1.1-1.3c-0.2-1.3,0-2.7-0.2-4c-0.2-1-0.6-2.8-1.1-2.9c-2.1-0.2-4.2-0.2-6.2,0.3
		c-0.5,0.1-0.3,2.4-0.6,3.7c-0.3,1.5,1,4.2-1.2,4.2c-2.6,0-1.2-2.8-1.4-4.4C162.1,49.5,162.2,48,162.3,46.5
		C162.2,46.5,162.3,46.5,162.3,46.5z"/>
	<path class="st0" d="M178.3,46.6c0-2,0.1-4,0-6c-0.1-2.2,1-3,3-2.9c0.7,0,1.4-0.1,2,0c1.2,0.3,3.3,0.6,3.3,1
		c0.1,2.1-1.8,1.3-2.9,1.4c-1.4,0.2-2.7,0.2-2.7,2.1c-0.1,2.2,1.2,2.4,2.9,2.4c0.7,0,1.3,0,2,0.2c0.4,0.1,1,0.7,0.9,0.8
		c-0.3,0.5-0.6,1.1-1.1,1.3c-0.6,0.2-1.3,0.2-2,0.2c-2.2-0.1-2.7,1.1-2.8,3.1c-0.1,2.3,1,2.9,3,2.8c0.5,0,1.1-0.1,1.5,0.1
		c0.6,0.3,1.1,0.9,1.6,1.3c-0.5,0.4-0.9,0.8-1.4,1.1c-0.1,0.1-0.3,0-0.5,0.1c-6.1,0.8-6.7,0.3-6.7-6.1
		C178.3,48.6,178.3,47.6,178.3,46.6z"/>
	<path class="st0" d="M174.4,21.1c0-0.8,0-1.7,0-2.5c0-5.8,2-7.3,7.5-5.7c0.4,0.1,0.9,0.6,0.9,0.9c0,0.3-0.4,0.9-0.7,1
		c-1,0.2-2,0.2-3,0.2c-1.5,0-2.3,0.9-1.9,2.2c0.2,0.9,1.2,1.6,1.8,2.4c0.1,0.1,0.3,0,0.5,0c1.1,0.4,2.3,0.7,3.4,1.1
		c-1.1,0.4-2.2,1.1-3.3,1.1c-2,0.1-2.6,1-2.6,2.8c0.1,1.2,0.1,2.4-0.1,3.5c-0.1,0.6-0.8,1.2-1.2,1.7c-0.4-0.6-1.2-1.2-1.2-1.9
		C174.3,25.8,174.4,23.5,174.4,21.1C174.4,21.1,174.4,21.1,174.4,21.1z"/>
	<path class="st0" d="M155.5,37.7c0.5,0,1-0.1,1.5,0c1.3,0.4,2.5,0.8,3.8,1.2c-0.9,0.5-2,0.8-2.7,1.5c-0.7,0.7-1.3,1.8-1.4,2.8
		c-0.2,2.6-0.2,5.3-0.2,8c0,0.8,0.1,1.7-0.1,2.5c-0.2,0.6-0.9,1.1-1.3,1.7c-0.3-0.5-0.8-1-0.9-1.6c-0.1-1.1-0.1-2.3-0.1-3.5
		c0-1.8,0-3.7,0-5.5c0.1-2.4,0.3-4.8-3.2-4.8c-0.3,0-0.7-0.9-0.9-1.4c0-0.1,0.7-0.7,1.1-0.8c1.5-0.1,3,0,4.5,0
		C155.5,37.8,155.5,37.8,155.5,37.7z"/>
</g>
</svg>
