<?xml version="1.0" encoding="utf-8"?>
<!-- Generator: Adobe Illustrator 24.2.3, SVG Export Plug-In . SVG Version: 6.00 Build 0)  -->
<svg version="1.1" id="Layer_1" xmlns="http://www.w3.org/2000/svg" xmlns:xlink="http://www.w3.org/1999/xlink" x="0px" y="0px"
	 viewBox="0 0 270 61.2" style="enable-background:new 0 0 270 61.2;" xml:space="preserve">
<style type="text/css">
	.st0{fill:#3D3C3C;}
	.st1{fill:#00438E;}
</style>
<g>
	<path class="st0" d="M22.6,4.8c-1.6,0.1-3.1,0.3-4.4,0.5c-1.3,0.3-2.5,0.6-3.6,1c-1.1,0.4-2.2,1-3.1,1.6
		c-6.6,3.9-9.9,11.6-9.9,22.9c0,4.7,0.5,8.7,1.6,11.9c1.1,3.3,2.9,6,5.3,8.3c1.1,1,2.3,1.9,3.5,2.6c1.2,0.7,2.6,1.3,4.1,1.7
		c1.5,0.4,3.2,0.7,5.1,0.9c1.9,0.2,4.1,0.3,6.6,0.3h19.9V26.1H21.8v9h15.8v12.4h-8.8c-2.1,0-3.9-0.1-5.4-0.3
		c-1.4-0.2-2.7-0.5-3.8-0.9c-1-0.4-1.9-0.9-2.6-1.5c-0.7-0.6-1.4-1.5-2.1-2.5c-0.5-0.8-1-1.7-1.3-2.5c-0.4-0.8-0.7-1.8-0.9-2.8
		c-0.2-1-0.4-2.1-0.5-3.4l0-0.6c-0.1-0.9-0.1-1.3-0.1-2.1c-0.1-7.8,2-13,6.1-15.5c0.6-0.4,1.3-0.7,1.8-0.9c0.6-0.2,1.2-0.4,2-0.6
		c0.7-0.1,1.7-0.2,2.7-0.3c1.1-0.1,2.5-0.1,4.2-0.1h18.8v-9H28.1C26.1,4.6,24.3,4.7,22.6,4.8"/>
	<rect x="54.6" y="4.6" class="st0" width="10" height="51.8"/>
	<path class="st0" d="M81.5,44.4c-0.8-0.9-1.4-2.1-1.7-3.6c-0.4-1.6-0.5-3.9-0.5-7V4.7h-10v31c0,1.9,0.1,3.7,0.2,5.2
		c0.2,1.5,0.4,2.9,0.7,4.2c0.3,1.2,0.8,2.4,1.4,3.4c0.6,1,1.3,1.9,2.1,2.7c1.9,1.9,4.1,3.3,6.7,4.1c2.5,0.8,5.9,1.2,9.9,1.2h13.5v-9
		H92C87,47.5,83.4,46.4,81.5,44.4"/>
	<path class="st0" d="M144.3,31.2c0,2.6-0.2,5-0.7,7.2c-0.5,2.1-1.2,3.8-2.2,5.2c-1.1,1.7-2.5,2.9-4.3,3.7c-1.9,0.8-4.3,1.2-7.3,1.2
		h-12.2V12.7h11.7c3,0,5.4,0.3,7.2,0.9c1.7,0.6,3.1,1.6,4.1,2.9c1.2,1.5,2.1,3.5,2.7,6C144,25.1,144.3,28,144.3,31.2 M154.8,30
		c0-4.3-0.5-8.1-1.6-11.2c-1.1-3.1-2.8-6-5.1-8.3c-1.1-1.1-2.3-2.1-3.5-2.9c-1.2-0.8-2.6-1.4-4.1-1.8c-1.5-0.4-3.3-0.8-5.3-0.9
		c-1.9-0.2-4.3-0.3-7-0.3h-20.6v51.8H129c2.1,0,4,0,5.4-0.1c1.5-0.1,2.9-0.2,4-0.4c1.2-0.2,2.3-0.5,3.2-0.9c1-0.4,1.9-0.8,2.9-1.4
		c3.4-1.9,6-4.9,7.7-8.9C154,40.8,154.8,35.8,154.8,30"/>
	<path class="st0" d="M187.7,35.3h-16.8l6.9-16.7l0.6-1.6c0.3-0.7,0.6-1.4,1-2.4L187.7,35.3z M177.7,4.6c-0.5,0-1.9,0.1-3.3,1.2
		c-1.7,1.2-2.6,3.4-2.9,4.3l0,0l-19.8,46.4h10.6l4.1-9.9c0.5-1.2,1.2-2.5,1.5-2.7c0.4-0.3,0.9-0.5,1.6-0.5c0.2,0,0.5,0,0.6,0l0,0
		l20.9,0l4.1,10.3c0.2,0.5,0.7,1.5,1.3,2c0.6,0.6,1.6,0.8,3.2,0.8c0.3,0,0.5,0,0.5,0l6.7-0.1L185.7,4.6L177.7,4.6z"/>
	<path class="st0" d="M246.2,41L224.6,9.8l-0.1-0.1c0,0-2.3-2.7-3.7-4c-0.5-0.5-1.6-1.1-4.5-1.1c-0.5,0-0.8,0-1,0l-5.2-0.1v51.8h9.6
		V20.2l21.4,30.6c0.7,1.2,2.6,4.1,4.1,4.8c1.5,0.8,3.4,0.8,3.7,0.8h6.9V4.6h-9.6V41z"/>
</g>
<g>
	<path class="st1" d="M263.5,9.2V7.7h1.1c0.5,0,1.2,0.1,1.2,0.7c0,0.8-0.6,0.8-1.3,0.8H263.5z M266.7,8.5c0-1.1-0.7-1.5-2-1.5h-2
		v5.4h0.9V10h0.8l1.4,2.3h1l-1.5-2.4C266.1,9.8,266.7,9.4,266.7,8.5"/>
	<path class="st1" d="M264.5,13.5c-2.3,0-3.8-1.8-3.8-4c0-2.4,1.6-4,3.8-4c2.1,0,3.7,1.7,3.7,4C268.2,11.9,266.6,13.5,264.5,13.5
		 M264.5,4.6c-2.6,0-4.8,2-4.8,4.9c0,2.8,2,4.9,4.8,4.9c2.6,0,4.8-1.9,4.8-4.9C269.3,6.6,267,4.6,264.5,4.6"/>
</g>
</svg>
