<?xml version="1.0" encoding="utf-8"?>
<!-- Generator: Adobe Illustrator 24.2.3, SVG Export Plug-In . SVG Version: 6.00 Build 0)  -->
<svg version="1.1" id="Capa_1" xmlns="http://www.w3.org/2000/svg" xmlns:xlink="http://www.w3.org/1999/xlink" x="0px" y="0px"
	 viewBox="0 0 269 141" style="enable-background:new 0 0 269 141;" xml:space="preserve">
<style type="text/css">
	.st0{fill:#3C3C3C;}
</style>
<g id="NdYf99.tif">
	<g>
		<path class="st0" d="M134.8,20.2c9.3,0,18.6,0,27.9,0c6.6,0,8.2,1.7,8.2,8.3c0,4.6,0.1,9.3-0.1,13.9c-0.1,4.2-1.9,6-6.1,6.3
			c-4,0.2-8,0-12,0.1c-2.5,0-3.7-1.1-3.7-3.6c0-0.3,0-0.7,0-1c-0.3-5.3-0.7-5.6-5.9-5.5c-4,0.1-4.4,0.3-4.7,4.6
			c-0.1,2.1-0.1,3.5-2.8,3.5c-2.4,0-3.8-0.6-3.8-3.3c0-1.7,0.5-4.2-2-4.5c-2.6-0.3-5.2,0-7.8,0.3c-0.5,0.1-0.9,1.6-1.1,2.5
			c-0.2,1.3-0.1,2.6-0.1,4c0,1.8-0.8,2.8-2.7,2.8c-4.5,0-9,0.2-13.4-0.2c-4.2-0.4-5.5-2-5.6-6.1c-0.1-5-0.1-10,0-14.9
			c0.1-5.5,1.7-7.2,7.2-7.2C115.8,20.2,125.3,20.2,134.8,20.2z"/>
		<path class="st0" d="M93.1,116.5c0,4.5,0.1,9,0,13.5c-0.1,2.9-0.5,3.1-4.2,3.1c-2.4,0-3.8-0.5-3.6-3.3c0.2-2.3,0-4.6,0-7
			c0-2-0.6-3.2-2.8-3.1c-5.5,0-11,0-16.5,0c-1.9,0-2.7,1-2.7,2.8c0,2.5-0.2,5,0,7.5c0.2,3-1.6,3.2-3.8,3.1c-2,0-4.1,0.2-4-2.9
			c0.1-9-0.1-17.9,0.1-26.9c0.1-4.7,2.8-8.2,7.1-10c7.5-3.2,15.2-3.3,22.8-0.3c5,1.9,7.6,5.7,7.6,11.2
			C93.1,108.2,93.1,112.3,93.1,116.5z M74.5,111.9C74.5,111.9,74.5,111.9,74.5,111.9c2.5,0,5-0.1,7.5,0c2.3,0.1,3.4-0.7,3.3-3.1
			c-0.1-1.5-0.1-3,0-4.5c0.1-2.3-1.1-3.8-3.2-4.5c-5.2-1.8-10.4-1.9-15.5,0.2c-2.9,1.2-4.6,8.4-2.6,10.9c0.5,0.6,1.7,0.9,2.6,1
			C69.2,112,71.8,111.9,74.5,111.9z"/>
		<path class="st0" d="M177.9,116.9c0-4.2,0-8.3,0-12.5c-0.1-5.7,2.8-9.5,7.9-11.5c7.2-2.8,14.6-2.9,21.9,0c5.2,2,7.8,5.9,7.8,11.6
			c0,8.3,0,16.6,0,24.9c0,3.5-0.2,3.7-3.6,3.7c-3.8,0.1-4-0.1-4.2-3.7c0-0.2,0-0.3,0-0.5c-0.3-2.9,0.4-6.7-1.2-8.5
			c-1.3-1.5-5.3-0.6-8.1-0.7c-3.3-0.1-6.7,0-10,0c-1.9,0-2.7,0.9-2.7,2.7c0,2.7-0.1,5.3,0,8c0.1,2.9-1.8,2.7-3.7,2.7
			c-1.9,0-4.2,0.5-4.1-2.7C178,125.8,178,121.3,177.9,116.9C178,116.9,178,116.9,177.9,116.9z M196.3,111.9c2.3,0,4.6,0,7,0
			c4.3-0.1,4.3-0.1,4.4-4.6c0-0.5,0-1,0-1.5c-0.1-4.4-0.9-5.5-5.2-6.6c-4.3-1.1-8.6-1.1-12.7,0.4c-3.5,1.2-5.8,8.5-3.6,11.3
			c0.5,0.6,1.7,0.9,2.7,0.9C191.4,112,193.9,111.9,196.3,111.9z"/>
		<path class="st0" d="M135.1,71.9c-7.6,0-15.3,0-22.9,0c-6.7,0-9.1-2.3-9-9c0-10-1.2-8.6,8.7-8.8c1,0,2,0,3,0c5.6,0,5.6,0,6.2,5.9
			c0.3,3.4,1,4,4.9,4.1c4.3,0.1,5.6-0.8,6.1-4c0.3-1.7-0.7-3.8,1.7-4.7c2.8-0.9,4.6,0.4,5,3.5c0.5,4.7,3.8,6.7,8.2,4.8
			c0.9-0.4,1.7-1.5,2-2.5c0.4-1.2,0.3-2.6,0.2-3.9c0-2,0.7-3.2,2.9-3.1c4,0,8,0,12,0c2,0,3,1.1,3.4,2.9c0.8,4.2,0.1,8.3-1.8,12
			c-1.2,2.4-3.6,2.7-6,2.7C151.4,71.9,143.2,71.9,135.1,71.9C135.1,71.9,135.1,71.9,135.1,71.9z"/>
		<path class="st0" d="M243.1,90.5c3.6,0.6,6.8,0.9,9.8,1.7c5.7,1.6,9.1,5.5,9.6,11.4c0.5,5.5-1.4,10.1-6.3,13.1
			c-3.4,2.1-3.4,2.2-1.4,5.5c1.7,2.9,3.5,5.7,5.2,8.5c0.8,1.3,0.6,2.1-1.1,2.3c-5,0.8-6.5,0.1-9.3-4.4c-0.8-1.3-1.6-2.5-2.4-3.8
			c-3.2-5.2-6.3-6.5-12.3-5.2c-1.6,0.3-2.2,1.3-2.2,2.8c0,2.3,0,4.7-0.1,7c-0.1,3.5-0.3,3.7-3.7,3.7c-3.5,0-3.9-0.2-4-3.5
			c-0.1-4.6,0-9.3,0-13.9c0-3.8,0-7.6,0-11.5c0-5.6,2.7-9.6,8-11.3C236.2,91.7,239.8,91.2,243.1,90.5z M241,111.8c0,0.1,0,0.1,0,0.2
			c2.6-0.2,5.3-0.3,7.9-0.8c3.9-0.8,5.8-3.1,5.8-6.3c-0.1-3.2-2.1-5.6-6.1-6c-3.4-0.4-7-0.3-10.3,0.2c-5.2,0.9-6.4,3.3-5.6,9.6
			c0.4,3,0.4,3,6.5,3C239.7,111.8,240.3,111.8,241,111.8z"/>
		<path class="st0" d="M46.2,113.4c0,4.6,0,9.3,0,13.9c0,5.6-0.1,5.7-3.7,5.7c-3.8,0.1-3.9,0-3.9-5.4c0-2.3-0.1-4.6,0-7
			c0-2.3-1.1-3.2-3.4-3.2c-5.1,0.1-10.3,0.1-15.4,0c-2.3,0-3.3,1-3.3,3.3c0,3.1-0.1,6.3,0,9.5c0,3-2,2.9-4.1,2.9
			c-2.2,0.1-3.4-0.6-3.4-3.1c0-10.9,0.1-21.9,0-32.8c0-2.7,1.3-3.3,3.7-3.3c2.3,0,3.9,0.4,3.8,3.2c-0.1,3,0,6,0,9
			c0,2.4,0.8,3.7,3.4,3.7c5.1-0.1,10.3,0,15.4,0c2.3,0,3.3-1,3.3-3.3c-0.1-3.1,0.1-6.3,0-9.5c-0.1-2.9,1.6-3.1,3.9-3.1
			c2.3,0,3.9,0.3,3.9,3.2C46.1,102.4,46.2,107.9,46.2,113.4C46.2,113.4,46.2,113.4,46.2,113.4z"/>
		<path class="st0" d="M139.1,117.3c0-3.8,0-7.6,0-11.5c-0.1-5.9,2.9-9.7,8.2-11.8c6.7-2.6,13.7-1.9,20.7-1.8c2.5,0.1,1.9,2.3,2,3.8
			c0,1.6,0.4,3.6-2.1,3.7c-3,0.1-6-0.1-9,0.1c-2.8,0.2-5.6,0.6-8.3,1.3c-2.2,0.6-3.5,2.2-3.7,4.7c-0.3,5,0.2,5.7,5.4,5.8
			c3.7,0,7.3,0,11,0c4.4,0,4.6,0.3,4.6,3.8c0,3.4-0.2,3.6-4.8,3.7c-4,0-8-0.1-12,0c-3.7,0.1-4,0.4-4.1,4c-0.1,2.3-0.1,4.6,0,7
			c0.1,2.6-1.5,3-3.5,2.9c-2-0.1-4.2,0.4-4.2-2.8C139.2,125.9,139.2,121.6,139.1,117.3C139.2,117.3,139.1,117.3,139.1,117.3z"/>
		<path class="st0" d="M102.3,108.4c0-3.6-0.1-7.3,0-10.9c0.1-3.4,0.4-3.6,3.8-3.6c3.4,0,3.9,0.3,3.9,3.5c0.1,6.6,0,13.3,0,19.9
			c0,5.5,1.3,7,6.8,7.8c3.1,0.4,6.3,0.5,9.4,0.6c4.7,0.1,4.9,0.3,4.8,4.1c-0.1,3.3-0.1,3.4-5,3.3c-4.8-0.2-9.7-0.2-14.3-1.3
			c-6.6-1.6-9.4-5.9-9.5-12.8C102.2,115.4,102.3,111.9,102.3,108.4z"/>
		<path class="st0" d="M176.2,28.7c-0.3-2.6,0.3-5.2,3.9-6.9c1.8-0.9,2.6-3.6,3.8-5.6c0.3-0.5,0.1-1.4,0.4-1.9
			c0.8-1.5,1.8-2.9,2.7-4.4c0.7,1.4,1.7,2.8,2,4.3c2,8.6-0.4,15.6-6.8,19.6c-1.3,0.8-3,1.1-4.5,1.6c-0.5-1.5-1-3-1.4-4.5
			C176.1,30.4,176.2,29.9,176.2,28.7z"/>
		<path class="st0" d="M94.1,29.8c-0.4,1.9-0.7,3.8-1.1,5.7c-2.1-0.8-4.4-1.2-6.3-2.4c-4.8-3.1-6.3-8.1-6.1-13.4
			c0.1-2.9,1-5.8,1.7-8.7c0.1-0.5,1-1.1,1.4-1.1c0.4,0,1,0.8,1.2,1.3c0.4,1.3,0.3,2.7,0.9,3.9c1.3,2.4,2.4,5.5,4.5,6.8
			C93.8,24,94.2,26.5,94.1,29.8z"/>
	</g>
</g>
</svg>
