<?xml version="1.0" encoding="utf-8"?>
<!-- Generator: Adobe Illustrator 24.2.3, SVG Export Plug-In . SVG Version: 6.00 Build 0)  -->
<svg version="1.1" id="Capa_1" xmlns="http://www.w3.org/2000/svg" xmlns:xlink="http://www.w3.org/1999/xlink" x="0px" y="0px"
	 viewBox="0 0 366 95" style="enable-background:new 0 0 366 95;" xml:space="preserve">
<style type="text/css">
	.st0{fill:#3C3C3C;}
</style>
<g>
	<path class="st0" d="M301.7,11.2c0,2,0,4,0,6.4c-8.4,0-16.9,0-25.4,0c0,2.1,0,4,0,6.3c8.3,0,16.8,0,25.3,0c0,6.2,0,12.1,0,18.2
		c-10.4,0-20.9,0-31.6,0c0-1.5,0-3.3,0-5.2c8.2,0,16.6,0,25.1,0c0-2.2,0-4.2,0-6.4c-8,0-16,0-23.9,0c-0.5-0.5-0.8-0.8-1.5-1.5
		c0-5.7,0-11.8,0-17.8C280.4,11.2,291,11.2,301.7,11.2z"/>
	<path class="st0" d="M346.4,11.2c0,2,0,4,0,6.4c-2.1,0-4.1,0-6.2,0c-2.1,0-4.2,0-6.4,0c0,2.1,0,4,0,6.3c8.3,0,16.8,0,25.3,0
		c0,1.9,0,3.6,0,5.2c-0.3,0.3-0.6,0.6-1.1,1.1c-1.5,0-3.1,0-5,0c0,4,0,7.9,0,11.9c-10.8,0-21.2,0-31.9,0c0-6,0-11.9,0-18.1
		c2,0,3.9,0,6.2,0c0-4.4,0-8.6,0-12.8C333.6,11.2,340,11.2,346.4,11.2z M346.2,36.7c0-2.3,0-4.3,0-6.3c-6.4,0.1-12.7-0.2-18.8,0.2
		c0,2.2,0,4.2,0,6.2C333.7,36.7,339.9,36.7,346.2,36.7z"/>
	<path class="st0" d="M259.7,11.2c1.2,1.5,0.9,3.3,0.9,5.1c-0.3,0.3-0.6,0.6-1.1,1.1c-7.8,0-15.8,0-23.8,0c-0.5,0.6-0.9,1-1.4,1.5
		c0,1.3,0,2.6,0,3.8c0.4,0.4,0.8,0.8,1.2,1.2c8.2,0,16.5,0,25,0c0,1.8,0,3.4,0,5.2c-0.3,0.3-0.7,0.7-1.2,1.2c-7.9,0-15.8,0-23.7,0
		c-0.4,0.4-0.9,0.8-1.4,1.3c0,1.3,0,2.6,0,3.7c0.8,1.5,2,1.4,3.2,1.4c7.6,0,15.2,0,23,0c0,1.8,0,3.6,0,5.4c-10.5,0-21,0-31.8,0
		c0-10.3,0-20.6,0-30.9C239,11.2,249.4,11.2,259.7,11.2z"/>
	<path class="st0" d="M218.6,11.2c0,10.3,0,20.6,0,30.9c-1.9,0-3.5,0-5.5,0c0-8.2,0-16.3,0-24.5c-2.5,0-4.8,0-7.2,0
		c0,8.1,0,16.1,0,24.3c-1.9,0-3.6,0-5.5,0c0-7.9,0-15.9,0-24.3c-2.5-0.3-4.8-0.1-7.3-0.2c0,8.2,0,16.2,0,24.4c-1.9,0-3.6,0-5.6,0
		c0-10.2,0-20.5,0-30.8C198,11.2,208.3,11.2,218.6,11.2z"/>
	<path class="st0" d="M177.6,11.2c0,10.3,0,20.6,0,30.9c-1.9,0-3.5,0-5.3,0c0-3.8,0-7.5,0-11.6c-6.7-0.4-13.3,0-20.1-0.2
		c0,3.9,0,7.7,0,11.7c-1.9,0-3.6,0-5.6,0c0-10.2,0-20.5,0-30.8C156.9,11.2,167.2,11.2,177.6,11.2z M172,17.8c-6.7,0-13.3,0-20,0
		c0.2,2.2-0.2,4.2,0.3,6.1c6.8,0,13.3,0,19.8,0C172,21.8,172,19.8,172,17.8z"/>
	<path class="st0" d="M136.5,11.2c0,10.3,0,20.6,0,30.9c-10.7,0-21.1,0-31.8,0c0-1.7,0-3.5,0-5.4c8.4,0,16.7,0,25.4,0
		c0-7.2,0-14.3,0-21.4c0-1.5-0.1-2.9,0.9-4.2C132.9,11.2,134.7,11.2,136.5,11.2z"/>
	<path class="st0" d="M228.8,85.9c0-1.8,0-3.4,0-5.2c8.4,0,16.7,0,25.2,0c0-2.2,0-4.2,0-6.3c-0.3-0.3-0.6-0.6-1.1-1.1
		c-7.9,0-15.9,0-24.1,0c0-6.1,0-12.1,0-18.2c10.2,0,20.3,0,30.5,0c0.3,0.3,0.6,0.6,1.1,1.1c0,1.1,0,2.5,0,4
		c-0.3,0.3-0.7,0.7-1.2,1.2c-7.8,0-15.7,0-23.6,0c-0.4,0.4-0.9,0.8-1.4,1.3c0,1.2,0,2.6,0,3.9c0.3,0.3,0.7,0.7,1.1,1.1
		c8.2,0,16.5,0,25,0c0,6.1,0,12.1,0,18.2C250,85.9,239.6,85.9,228.8,85.9z"/>
	<path class="st0" d="M301.6,55.2c0,10.3,0,20.4,0,30.7c-10.5,0-21,0-31.6,0c0.1,0.1-0.1,0-0.2-0.2c-0.1-0.1-0.1-0.3-0.1-0.4
		c0-10,0-20,0-30.2C280.3,55.2,290.8,55.2,301.6,55.2z M276.2,80.4c6.6,0,12.8,0,19.1,0c-0.1-6.4,0.2-12.7-0.2-18.8
		c-6.5,0-12.7,0-18.9,0C276.2,67.9,276.2,74.1,276.2,80.4z"/>
	<path class="st0" d="M177.5,55.2c0,10.3,0,20.4,0,30.7c-10.2,0-20.4,0-30.6,0c0,0-0.1-0.1-0.2-0.2c-0.1-0.1-0.1-0.3-0.1-0.4
		c0-10,0-20,0-30.2C156.8,55.2,167,55.2,177.5,55.2z M152.1,80.6c6.5,0,12.5,0,18.6,0c0.4-0.4,0.8-0.9,1.3-1.3c0-5.8,0-11.7,0-17.7
		c-6.7,0-13.3,0-19.9,0C152.1,67.9,152.1,74.1,152.1,80.6z"/>
	<path class="st0" d="M317.4,86c-2.4,0-4.3,0-6.4,0c0-10.2,0-20.3,0-30.6c0,0.1,0-0.1,0.2-0.2c0.1-0.1,0.3-0.2,0.4-0.2
		c10.3,0,20.6,0,31.1,0c0,10.4,0,20.6,0,30.9c-2,0-4,0-6.1,0c0-8.1,0-16.1,0-24.5c-6.4-0.2-12.7,0-19.2-0.1
		C317.4,69.6,317.4,77.6,317.4,86z"/>
	<path class="st0" d="M63.6,85.9c0-10.3,0-20.4,0-30.7c10.6,0,21.1,0,31.8,0c0,2,0,4,0,6.1c-8.3,0-16.6,0-24.8,0
		c-0.3,0.3-0.4,0.3-0.5,0.5c-0.1,0.1-0.2,0.3-0.2,0.4c0,6.1,0,12.1,0,18.3c8.4,0,16.7,0,25.3,0c0,1.9,0,3.6,0,5.5
		C84.9,85.9,74.4,85.9,63.6,85.9z"/>
	<path class="st0" d="M136.4,86c-2.1,0-4,0-6.1,0c0-4.1,0-8.2,0-12.7c-3.4,0-6.7-0.1-10,0c-3,0.1-6.2-0.7-9.2,0.8
		c0,4.1,0,7.9,0,11.8c-2.1,0-4,0-6.1,0c0.1,0.1-0.1,0-0.1-0.2c-0.1-0.1-0.1-0.3-0.1-0.4c0-10,0-20,0-30.2c2.1,0,4,0,6.3,0
		c0,4,0,8.2,0,12.5c6.5,0,12.7,0,19.3,0c0-3.2-0.1-6.5,0-9.8c0-0.9,0.5-1.9,0.8-2.8c2,0,3.7,0,5.4,0C136.4,65.3,136.4,75.5,136.4,86
		z"/>
	<path class="st0" d="M37.9,55.2c0,10.3,0,20.4,0,30.7c-1.6,0-3.3,0-5.1,0c0.1,0.1,0,0-0.1-0.1c-0.1-0.1-0.2-0.3-0.2-0.4
		c0-7.9,0-15.8,0-23.8c-6.6,0-13.1,0-19.8,0c0.1-0.1-0.1,0-0.1,0.1c-0.1,0.1-0.2,0.3-0.2,0.4c0,7.9,0,15.8,0,23.8
		c-1.7,0-3.4,0-5.2,0c0.1,0.1-0.1,0-0.1-0.2c-0.1-0.1-0.1-0.3-0.1-0.4c0-10,0-20,0-30.2C17.2,55.2,27.3,55.2,37.9,55.2z"/>
	<path class="st0" d="M218.5,86.1c-1.4,0-2.6,0-3.7,0c-8.9,0-17.9,0-27,0c0-10.4,0-20.6,0-30.9c1.7,0,3.4,0,5.1,0c0,8,0,16,0,24
		c0.6,0.5,1,0.8,1.8,1.4c7.6,0,15.7,0,23.8,0C218.5,82.3,218.5,84,218.5,86.1z"/>
	<path class="st0" d="M48.1,55.1c1.7,0,3.4,0,4.8,0c1.7,0.8,1.4,2.3,1.4,3.6c0,8.9,0,17.9,0,27.1c-2,0.5-4,0.1-6.2,0.3
		C48.1,75.7,48.1,65.5,48.1,55.1z"/>
</g>
</svg>
