<?xml version="1.0" encoding="utf-8"?>
<!-- Generator: Adobe Illustrator 24.2.3, SVG Export Plug-In . SVG Version: 6.00 Build 0)  -->
<svg version="1.1" id="Capa_1" xmlns="http://www.w3.org/2000/svg" xmlns:xlink="http://www.w3.org/1999/xlink" x="0px" y="0px"
	 viewBox="0 0 148 43" style="enable-background:new 0 0 148 43;" xml:space="preserve">
<style type="text/css">
	.st0{fill-rule:evenodd;clip-rule:evenodd;fill:#3D3D3C;}
</style>
<g>
	<g transform="translate(-646.000000, -100.000000)">
		<g transform="translate(646.000000, 100.000000)">
			<polygon id="Fill-1" class="st0" points="17.8,0 2.5,13.7 2.5,0 0,0 0,25.5 2.5,25.5 2.5,16.8 7.6,12.2 18.5,25.5 21.7,25.5 
				9.4,10.6 21.2,0 			"/>
			<path id="Fill-2" class="st0" d="M33,0L22.5,25.5h2.7l3.2-7.9h12l3.2,7.9h2.7L35.8,0H33z M34.3,2.4l5.1,13.1H29.1L34.3,2.4z"/>
			<path id="Fill-3" class="st0" d="M60.4,0c1.1,0,2.1,0.1,3.1,0.4c1,0.3,1.8,0.7,2.5,1.2c0.7,0.5,1.3,1.2,1.7,2.1
				c0.4,0.8,0.6,1.8,0.6,3c0,1.6-0.4,3-1.3,4.2c-0.9,1.2-2.1,2-3.8,2.3v0.1c0.9,0.1,1.6,0.3,2.1,0.7c0.6,0.3,1,0.7,1.4,1.2
				c0.4,0.5,0.6,1.1,0.8,1.7c0.2,0.7,0.3,1.4,0.3,2.1c0,0.4,0,1,0.1,1.6c0,0.6,0.1,1.2,0.1,1.9c0.1,0.6,0.2,1.2,0.4,1.8
				c0.2,0.6,0.4,1,0.6,1.3h-2.8c-0.1-0.2-0.3-0.5-0.4-0.9c-0.1-0.3-0.1-0.7-0.2-1.1c0-0.4-0.1-0.7-0.1-1.1c0-0.4,0-0.7-0.1-0.9
				c0-0.9-0.1-1.8-0.2-2.7c-0.1-0.9-0.3-1.7-0.7-2.4c-0.4-0.7-0.9-1.3-1.5-1.7c-0.7-0.4-1.6-0.6-2.8-0.6h-9.5v11.3h-2.5V0H60.4z
				 M60.2,12.1c0.8,0,1.5-0.1,2.2-0.3c0.7-0.2,1.3-0.6,1.8-1c0.5-0.4,0.9-0.9,1.2-1.6c0.3-0.6,0.5-1.3,0.5-2.1
				c0-1.6-0.5-2.8-1.4-3.7c-0.9-0.9-2.4-1.4-4.3-1.4h-9.4v10.1H60.2z"/>
			<polygon id="Fill-5" class="st0" points="72.7,25.5 75.2,25.5 75.2,0 72.7,0 			"/>
			<path id="Fill-7" class="st0" d="M91.3,0c1.1,0,2.2,0.1,3.2,0.3c1,0.2,1.9,0.5,2.7,1s1.4,1.1,1.9,1.9c0.5,0.8,0.7,1.8,0.7,3
				c0,0.7-0.1,1.3-0.3,1.9c-0.2,0.6-0.5,1.2-0.9,1.7c-0.4,0.5-0.9,0.9-1.4,1.3s-1.2,0.6-1.9,0.8v0.1c1.7,0.2,3,0.9,4.1,2
				c1,1.1,1.5,2.5,1.5,4.2c0,0.4,0,0.9-0.1,1.4c-0.1,0.5-0.2,1-0.4,1.6c-0.2,0.5-0.5,1.1-1,1.6c-0.4,0.5-1,1-1.7,1.4
				c-0.7,0.4-1.6,0.7-2.6,1c-1,0.3-2.2,0.4-3.7,0.4H80.2V0H91.3z M91.3,11.2c1,0,1.9-0.1,2.6-0.3c0.7-0.2,1.4-0.5,1.8-0.9
				c0.5-0.4,0.9-0.9,1.1-1.4c0.2-0.5,0.4-1.1,0.4-1.7c0-3.2-2-4.8-5.9-4.8h-8.6v9.1H91.3z M91.3,23.5c0.9,0,1.8-0.1,2.7-0.2
				c0.8-0.2,1.6-0.4,2.2-0.8c0.6-0.4,1.1-0.9,1.5-1.6s0.6-1.5,0.6-2.6c0-1.6-0.6-2.9-1.8-3.7c-1.2-0.8-2.9-1.2-5.1-1.2h-8.6v10.2
				H91.3z"/>
			<path id="Fill-8" class="st0" d="M114.6,0L125,25.5h-2.7l-3.2-7.9h-12l-3.2,7.9h-2.7L111.8,0H114.6z M118.2,15.5l-5.1-13.1
				l-5.3,13.1H118.2z"/>
			<polygon id="Fill-9" class="st0" points="129.9,0 145.3,21.6 145.3,21.6 145.3,0 147.9,0 147.9,25.5 145,25.5 129.7,3.9 
				129.6,3.9 129.6,25.5 127.1,25.5 127.1,0 			"/>
			<polygon id="Fill-10" class="st0" points="119,34.9 147.8,34.9 147.8,34 119,34 			"/>
			<polygon id="Fill-11" class="st0" points="119,40.8 147.8,40.8 147.8,40 119,40 			"/>
			<polygon id="Fill-12" class="st0" points="0,34.9 28.9,34.9 28.9,34 0,34 			"/>
			<polygon id="Fill-13" class="st0" points="0,40.8 28.9,40.8 28.9,40 0,40 			"/>
			<path id="Fill-14" class="st0" d="M39.9,39.4c0-0.2,0-0.4-0.1-0.6c-0.1-0.2-0.2-0.3-0.3-0.4c-0.1-0.1-0.3-0.2-0.4-0.2
				c-0.1,0-0.3-0.1-0.4-0.1h-0.8v2.5h0.9c0.3,0,0.6-0.1,0.9-0.3C39.8,40.2,39.9,39.8,39.9,39.4 M39.7,35.4c0-0.4-0.1-0.7-0.3-0.8
				c-0.2-0.2-0.5-0.2-0.8-0.2h-0.8v2.2h0.8c0.3,0,0.5-0.1,0.8-0.3C39.6,36.1,39.7,35.8,39.7,35.4 M42.1,39.7c0,0.5-0.1,1-0.3,1.4
				c-0.2,0.4-0.4,0.7-0.7,0.9c-0.3,0.2-0.6,0.4-1,0.5c-0.4,0.1-0.7,0.2-1.1,0.2h-3.4V32.4h3.1c0.3,0,0.7,0,1,0.1
				c0.4,0.1,0.7,0.2,1,0.4s0.5,0.5,0.7,0.8c0.2,0.3,0.3,0.8,0.3,1.3c0,0.6-0.1,1.1-0.4,1.4c-0.2,0.4-0.5,0.6-0.9,0.8v0
				c0.2,0,0.4,0.1,0.6,0.3c0.2,0.1,0.4,0.3,0.5,0.5c0.2,0.2,0.3,0.4,0.4,0.7C42,39,42.1,39.3,42.1,39.7"/>
			<path id="Fill-15" class="st0" d="M53.7,35.6c0-0.3,0-0.5-0.1-0.6c-0.1-0.2-0.2-0.3-0.3-0.4c-0.1-0.1-0.2-0.2-0.4-0.2
				c-0.1,0-0.3-0.1-0.4-0.1h-0.7v2.6h0.7c0.3,0,0.6-0.1,0.9-0.3S53.7,36,53.7,35.6L53.7,35.6z M53.9,42.6l-1.4-4.1h-0.7v4.1h-2.2
				V32.4h3.3c1,0,1.8,0.3,2.3,0.8c0.5,0.5,0.8,1.3,0.8,2.3c0,0.4,0,0.7-0.1,1c-0.1,0.3-0.2,0.6-0.3,0.8c-0.1,0.2-0.3,0.4-0.5,0.5
				c-0.2,0.1-0.3,0.2-0.5,0.3l1.7,4.5H53.9z"/>
			<path id="Fill-16" class="st0" d="M66.5,34.6L66.5,34.6l-0.9,4.3h1.7L66.5,34.6z M68,42.6l-0.4-1.9h-2.3l-0.4,1.9h-2.3L65,32.4
				h2.9l2.5,10.2H68z"/>
			<polygon id="Fill-17" class="st0" points="81.8,42.6 79.4,36.4 79.4,36.4 79.4,42.6 77.4,42.6 77.4,32.4 79.9,32.4 82.3,38.7 
				82.3,38.7 82.3,32.4 84.2,32.4 84.2,42.6 			"/>
			<path id="Fill-18" class="st0" d="M96.9,37.5c0-1-0.2-1.8-0.5-2.3c-0.4-0.5-0.8-0.8-1.4-0.8h-0.6v6.2H95c0.6,0,1-0.3,1.4-0.8
				C96.7,39.2,96.9,38.5,96.9,37.5 M99.2,37.5c0,0.8-0.1,1.5-0.3,2.1c-0.2,0.6-0.4,1.2-0.8,1.6c-0.3,0.4-0.8,0.8-1.3,1
				c-0.5,0.2-1.2,0.4-1.9,0.4h-2.9V32.4H95c0.7,0,1.4,0.1,1.9,0.4c0.5,0.2,1,0.6,1.3,1c0.3,0.4,0.6,1,0.8,1.6
				C99.1,36,99.2,36.7,99.2,37.5"/>
			<path id="Fill-19" class="st0" d="M110.9,34.8c-0.2-0.2-0.4-0.4-0.6-0.5c-0.2-0.1-0.5-0.2-0.7-0.2c-0.3,0-0.5,0.1-0.7,0.2
				c-0.2,0.2-0.3,0.4-0.3,0.8c0,0.3,0.1,0.6,0.3,0.7c0.2,0.2,0.5,0.4,0.9,0.6c0.2,0.1,0.5,0.3,0.7,0.4c0.3,0.2,0.5,0.4,0.7,0.6
				c0.2,0.2,0.4,0.5,0.5,0.8c0.1,0.3,0.2,0.7,0.2,1.1c0,0.5-0.1,1-0.3,1.4c-0.2,0.4-0.4,0.8-0.7,1c-0.3,0.3-0.6,0.5-1,0.6
				c-0.4,0.1-0.8,0.2-1.2,0.2c-0.6,0-1.2-0.1-1.7-0.3c-0.5-0.2-0.9-0.5-1.2-0.8l1.2-1.7c0.2,0.2,0.5,0.4,0.8,0.6
				c0.3,0.1,0.6,0.2,0.9,0.2c0.3,0,0.5-0.1,0.7-0.3c0.2-0.2,0.3-0.4,0.3-0.8c0-0.3-0.1-0.6-0.3-0.8c-0.2-0.2-0.6-0.4-1-0.6
				c-0.3-0.1-0.5-0.3-0.8-0.4c-0.2-0.2-0.5-0.4-0.6-0.6c-0.2-0.2-0.3-0.5-0.4-0.8c-0.1-0.3-0.2-0.7-0.2-1.1c0-0.6,0.1-1.1,0.3-1.5
				c0.2-0.4,0.4-0.7,0.7-1c0.3-0.3,0.6-0.4,1-0.6c0.4-0.1,0.7-0.2,1.1-0.2c0.6,0,1.1,0.1,1.5,0.3c0.4,0.2,0.8,0.4,1.1,0.7
				L110.9,34.8z"/>
		</g>
	</g>
</g>
</svg>
