<svg xmlns="http://www.w3.org/2000/svg" viewBox="0 0 341.82 97.15"><g id="Capa_2" data-name="Capa 2"><g id="Logotipo"><path d="M117.36,83.4H104l-6.1-12.11L83.33,42.23,68.74,71.29,62.64,83.4H49.3l6.1-12.11L83.33,15.6l27.93,55.69Z"/><path d="M29.65,65.6A16.1,16.1,0,1,1,45.49,49.5,16,16,0,0,1,29.65,65.6Zm0-21.41a5.31,5.31,0,1,0,5.22,5.31A5.28,5.28,0,0,0,29.65,44.19Z"/><path d="M18.64,49a6.74,6.74,0,0,1,2.46-5.36H12.39v-28H0V83.4H12.39V54.34h8.74A7.72,7.72,0,0,1,18.64,49Z"/><path d="M46.9,15.6v28h-9a7.6,7.6,0,0,1,3,5.8,6.63,6.63,0,0,1-2,5h8V83.4H59.29V15.6Z"/><path d="M270.77,75.5q-7.69-7.89-7.69-22.54V15.66H278V52.39q0,17.88,14.37,17.88,7,0,10.68-4.33t3.68-13.55V15.66h14.73V53q0,14.64-7.68,22.54t-21.5,7.9Q278.46,83.4,270.77,75.5Z"/><path d="M111.65,48.68V46.51h16a11.63,11.63,0,0,0,11.64-11.63,11.66,11.66,0,0,0-11.64-11.67h-16v-4.3h16a15.45,15.45,0,0,1,8,2.15,16.38,16.38,0,0,1,5.77,5.78,15.34,15.34,0,0,1,2.17,8,15.25,15.25,0,0,1-2.17,8,16.63,16.63,0,0,1-5.77,5.78,15.37,15.37,0,0,1-8,2.17h-7.87l23.84,24.6-3.12,3-26.72-27.6Z"/><path d="M140.46,79.29l-29.4-30.37v-3h16.56a11,11,0,0,0,11-11,10.75,10.75,0,0,0-3.23-7.83,10.63,10.63,0,0,0-7.81-3.25H111.06V18.31h16.56A16.06,16.06,0,0,1,136,20.54a17.18,17.18,0,0,1,6,6,16.58,16.58,0,0,1,0,16.68,17.32,17.32,0,0,1-6,6,15.89,15.89,0,0,1-8.33,2.25h-6.46l23.28,24ZM112.25,48.44l1.92,2,26.32,27.18,2.26-2.18L118.34,50.25h9.28a14.79,14.79,0,0,0,7.72-2.08,16.08,16.08,0,0,0,5.57-5.58A14.67,14.67,0,0,0,143,34.88a14.92,14.92,0,0,0-2.09-7.74,15.81,15.81,0,0,0-5.57-5.57,14.87,14.87,0,0,0-7.72-2.06H112.25v3.1h15.37a12.24,12.24,0,0,1,12.23,12.27,12.21,12.21,0,0,1-12.23,12.23H112.25Z"/><path d="M140.4,82.66,108.67,49.88V43.53h19a8.64,8.64,0,0,0,8.66-8.65,8.67,8.67,0,0,0-8.66-8.69h-19V15.93h19a18.38,18.38,0,0,1,9.55,2.57A19.32,19.32,0,0,1,144,25.31a18.94,18.94,0,0,1,0,19.12,19.59,19.59,0,0,1-6.8,6.8,18.32,18.32,0,0,1-9.56,2.6h-.83l21,21.69Z"/><path d="M140.39,83.5,108.08,50.12V42.94h19.54a8,8,0,0,0,8.06-8.06,8.07,8.07,0,0,0-8.06-8.1H108.08V15.33h19.54A19,19,0,0,1,137.47,18a20.11,20.11,0,0,1,7,7,19.55,19.55,0,0,1,0,19.74,20.25,20.25,0,0,1-7,7,19,19,0,0,1-9.3,2.67l20.47,21.11ZM109.27,49.64l31.15,32.18L147,75.5,125.38,53.23h2.24a17.64,17.64,0,0,0,9.25-2.51,19,19,0,0,0,6.6-6.59,18.34,18.34,0,0,0,0-18.52,18.82,18.82,0,0,0-6.61-6.6,17.79,17.79,0,0,0-9.24-2.48H109.27v9.06h18.35a9.27,9.27,0,0,1,9.25,9.29,9.24,9.24,0,0,1-9.25,9.25H109.27Z"/><path d="M153,48.68V46.51h16a11.61,11.61,0,0,0,11.63-11.63A11.64,11.64,0,0,0,169,23.21H153v-4.3h16a15.42,15.42,0,0,1,8,2.15,16.33,16.33,0,0,1,5.78,5.78,15.34,15.34,0,0,1,2.17,8,15.25,15.25,0,0,1-2.17,8A16.58,16.58,0,0,1,177,48.68a15.34,15.34,0,0,1-8,2.17h-7.87L185,75.45l-3.12,3-26.73-27.6Z"/><path d="M181.83,79.29,152.42,48.92v-3H169a11,11,0,0,0,11-11,10.75,10.75,0,0,0-3.23-7.83A10.63,10.63,0,0,0,169,23.8H152.42V18.31H169a16.09,16.09,0,0,1,8.33,2.23,17.15,17.15,0,0,1,6,6,16.52,16.52,0,0,1,0,16.68,17.29,17.29,0,0,1-6,6A15.89,15.89,0,0,1,169,51.44h-6.46l23.27,24ZM153.62,48.44l1.92,2,26.32,27.18,2.25-2.18-24.4-25.18H169a14.82,14.82,0,0,0,7.72-2.08,16.08,16.08,0,0,0,5.57-5.58,15.39,15.39,0,0,0,0-15.45,15.89,15.89,0,0,0-5.57-5.57A14.89,14.89,0,0,0,169,19.51H153.62v3.1H169a12.26,12.26,0,0,1,12.23,12.27A12.22,12.22,0,0,1,169,47.11H153.62Z"/><path d="M181.77,82.66,150,49.88V43.53h19a8.64,8.64,0,0,0,8.65-8.65,8.36,8.36,0,0,0-2.53-6.15A8.24,8.24,0,0,0,169,26.19H150V15.93h19a18.38,18.38,0,0,1,9.55,2.57,19.48,19.48,0,0,1,6.81,6.81,18.94,18.94,0,0,1,0,19.12,19.67,19.67,0,0,1-6.8,6.8,18.34,18.34,0,0,1-9.56,2.6h-.83l21,21.69Z"/><path d="M181.75,83.5,149.44,50.12V42.94H169a8.06,8.06,0,0,0,8.06-8.06,8.07,8.07,0,0,0-8.06-8.1H149.44V15.33H169A19,19,0,0,1,178.84,18a20.08,20.08,0,0,1,7,7,19.51,19.51,0,0,1,0,19.74,20.19,20.19,0,0,1-7,7,18.93,18.93,0,0,1-9.29,2.67L190,75.53ZM150.64,49.64l31.14,32.18,6.55-6.32L166.75,53.23H169a17.67,17.67,0,0,0,9.25-2.51,19.18,19.18,0,0,0,6.6-6.59,18.4,18.4,0,0,0,0-18.52,18.9,18.9,0,0,0-6.61-6.6A17.79,17.79,0,0,0,169,16.53H150.64v9.06H169a8.81,8.81,0,0,1,6.54,2.72,8.91,8.91,0,0,1,2.71,6.57A9.24,9.24,0,0,1,169,44.13H150.64Z"/><path d="M223.09,23.83h-2.18V19.51h2.18A30,30,0,0,1,250.86,38a30,30,0,0,1,0,22.89,30,30,0,0,1-27.77,18.47h-2.18V75h2.18A24.84,24.84,0,0,0,236,71.57a26.3,26.3,0,0,0,9.3-9.27,24.56,24.56,0,0,0,3.47-12.88,24.55,24.55,0,0,0-3.47-12.87,26.3,26.3,0,0,0-9.3-9.27A24.84,24.84,0,0,0,223.09,23.83Z"/><path d="M223.09,80.53h-3.37V73.84h3.37a23.75,23.75,0,0,0,12.28-3.29,25.23,25.23,0,0,0,8.89-8.86,24.44,24.44,0,0,0,0-24.53,25.21,25.21,0,0,0-8.89-8.85A23.66,23.66,0,0,0,223.09,25h-3.37V18.32h3.37A31.16,31.16,0,0,1,252,37.53a31.16,31.16,0,0,1,0,23.79,31.19,31.19,0,0,1-28.87,19.21Zm-1-2.38h1a28.79,28.79,0,0,0,26.67-17.74,28.89,28.89,0,0,0,0-22,29,29,0,0,0-6.26-9.35,29.36,29.36,0,0,0-9.37-6.23,29,29,0,0,0-11-2.16h-1v1.94h1a26.13,26.13,0,0,1,13.5,3.62,27.73,27.73,0,0,1,9.72,9.68,26.8,26.8,0,0,1,0,27,27.73,27.73,0,0,1-9.72,9.68,26.13,26.13,0,0,1-13.5,3.62h-1Z"/><path d="M223.09,82.33h-5.18V72h5.18a21.7,21.7,0,0,0,11.36-3,23.48,23.48,0,0,0,8.25-8.23,21.41,21.41,0,0,0,3.05-11.35,21.4,21.4,0,0,0-3.05-11.34,23.48,23.48,0,0,0-8.25-8.23,21.7,21.7,0,0,0-11.36-3h-5.18V16.52h5.18a33,33,0,0,1,30.54,20.32,32.93,32.93,0,0,1,0,25.17,33,33,0,0,1-30.54,20.32Z"/><path d="M223.09,83.52h-6.37V70.85h6.37A20.51,20.51,0,0,0,233.84,68a22.33,22.33,0,0,0,7.84-7.82,20.31,20.31,0,0,0,2.88-10.74,20.3,20.3,0,0,0-2.88-10.73,22.33,22.33,0,0,0-7.84-7.82A20.51,20.51,0,0,0,223.09,28h-6.37V15.33h6.37a34.22,34.22,0,0,1,31.65,21.05,34.27,34.27,0,0,1,0,26.09,34.28,34.28,0,0,1-7.42,11.06,34.11,34.11,0,0,1-24.23,10Zm-4-2.38h4a31.67,31.67,0,0,0,12.18-2.39,32.19,32.19,0,0,0,10.36-6.9,31.79,31.79,0,0,0,6.9-10.29,31.88,31.88,0,0,0,0-24.27,31.79,31.79,0,0,0-29.44-19.58h-4v7.92h4a22.79,22.79,0,0,1,12,3.2,24.74,24.74,0,0,1,8.67,8.64,22.69,22.69,0,0,1,3.22,12,22.7,22.7,0,0,1-3.22,12A24.74,24.74,0,0,1,235.06,70a22.79,22.79,0,0,1-12,3.2h-4Z"/><path d="M194.27,15.6h13.41V83.5H194.27Z"/><g id="Borobil_full"><path d="M202,12.39h-4l-.06,0h-.55s0,0,0,0l0,0h-.05l0,0h0l0,0h-.06s0,0,0,0,0,0-.06,0h-.1l0,0s0,0,0,0l0,0,0,0h0l-.05,0a.05.05,0,0,0,0,0h0l0,0-.05,0s0,0,0,0l0,0,0,0,0,0h-.07l-.06-.06h0s0,0,0,0l0,0,0,0,0,0h0l-.05-.05,0,0,0,0,0,0,0,0s0,0,0,0h0l0,0h0l0,0a0,0,0,0,1,0,0s0,0,0,0l0-.05-.05,0s0,0,0-.06h0l-.05-.05h0l0,0,0,0a0,0,0,0,0,0,0,0,0,0,0,0,0,0l0-.06,0,0,0,0v0l0,0s0,0,0,0v0l0,0,0,0,0,0a.06.06,0,0,1,0,0l0,0,0,0s0,0,0,0,0,0,0-.05,0,0,0,0v0h0v0l0,0,0-.06,0-.06,0,0s0,0,0-.06v0a0,0,0,0,1,0,0l0-.05s0,0,0-.06,0,0,0,0v0s0,0,0,0,0,0,0,0v0s0,0,0,0,0,0,0,0v0a0,0,0,0,1,0,0v0l0,0s0,0,0,0l0,0s0,0,0-.06v0s0,0,0,0l0,0a.14.14,0,0,1,0-.06,0,0,0,0,1,0,0s0,0,0,0,0,0,0-.06,0,0,0,0a0,0,0,0,1,0,0s0,0,0,0,0,0,0,0a0,0,0,0,1,0,0v0h0v0h0v0h0v0h0v0s0,0,0-.06v0h0v0h0v0h0s0,0,0-.06h0s0,0,0,0h0v0h0v0h0v0h0v0h0V8h0s0,0,0-.06h0v0h0v0h0v0h0v0h0V7.68h0v0h0V7.56h0v0h0v0h0V7.37h0v0h0V7.24h0v0h0v0h0V6.45h0V6.37h0V6.15h0v0h0V5.86h0V5.78h0V5.69h0V5.61h0V5.54h0V5.45h0s0,0,0-.07h0V5.3h0V5.14h0V5.05h0V4.84h0V4.7h0v-.1h0V4.45h0v0l0,0v0h0s0,0,0,0h0v0h0v0h0v0h0v0h0v0h0V4h0V4h0V3.92h0V3.86s0,0,0-.06h0v0s0,0,0,0v0s0,0,0,0v0a0,0,0,0,1,0,0s0,0,0,0h0v0h0v0h0s0,0,0,0,0,0,0,0a0,0,0,0,1,0,0,0,0,0,0,1,0,0s0,0,0,0,0,0,0,0,0,0,0,0,0,0,0,0l0,0a.06.06,0,0,0,0,0,.16.16,0,0,0,0-.07l0,0s0,0,0,0l0,0v0s0,0,0,0l0,0h0l0,0,0,0s0,0,0,0,0,0,0,0l0,0,0,0s0,0,0,0,0,0,0,0l0,0s0,0,0,0l0,0v0s0,0,0,0,0,0,0,0l0,0,0,0a.18.18,0,0,0,.05-.07l0,0,0,0s0,0,0-.05,0,0,.05,0,0,0,0,0a0,0,0,0,1,0,0l0,0,.05-.05,0,0,.12-.12s0,0,0,0h0s0,0,0,0,0,0,0,0l.11-.11h0v0l.06-.06s0,0,0,0,0,0,0,0h0l0,0h0l0,0,0,0,0,0,0,0,0,0s0,0,.05-.05l.06,0,.06-.06s0,0,0,0a.1.1,0,0,0,0-.05l0,0h0l0,0h0l0,0h0l0,0s0,0,0,0l0,0,0,0,0,0,0,0h0s0,0,0,0l0,0s0,0,0,0h0l0,0a0,0,0,0,0,0,0h0s0,0,0,0,0,0,0,0a0,0,0,0,0,0,0h0v0h0s0,0,0,0l.05,0h0l0,0h0l0,0h0s0,0,0,0l0,0h.06l0,0h0l0,0h0s0,0,0,0h0l0,0h0l0,0a0,0,0,0,1,0,0l0,0h0s0,0,0,0h.1l0,0h0s0,0,0,0,0,0,0,0h0s0,0,.05,0h.06l0,0s0,0,.06,0h4.53s0,0,0,0h.18s0,0,.06,0h.18s0,0,0,0,0,0,.05,0h.08l0,0s0,0,0,0,0,0,0,0,0,0,0,0h.23s0,0,0,0,0,0,0,0l0,0a0,0,0,0,1,0,0l0,0h0a0,0,0,0,0,0,0h.12s0,0,0,0h.09l0,0h.08s0,0,0,0l0,0h0s0,0,0,0l0,0h0l0,0h0s0,0,0,0h0l0,0h0l0,0h0s0,0,.06,0h0L205,1h.06a.1.1,0,0,1,.05,0h0l0,0,0,0,0,0,0,0,0,0,0,0h0l0,0s0,0,0,0l0,0,0,0,.05,0,0,0h0l0,0s0,0,0,0h0l0,0s0,0,0,0h0l0,0,0,0s0,0,0,0l0,0h0l0,0,0,0h0s0,0,.06.05l.05.05h.06l0,0s0,0,0,0h0l0,.05h0l.06.06h0l0,.06h0l0,0s0,0,0,0l0,0h0l0,0h0s0,0,0,0l0,0s0,0,0,0,0,0,0,0v0s0,0,0,0h0s0,0,0,0l0,0s0,0,0,0l0,0s0,0,0,0h0l0,.07a0,0,0,0,1,0,0l0,0s0,0,0,0l0,.09s0,0,0,0,0,0,0,0l0,0,0,0v0l0,0s0,0,0,0l0,0a.16.16,0,0,0,0,.07v0l0,0v0h0a0,0,0,0,1,0,0s0,0,0,0,0,0,0,0v0s0,0,0,0l0,0s0,0,0,0l0,0h0s0,0,0,0,0,0,0,0a0,0,0,0,0,0,0,0,0,0,0,0,0,0s0,0,0,0a0,0,0,0,0,0,0v0h0v0h0v0h0s0,0,0,0,0,0,0,0,0,0,0,0V4h0V4h0V4h0s0,0,0,0,0,0,0,.05v0h0v0h0v0l0,0s0,0,0,.07h0v0h0v0h0v.05h0v0h0v.09h0v.1h0v0h0v.1h0V5h0V5h0v.14h0v.07h0v.07h0v.07h0v.08h0v.24h0v.37h0v0s0,0,0,0,0,0,0,0v0h0v.29h0v.1h0v.1h0v.14h0V7h0v.14h0v.1h0v.08h0v.11h0v.08h0V7.7h0v.07h0v.07h0v0h0v0h0V8h0V8h0v0h0v0h0v0h0v0h0v0h0v0h0v0h0v0h0v0h0v0h0v.05h0v0s0,0,0,0v0h0s0,0,0,0h0v0h0v0l0,0h0s0,0,0,0l0,0h0a0,0,0,0,1,0,0V9l0,0V9h0s0,0,0,0v0l0,.06v0l0,0h0s0,.06,0,.08,0,0,0,.05l0,0v0h0v0s0,0,0,0l0,0s0,0,0,0a.25.25,0,0,1,0,.07v0s0,0,0,0,0,0,0,0l0,0s0,0,0,0l0,0s0,0,0,0h0l0,0s0,0,0,0,0,0,0,0,0,0,0,0,0,0,0,0a0,0,0,0,0,0,0l0,0s0,0,0,0,0,0,0,0,0,0,0,0l0,0,0,0s0,0,0,0l0,0,0,0v0l0,0s0,0,0,0,0,0,0,0,0,0,0,.07l0,0,0,0-.21.21,0,0h0v0h0l0,0,0,0s0,0,0,0l-.07.06s0,0,0,0l0,0,0,0s0,0-.05,0l0,0s0,0,0,0,0,0,0,0l0,0,0,0,0,0,0,0,0,0h0s0,0,0,0l0,0s0,0,0,0h0l0,0,0,0s0,0-.05,0h0s0,0,0,0,0,0,0,0,0,0,0,0h0l0,0h0l0,0s0,0,0,0l0,0,0,0,0,0,0,0,0,0,0,0,0,0,0,0h0s0,0,0,0,0,0,0,0,0,0,0,0l-.05,0h0l0,0h0l-.08,0h-.07s0,0,0,0,0,0,0,0l-.06,0h0l0,0h0l0,0h0s0,0,0,0h0l0,0s0,0,0,0h0l0,0s0,0,0,0l0,0h0s0,0,0,0h0l-.07,0h-.09s0,0-.06,0H202Zm-7.45-4.06h0ZM195,9.65h0Zm.18.34h0Zm0,.08h0Zm.07.12h0Zm.3.44h0Zm.21.22h0Z"/></g><path d="M328.41,15.66h13.41V83.4H328.41Z"/><g id="Borobil_full-2" data-name="Borobil_full"><path d="M336.1,12.37h-4s0,0-.06,0h-.35s0,0,0,0h-.14s0,0,0,0h0l0,0h-.13l0,0s0,0,0,0h0l-.06,0,0,0H331l0,0,0,0h0l0,0h-.08l-.05,0,0,0h0l0,0-.05,0,0,0,0,0,0,0h-.06l0,0h0l-.06-.05h0s0,0,0,0l0,0,0,0,0,0h0l-.05,0a.12.12,0,0,0-.05,0l0,0,0,0,0,0,0,0h0s0,0,0,0h0l0,0,0,0,0,0-.05,0-.05-.05s0,0,0,0h0l-.05-.05h0l0,0s0,0,0,0l0,0s0,0,0,0l0-.06,0,0,0,0s0,0,0,0l0,0,0,0v0l0,0,0,0a.05.05,0,0,0,0,0s0,0,0,0l0,0,0,0s0,0,0,0,0,0,0-.05,0,0,0,0v0h0v0l0,0,0-.06,0-.06,0-.06s0,0,0-.06h0a0,0,0,0,1,0,0l0,0s0,0,0-.06,0,0,0,0a0,0,0,0,1,0,0s0,0,0,0,0,0,0,0v0s0,0,0,0,0,0,0,0,0,0,0,0a0,0,0,0,1,0,0v0l0,0s0,0,0,0,0,0,0,0,0,0,0-.05v0s0,0,0,0,0,0,0,0a.08.08,0,0,1,0-.05,0,0,0,0,1,0,0s0,0,0,0,0,0,0-.06,0,0,0,0a0,0,0,0,1,0,0s0,0,0,0,0,0,0,0a0,0,0,0,1,0,0v0h0v0h0v0h0v0h0v0s0,0,0-.06v0h0v0h0v0h0s0,0,0-.06h0s0,0,0,0h0v0h0v0h0v0h0v0h0V8h0s0,0,0-.06h0V7.89h0v0h0v0h0v0h0V7.67h0v0h0V7.55h0v0h0V7.43h0V7.36h0v0h0V7.23h0v0h0v0h0V6.44h0V6.36h0V6.08h0V5.86h0V5.78h0V5.69h0V5.61h0V5.54h0V5.45h0s0,0,0-.06h0V5.29h0V5.14h0V5.05h0V5h0V4.83h0V4.69h0v-.1h0V4.51h0V4.44h0v0h0v0h0s0,0,0,0h0v0h0v0h0v0h0v0h0V4h0V4h0V4h0v0h0v0h0s0,0,0-.06h0v0s0,0,0,0v0s0,0,0,0v0s0,0,0,0,0,0,0,0h0v0h0v0h0s0,0,0,0h0a0,0,0,0,1,0,0,0,0,0,0,1,0,0,0,0,0,0,1,0,0s0,0,0,0,0,0,0,0,0,0,0,0l0,0a0,0,0,0,0,0,0l0-.07,0,0s0,0,0,0l0,0h0s0,0,0-.05l0,0h0l0,0s0,0,0,0a0,0,0,0,1,0,0s0,0,0,0l0,0,0,0s0,0,0,0,0,0,0,0,0,0,0,0,0,0,0,0l0,0s0,0,0,0,0,0,0,0a0,0,0,0,1,0,0l0,0,0,0a.18.18,0,0,0,.05-.07l0,0,0-.05s0,0,0,0a.12.12,0,0,1,.05,0s0,0,0,0a0,0,0,0,1,0,0l0,0,.05-.05,0,0,.12-.12a0,0,0,0,0,0,0h0s0,0,0,0l0,0,.11-.12h0l.06-.07a0,0,0,0,0,0,0l0,0h0l0,0h0l0,0,0,0,0,0,0,0,0,0,.05-.05.06,0,.06-.06.05,0s0,0,0,0l0,0h0l0,0h0l0,0h0l0,0s0,0,0,0l0,0,0,0,0,0,0,0h0s0,0,0,0l0,0s0,0,0,0h0l0,0a0,0,0,0,0,0,0h0s0,0,0,0,0,0,0,0a0,0,0,0,0,0,0h0v0h0s0,0,0,0l.05,0h0l0,0h0l0,0h0s0,0,0,0l0,0h.06l0,0h0l0,0h0s0,0,0,0h0l0,0h0l0,0a0,0,0,0,1,0,0l0,0h0s0,0,0,0h.1l0,0h0s0,0,0,0,0,0,0,0h0s0,0,.05,0h.06l0,0s0,0,.06,0h4.53s0,0,.05,0h.18s0,0,.06,0h.18s0,0,0,0,0,0,.05,0h.08l0,0s0,0,0,0,0,0,0,0,0,0,0,0h.07s0,0,0,0h.13s0,0,0,0h0l0,0a0,0,0,0,1,0,0l0,0h0s0,0,0,0,0,0,0,0h.1s0,0,0,0h.09l0,0h.08s0,0,0,0l0,0h0s0,0,0,0l0,0h0l0,0h0s0,0,0,0,0,0,0,0l0,0h0l0,0s0,0,0,0,0,0,.06,0h0l.1.05h.06a.1.1,0,0,1,.05,0s0,0,0,0l0,0,0,0,0,0,0,0,0,0s0,0,0,0h0l0,0s0,0,0,0l0,0,0,0,.05,0h0s0,0,0,0l0,0s0,0,0,0,0,0,0,0h0s0,0,0,0l0,0,0,0,0,0s0,0,0,0l0,0h0s0,0,.05,0l0,0h0s0,0,.06.05l.05.05h.06l0,0s0,0,0,0h0l0,.05h0l.06.06h0l0,.06h0l0,0s0,0,0,0l0,0h0l.05,0h0s0,0,0,0l0,0s0,0,0,0,0,0,0,0,0,0,0,0l0,0h0l0,0,0,0s0,0,0,0l0,0,0,0h0l0,.08v0l0,0s0,0,0,0l0,.1s0,0,0,0l0,0,0,0s0,0,0,0a0,0,0,0,0,0,0l0,0s0,0,0,0,0,0,0,0a.25.25,0,0,0,0,.07v0h0v0h0s0,0,0,0v0s0,0,0,0v0s0,0,0,0l0,0s0,0,0,0,0,0,0,0h0s0,0,0,0v0s0,0,0,0,0,0,0,0,0,0,0,.05h0v0h0v0h0v0h0s0,0,0,0,0,0,0,0,0,0,0,0V4h0V4h0V4h0s0,0,0,0,0,0,0,.06h0v0h0v0h0v0l0,0a.07.07,0,0,0,0,.06h0v0h0v0h0v0h0v0h0v0h0v0h0v.05h0v0h0v0h0v0h0v0h0v.05h0V5h0v.06h0v.06h0v.07h0v.07h0v.08h0v.08h0v.12h0v.11h0v.37h0v0h0s0,0,0,0v0h0v.29h0v.1h0v.1h0V6.9h0V7h0v.25h0v.08h0v.11h0v.08h0v.11h0v.07h0v.07h0v0h0v0h0V8h0V8h0v0h0v0h0v0h0v.05h0v0h0v0h0v0h0v0h0v0h0v0h0v.05h0v0s0,0,0,0v0h0s0,0,0,0h0v0h0v0l0,0h0s0,0,0,0l0,0h0s0,0,0,0v.06l0,0V9s0,0,0,0l0,.06v0l0,0h0s0,.06,0,.08,0,0,0,.05l0,0v0h0a0,0,0,0,0,0,0l0,0s0,0,0,0a.25.25,0,0,1,0,.07v0s0,0,0,0,0,0,0,0l0,0,0,0,0,0,0,0h0l0,0s0,0,0,0,0,0,0,0,0,0,0,0,0,0,0,0l0,0s0,0,0,0a0,0,0,0,1,0,0l0,0s0,0,0,0l0,0,0,0,0,0,0,0,0,0s0,0,0,0l0,0,0,0,0,0a.18.18,0,0,0,0,.07l0,0s0,0,0,.05l-.21.21,0,0v0h0v0h0l0,0,0,0,0,0s0,.05-.07.06l0,0s0,0,0,0l0,0s0,0-.05,0l0,0s0,0,0,0l0,0,0,0,0,0,0,0h0l0,0,0,0,0,0,0,0s0,0,0,0h0l0,0s0,0-.05,0h0l0,0s0,0,0,0l0,0h0l0,0h0a0,0,0,0,1,0,0l0,0,0,0h0l0,0s0,0,0,0,0,0,0,0l0,0s0,0,0,0h0l0,0s0,0,0,0,0,0,0,0a.1.1,0,0,1-.05,0h0v0h-.05l-.08.05h0l0,0,0,0,0,0-.06,0h-.05l0,0,0,0h0l0,0h0s0,0,0,0l0,0h-.06a.05.05,0,0,1,0,0s0,0,0,0h-.07l-.07,0h-.09s0,0-.06,0H336.1Zm-7.45-4h0Zm.49,1.31Zm.18.35h0Zm.05.08h0Zm.07.12h0Zm.3.43Zm.21.23h0Z"/></g><rect y="88.8" width="341.82" height="8.35"/></g></g></svg>