<?xml version="1.0" encoding="utf-8"?>
<!-- Generator: Adobe Illustrator 24.2.3, SVG Export Plug-In . SVG Version: 6.00 Build 0)  -->
<svg version="1.1" id="Capa_1" xmlns="http://www.w3.org/2000/svg" xmlns:xlink="http://www.w3.org/1999/xlink" x="0px" y="0px"
	 viewBox="0 0 229 222" style="enable-background:new 0 0 229 222;" xml:space="preserve">
<style type="text/css">
	.st0{fill:#3C3C3C;}
</style>
<g id="GZvp7P.tif">
	<g>
		<path class="st0" d="M218.3,112c0,23.8-0.5,47.7,0.2,71.5c0.6,21-13.7,28.8-29.3,29.7c-0.5,0-1,0-1.5,0
			c-48.8,0-97.6,0.1-146.4-0.1c-4.6,0-9.4-0.5-13.7-2c-10.6-3.7-15.2-12.3-16.7-22.8c-0.3-1.8-0.1-3.7-0.1-5.5
			c0-47.8,0-95.6,0-143.4c0-3.1,0-6.4,0.7-9.4c2-9.1,7.9-14.9,16.5-17.7c4.2-1.4,8.8-2.2,13.2-2.3c49-0.2,97.9-0.1,146.9,0
			c4,0,8,0.4,11.8,1.5c10.2,2.7,17.5,12.1,18.3,23.2c0.2,3.2,0.2,6.3,0.2,9.5C218.3,66.7,218.3,89.3,218.3,112z M114.6,169.9
			c-30.3,0-60.6,0-90.9,0c-1.3,0-2.7,0-4,0c-2.8,0-3.9,1.4-3.8,4c0.1,3.5-0.1,7,0,10.5c0.1,3.3,0.9,4,4.2,4.3c1,0.1,2,0,3,0
			c60.8,0,121.6,0,182.4,0c1.3,0,2.7,0,4-0.2c2.1-0.2,3.4-1.4,3.4-3.6c0.1-3.8,0.1-7.7,0-11.5c-0.1-2.3-1.3-3.7-3.8-3.6
			c-1.2,0-2.3,0-3.5,0C175.2,169.9,144.9,169.9,114.6,169.9z M23.1,64.1c0,6.5,0.1,13,0,19.5c0,2.5,0.8,3.7,3.5,3.5
			c2.2-0.2,4.3,0,6.5,0c3.9-0.1,3.9-0.1,4-3.9c0.1-9.5,0-19,0-28.5c0-1.3-0.1-2.7,0.2-4c0.1-0.6,1.1-1.1,1.7-1.4
			c0.2-0.1,1,0.8,1.1,1.3c0.3,1.6,0.5,3.3,0.5,5c0.1,9.3,0.1,18.7,0.1,28c0,2.5,0.7,3.7,3.4,3.5c1.7-0.2,3.3,0,5,0c5,0,5,0,5-4.8
			c0-9.2,0-18.3,0-27.5c0-2.1-0.3-5.3,2.2-5.2c2.5,0,1.5,3.2,1.6,5c0.1,9.7,0.1,19.3,0,29c0,2.5,0.7,3.7,3.4,3.6
			c2.3-0.2,4.7-0.2,7,0c2.9,0.2,3.7-1.1,3.6-3.8c-0.1-10.2,0-20.3-0.1-30.5c0-2-0.3-4-0.8-5.9c-0.9-3.6-3.3-5.6-7-6.1
			c-3.3-0.5-6.3,0.4-8.7,2.8c-0.8,0.8-1.5,1.8-2.8,0.4c-4.3-4.6-9-4.2-13.9-1c-1.4,0.9-1.4,0.3-1.9-0.7c-0.3-0.6-1.6-0.9-2.5-0.9
			c-2.5-0.1-5,0.1-7.5-0.1c-2.8-0.1-3.8,1.1-3.7,3.9C23.2,51.4,23.1,57.8,23.1,64.1z M24,126.6c0,3,0,6,0,9c0,5.7-0.1,11.3,0.1,17
			c0,1.1,0.9,3.1,1.4,3.2c3.6,0.2,7.8,1.1,10.7-0.3c2.5-1.3,3.4-0.8,5.3,0.3c6.4,3.7,14,0,14.3-7.3c0.4-10.8,0.3-21.6,0.1-32.5
			c-0.1-4.5-3.1-7.2-7.6-7.7c-3.1-0.3-6,0.2-8.4,2.3c-1.3,1.1-2.1,0.7-2.1-1c0-0.7,0-1.3,0-2c-0.2-2.9-0.5-5.8-0.7-8.8
			c-3.1-0.1-6.3-0.2-9.4-0.5c-2.9-0.2-3.7,1.1-3.7,3.8C24.1,110.2,24,118.4,24,126.6z M172.2,127.4c0,6.8-0.1,13.7,0,20.5
			c0.1,9.2-1.4,8.1,8.3,8.2c5.6,0,5.6,0,5.6-5.5c0-9.5-0.1-19,0.2-28.5c0-1.8-0.6-5.2,2.4-5c2.8,0.1,2.2,3.3,2.2,5.3
			c0.1,8-0.1,16,0.1,24c0.2,11.1-2.2,9.7,10.2,9.8c2.5,0,3.6-0.9,3.5-3.5c-0.1-11.7,0.1-23.3-0.1-35c-0.2-7.2-6.6-11.2-13.4-8.8
			c-0.6,0.2-1.2,0.5-1.8,0.8c-3.1,1.3-3.1,1.3-3.3-2.2c-0.1-2-0.1-4,0-6c0-2.1-0.9-3.1-3-3.1c-2.3,0-4.7-0.1-7,0
			c-3.7,0.1-3.9,0.3-3.9,4.1C172.2,110.7,172.2,119.1,172.2,127.4z M60.8,132.5c0.2,0,0.3,0,0.5,0c0,3.3-0.1,6.7,0,10
			c0,1.3,0.5,2.6,0.7,3.9c1.3,5.7,5.5,9.6,11.3,10.3c1.5,0.2,3,0.2,4.5,0.3c11.3,0.6,16.7-8,15.9-17.1c-0.2-2-0.8-3.1-2.9-3.1
			c-2.5,0-5,0.1-7.5,0c-2.5-0.1-3.2,1.2-3.1,3.4c0,2,0.2,4-0.2,6c-0.2,1-1.6,1.7-2.4,2.6c-0.6-0.9-1.7-1.7-1.8-2.6
			c-0.2-3-0.1-6-0.2-9c-0.1-2.5,0.9-3.6,3.5-3.6c3.7,0.1,7.3-0.1,11,0.1c2.9,0.1,3.9-1.1,3.6-3.8c-0.4-3.8-0.4-7.6-1.1-11.4
			c-0.8-4.4-3.6-7.4-7.8-9c-4.5-1.7-9.1-1.9-13.7-0.5c-4.9,1.5-8.2,4.5-9,9.6C61.5,123.2,61.3,127.9,60.8,132.5z M130.1,136.2
			C130.1,136.2,130.1,136.2,130.1,136.2c-0.1-3.8-0.1-7.7-0.1-11.5c0-1.5-0.1-3-0.2-4.5c-0.3-6.1-2.9-9.5-8.7-11.3
			c-4.4-1.3-8.9-1.3-13.3,0.1c-4.9,1.6-8.1,4.7-9,10.2c-1.2,7.6-1.4,7.6,6.2,7.5c7.2,0,6.7,0.7,6.7-6.2c0-0.7-0.2-1.4,0.1-2
			c0.4-0.8,1.3-2.1,1.7-2c0.9,0.3,2.1,1.1,2.4,1.9c1.6,5,0,8.2-4.7,10.4c-1.1,0.5-2.2,0.9-3.2,1.3c-8.9,3.7-11,7.4-9.6,17
			c0.2,1.2,0.4,2.3,0.7,3.4c1,3.6,3.3,5.7,7,6.1c3,0.3,6,0.2,8.4-2.1c0.4-0.4,1.6-0.8,1.7-0.7c2.7,3.9,6.7,1.5,10.1,2.1
			c2.8,0.5,3.8-1,3.8-3.8C130,146.9,130.1,141.5,130.1,136.2z M173.8,63.6c0.1,0,0.2,0,0.3,0c0,3-0.2,6,0,9
			c0.4,4.9,1.2,9.7,5.9,12.5c4.1,2.5,8.6,3.4,13.4,2.5c7.3-1.3,10.9-5.2,11.9-12.6c1-7.3,1-7.3-6.1-7.3c-6.9,0-6.9,0-7.2,6.7
			c0,0.7,0.1,1.4-0.1,2c-0.4,0.9-1.2,1.7-1.8,2.5c-0.7-0.8-1.8-1.5-1.9-2.4c-0.3-2.6,0-5.3-0.2-8c-0.2-2.5,0.5-3.6,3.3-3.5
			c3.8,0.2,7.7,0,11.5,0.1c2.1,0,3.1-0.8,3-2.9c-0.2-3.1-0.3-6.3-0.7-9.4c-0.9-6.6-5.2-11-11.6-11.9c-2.3-0.3-4.7-0.3-7-0.1
			c-6.3,0.5-10.6,4.2-11.7,10.4C174.2,55.3,174.2,59.5,173.8,63.6z M84.8,93.2C84.8,93.2,84.8,93.1,84.8,93.2c0.8,0,1.7,0,2.5,0
			C96,93,99,90.5,100.1,82c1.5-11.4,2.4-22.8,4.3-34.1c1.3-8.1-0.1-6.6-6-6.7c-0.3,0-0.7,0-1,0c-5.2,0.1-5.2,0.2-5.4,5.4
			c-0.3,6.5-0.7,13-1.1,19.4c0,0.6-0.2,1.2-0.3,1.8c-0.2-0.6-0.4-1.2-0.5-1.9c-0.9-5.6-1.5-11.2-2.6-16.7c-0.5-2.6,1.1-6.4-2.4-7.5
			c-2.7-0.9-5.9-0.3-8.9-0.3c-1.7,0-2.4,1-2.1,2.6c0.4,2.1,0.8,4.2,1.3,6.3c2.1,10.6,4.2,21.2,6.3,31.7c0.4,2,0,3.2-2.2,3.4
			c-1.8,0.1-2.5,1.1-2.6,2.9c-0.2,4.7-0.2,4.9,4.9,4.9C82.8,93.2,83.8,93.2,84.8,93.2z M149.8,132.5c0-1.3,0-2.7,0-4
			c0-3.2,0-6.3,0.2-9.5c0-0.7,1.1-1.9,1.6-1.9c0.7,0,1.6,0.9,2.1,1.6c0.4,0.5,0.3,1.3,0.4,1.9c0.3,1.9-0.1,4.8,0.9,5.5
			c1.5,1.1,4.1,0.6,6.2,0.7c1.2,0.1,2.4,0.3,3.5-0.1c0.9-0.3,2-1.2,2.1-2c1.2-6.7-2.6-13.1-9-15.4c-4.2-1.5-8.5-1.5-12.7-0.1
			c-5.6,1.9-9.1,5.5-9.1,11.7c-0.1,7.6-0.2,15.3,0.1,22.9c0.3,7,3.8,11.8,9.7,12.7c8.4,1.3,15.3,0.6,19.3-6.6
			c0.7-1.3,1.3-2.7,1.5-4.2c1.4-7.9,0.5-8.9-7.5-8.6c-0.3,0-0.7,0-1,0c-2.3-0.2-3.3,0.9-3.3,3.2c0,2-0.2,4-0.7,5.9
			c-0.2,0.9-1.3,1.6-2,2.5c-0.8-0.9-1.8-1.7-2.3-2.8c-0.4-0.8-0.1-2-0.1-3C149.8,139.4,149.8,136,149.8,132.5z M170,59.7
			c0-6.1,0-12.3,0-18.4c0-9.8,0-9.8-9.8-9.7c-4.9,0.1-4.9,0.1-5,5c0,13.3-0.1,26.6,0,39.9c0.2,12.9-2.2,10.3,11.3,10.7
			c2.6,0.1,3.5-1,3.5-3.5C169.9,75.6,169.9,67.6,170,59.7z M142.1,35.1c-1,0-2,0-3,0c-4,0.1-4,0.1-4.3,4.1c-0.1,1.5,0.1,2.7-1.8,3.6
			c-1.7,0.8-1.9,6.5-0.4,6.9c2.7,0.8,2.1,2.6,2.1,4.3c0.1,8.2,0,16.3,0.1,24.5c0.1,5.5,2.7,8.2,8.2,8.5c2.2,0.1,4.3,0.1,6.5,0.1
			c1.5,0,3.4,0.2,3.3-2c-0.1-2.1,1.4-5.1-1.7-5.9c-2.4-0.6-2.3-2-2.3-3.6c-0.1-7.5,0-15,0-22.5c0-1.6,0.2-2.6,2.2-3.2
			c1.8-0.6,1.8-6.7,0.1-7.2c-2.4-0.6-2.1-2.1-2.3-3.7c-0.3-3.7-0.4-3.7-4.2-3.8C143.7,35.1,142.9,35.1,142.1,35.1z M107.8,63.9
			c0,4.7-0.1,9.3,0,14c0.1,2.9,0.4,5.8,0.7,8.8c2.8,0.1,5.6,0.4,8.4,0.4c4.9,0,4.9,0,5-4.9c0.1-6.5,0.2-13,0.1-19.5
			c0-2.7,0.9-5,3.5-5.2c4.1-0.2,4.4-2.5,4.2-5.6c-0.1-1.7,0.1-3.3,0-5c-0.2-2,1.1-5.1-1.3-5.7c-1.6-0.4-3.9,1.9-5.8,3
			c-0.1,0.1-0.2,0.2-0.3,0.4c-0.2,0.3-0.4,0.5-0.6,0.8c-0.1-0.4-0.4-0.9-0.3-1.3c0.6-2.5-0.8-2.9-2.8-2.8c-2.3,0-4.7,0.1-7,0
			c-2.8-0.2-3.8,0.9-3.7,3.7C108,51.2,107.8,57.6,107.8,63.9z"/>
		<path class="st0" d="M42.2,132.9c0,4,0,8,0,11.9c0,1.6,0.1,3.8-2.2,3.6c-0.8-0.1-2.1-2.1-2.1-3.3c-0.2-8.4-0.2-16.9,0-25.3
			c0-1,1.1-2.6,2-2.8c2-0.4,2.3,1.4,2.3,2.9C42.2,124.3,42.2,128.6,42.2,132.9C42.2,132.9,42.2,132.9,42.2,132.9z"/>
		<path class="st0" d="M75.6,120.8c0.1-0.8-0.1-1.7,0.2-2.5c0.3-0.7,1-1.5,1.5-1.6c0.6,0,1.6,0.7,1.7,1.3c0.4,1.9,0.6,3.9,0.4,5.9
			c0,0.6-1.3,1.6-2,1.6c-0.6,0-1.5-1-1.8-1.8C75.5,122.9,75.7,121.8,75.6,120.8C75.7,120.8,75.7,120.8,75.6,120.8z"/>
		<path class="st0" d="M116.3,141.4c-0.1,1.8,0,3.6-0.3,5.4c-0.1,0.7-1.2,1.5-2,1.7c-0.5,0.1-1.5-0.7-1.8-1.3
			c-1.3-2.4-0.4-9.2,1.5-11.3c0.4-0.4,1.1-0.7,1.6-1c0.3,0.7,0.8,1.3,0.9,2C116.4,138.4,116.3,139.9,116.3,141.4
			C116.3,141.4,116.3,141.4,116.3,141.4z"/>
		<path class="st0" d="M191.8,53.5c-0.1,1.1,0.1,2-0.2,2.3c-0.6,0.6-1.5,0.8-2.3,1.1c-0.4-1.1-1.2-2.2-1.1-3.3
			c0.1-1.5,0.9-2.9,1.4-4.4c0.5,0.3,1.3,0.5,1.5,0.9C191.5,51.3,191.7,52.7,191.8,53.5z"/>
	</g>
</g>
</svg>
