<?xml version="1.0" encoding="utf-8"?>
<!-- Generator: Adobe Illustrator 24.2.3, SVG Export Plug-In . SVG Version: 6.00 Build 0)  -->
<svg version="1.1" id="Calque_1" xmlns="http://www.w3.org/2000/svg" xmlns:xlink="http://www.w3.org/1999/xlink" x="0px" y="0px"
	 viewBox="0 0 3554.6 459.8" style="enable-background:new 0 0 3554.6 459.8;" xml:space="preserve">
<style type="text/css">
	.st0{fill:#3D3C3C;}
</style>
<path class="st0" d="M1346.1,160.9c-22.5,0-41.1,7.7-55.5,22.7c-14.4,15.1-21.8,35-21.8,59.8v1.3c0,23.9,7,43.3,21.5,57.7
	c14.4,14.4,33.4,21.8,56.4,21.8c25.4,0,46.3-9.2,62.5-27.3l-15.1-14.7c-13.8,14.7-26.4,21.5-47.6,21.5c-32.2,0-54-21.8-55.3-55.8
	h125.5c0.3-3.1,0.3-6.4,0.3-9.8c0-21.8-6.8-39.8-19.9-54.6C1384.1,168.3,1367.2,160.9,1346.1,160.9z M1293,227.7
	c0.9-12.6,6.4-23.3,16.6-32.2c10.1-8.9,22.3-13.5,36.5-13.5c12.9,0,23.9,4.6,33.2,13.5c9.2,8.9,13.8,19.7,13.8,32.2H1293z
	 M1741.9,176.5l-72.8-126c-69.2,40-92.9,128.5-53,197.7s128.5,92.9,197.7,53l72.8,126c69.2-40,92.9-128.5,53-197.7
	S1811.1,136.5,1741.9,176.5z M178,285.2v-63.8c0-35.2-21.8-58.3-56.4-58.3c-23,0-40.5,11.4-48.8,28.6v-26H50.1v154.6h22.8V228
	c0-25.8,17.5-43.5,42.9-43.5c24.5,0,39.6,16.2,39.6,42v60.4c0,31,17.5,34.4,29.5,34.4c4,0,7.4-0.6,9.8-1.5v-18.7
	c-2.4,0.3-4.3,0.6-5.9,0.6C179.9,301.4,178,297.7,178,285.2z M666.7,106.3H644v59.2h-18.1v21.2H644v90.2c0,31.9,13.8,47.9,41.5,47.9
	c7.9,0,13.8-0.9,17.2-2.4v-19.7c-4,0.6-8.6,0.9-14.4,0.9c-15.1,0-21.5-7-21.5-26.7v-90.2h35.9v-21.2h-35.9V106.3z M480.5,285.4
	V165.6h-22.7v23c-8.9-15.7-26.9-27.6-54.9-27.6c-21.8,0-40.5,7.9-55.5,23.6c-15.1,15.7-22.7,35-22.7,58.3s7.7,42.9,22.7,58.6
	c15.1,15.7,33.7,23.3,55.5,23.3c25.8,0,44.4-9.2,56.2-27.3c0.9,10.1,4.6,17.5,10.5,22.1c4,2.8,9.6,4.3,16.2,4.3
	c5.9,0,10.7-0.9,14.4-2.4v-17.2c-2.8,0.3-5.5,0.6-7.9,0.6C483.6,304.8,480.5,299,480.5,285.4z M444,286.3
	c-10.7,11.4-24.5,17.2-41.1,17.2c-16,0-29.1-5.9-39.8-17.2c-10.5-11.6-15.7-26-15.7-43.5s5.2-31.9,15.7-43.3
	c10.7-11.6,23.9-17.5,39.8-17.5c16.6,0,30.4,5.9,41.1,17.5c11.1,11.4,16.6,25.8,16.6,43.3S455.1,274.7,444,286.3z M1074.3,283.3
	l-50-117.8h-23.9l66.2,154.6h15.7l66.2-154.6h-24.2L1074.3,283.3z M866,287V165.6h-22.7v125.5c0,21.8,9.2,32.8,27.9,32.8
	c5.9,0,10.7-0.9,14.4-2.4v-18.7c-2.8,0.3-5.5,0.6-7.9,0.6C869.1,303.3,866,298.3,866,287z M865.4,135.5c6.1-6.1,6.1-16,0-21.8
	c-6.1-6.1-15.3-6.1-21.5,0c-6.1,5.9-6.1,15.7,0,21.8C850.1,141.3,859.3,141.3,865.4,135.5z M2206.6,237.5
	c-20.5-7.8-29.6-13.5-29.6-24.5c0-11.1,8.6-17.5,21.3-17.5c10.5,0,18.1,4.6,22.9,13.5l16.1-8.4c-7.8-15.7-21-23.4-39.3-23.4
	c-23.9,0-41,15.1-41,35.8c0,19.7,12.1,29.9,37,39.6c12.7,5.1,21.5,9.4,26.4,12.9c5.1,3.5,7.5,8.6,7.5,15.3
	c0,10.5-7.5,20.7-29.9,20.7c-18.5,0-30.7-8.9-34.2-20.5l-16.9,6.4c5.4,20.7,25.3,32.6,51.1,32.6c32.4,0,49.9-17.7,49.9-39.3
	C2247.8,260.1,2234.6,248.3,2206.6,237.5z M2496.1,177.2c-24.5,0-40.4,10.5-48.2,24.2v-20.1H2428v187.7h19.9v-72.2
	c7.8,13.7,23.7,24.2,48.2,24.2c19.1,0,35.6-6.7,48.7-20.5c13.2-13.7,19.9-31,19.9-51.5s-6.7-37.4-19.9-51.1
	C2531.7,184.2,2515.2,177.2,2496.1,177.2z M2530.9,287.4c-9.2,10-20.7,15.1-34.8,15.1c-14.5,0-26.7-5.1-36.4-15.1
	c-9.4-10.2-14.3-22.9-14.3-38.2c0-15.3,4.8-28,14.3-38c9.7-10.2,21.8-15.3,36.4-15.3c14,0,25.6,5.1,34.8,15.3c9.4,10,14,22.6,14,38
	C2544.9,264.5,2540.3,277.1,2530.9,287.4z M2768,154.8c5.4-5.4,5.4-14,0-19.1c-5.4-5.4-13.5-5.4-18.9,0c-5.4,5.1-5.4,13.7,0,19.1
	C2754.5,159.9,2762.6,159.9,2768,154.8z M2768.4,287.8V181.2h-19.9v110.2c0,19.1,8.1,28.8,24.5,28.8c5.1,0,9.4-0.8,12.7-2.2v-16.5
	c-2.4,0.2-4.8,0.6-7,0.6C2771.2,302.1,2768.4,297.8,2768.4,287.8z M2985.8,204.1v-22.9h-19.9V317h19.9v-78.9
	c0-22.7,15.3-38.2,36.6-38.2c5.4,0,10,0.6,13.5,1.4v-21.5c-2.4-0.2-5.4-0.6-8.4-0.6C3007.9,179,2993.1,189,2985.8,204.1z
	 M3239,154.8c5.4-5.4,5.4-14,0-19.1c-5.4-5.4-13.5-5.4-18.9,0c-5.4,5.1-5.4,13.7,0,19.1C3225.5,159.9,3233.6,159.9,3239,154.8z
	 M3239.6,287.8V181.2h-19.9v110.2c0,19.1,8.1,28.8,24.5,28.8c5.1,0,9.4-0.8,12.7-2.2v-16.5c-2.4,0.2-4.8,0.6-7,0.6
	C3242.2,302.1,3239.6,297.8,3239.6,287.8z M3504.3,199.9v-18.7h-31.5v-51.9h-19.9v51.9h-15.9v18.5h15.9V279c0,28,12.1,42,36.4,42
	c7,0,12.1-0.8,15.1-2.2v-17.3c-3.5,0.6-7.6,0.8-12.7,0.8c-13.2,0-18.9-6.2-18.9-23.5v-79.2h31.5V199.9z"/>
</svg>
