<?xml version="1.0" encoding="utf-8"?>
<!-- Generator: Adobe Illustrator 24.2.3, SVG Export Plug-In . SVG Version: 6.00 Build 0)  -->
<svg version="1.1" id="Capa_1" xmlns="http://www.w3.org/2000/svg" xmlns:xlink="http://www.w3.org/1999/xlink" x="0px" y="0px"
	 viewBox="0 0 136 28" style="enable-background:new 0 0 136 28;" xml:space="preserve">
<style type="text/css">
	.st0{fill-rule:evenodd;clip-rule:evenodd;fill:#3C3C3C;}
</style>
<g id="Web">
	<g id="Detalle-de-noticia" transform="translate(-16.000000, -16.000000)">
		<g id="LOGO-PARA-VINILO" transform="translate(16.000000, 16.000000)">
			<path id="Fill-1" class="st0" d="M4.2,22.5h18V4.2h-18V22.5z M0,26.7h26.5V0H0V26.7z"/>
			<polygon id="Fill-2" class="st0" points="21.5,19 7.7,5 4.9,7.8 18.8,21.8 			"/>
			<polygon id="Fill-3" class="st0" points="18.8,5 4.9,19 7.7,21.8 21.5,7.8 			"/>
			<polygon id="Fill-4" class="st0" points="30.9,3.5 49.9,3.5 49.9,0 30.9,0 			"/>
			<polygon id="Fill-5" class="st0" points="30.9,19.3 34.5,19.3 34.5,0.4 30.9,0.4 			"/>
			<polygon id="Fill-6" class="st0" points="46.3,19.5 49.9,19.5 49.9,0.4 46.3,0.4 			"/>
			<polygon id="Fill-7" class="st0" points="30.9,19.5 49.9,19.5 49.9,15.8 30.9,15.8 			"/>
			<polygon id="Fill-8" class="st0" points="54.1,19.3 57.7,19.3 57.7,0.1 54.1,0.1 			"/>
			<polygon id="Fill-9" class="st0" points="54.1,19.5 73,19.5 73,15.7 54.1,15.7 			"/>
			<polygon id="Fill-10" class="st0" points="69.9,3.6 88.8,3.6 88.8,0.1 69.9,0.1 			"/>
			<polygon id="Fill-11" class="st0" points="77.4,19.5 81.2,19.5 81.2,0.4 77.4,0.4 			"/>
			<polygon id="Fill-12" class="st0" points="93,19.3 96.7,19.3 96.7,0 93,0 			"/>
			<polygon id="Fill-13" class="st0" points="93,19.5 112,19.5 112,15.8 93,15.8 			"/>
			<polygon id="Fill-14" class="st0" points="93,11.6 112,11.6 112,8 93,8 			"/>
			<polygon id="Fill-15" class="st0" points="93,3.8 112,3.8 112,0 93,0 			"/>
			<polygon id="Fill-16" class="st0" points="108.3,11.6 112,11.6 112,0 108.3,0 			"/>
			<polygon id="Fill-17" class="st0" points="135.2,16.1 132,19.4 116.1,3.3 119.4,0.1 			"/>
			<polygon id="Fill-18" class="st0" points="119.4,19.4 116.1,16.1 132,0.1 135.2,3.3 			"/>
			<g id="Group-31" transform="translate(30.991777, 22.798779)">
				<path id="Fill-19" class="st0" d="M0,2V1.4h0.5V0.7h0.6v0.7h0.7V2H1.1v1.1c0,0.1,0,0.2,0.1,0.3c0,0.1,0.1,0.1,0.3,0.1
					c0.1,0,0.1,0,0.2,0c0.1,0,0.1,0,0.2-0.1v0.5C1.7,4,1.7,4,1.6,4S1.4,4,1.3,4C1.2,4,1,4,0.9,4c-0.1,0-0.2-0.1-0.2-0.2
					C0.6,3.7,0.6,3.6,0.5,3.5c0-0.1,0-0.2,0-0.4V2H0z"/>
				<path id="Fill-21" class="st0" d="M17.2,1.4h0.6v0.4h0c0.1-0.1,0.2-0.3,0.3-0.3c0.1-0.1,0.3-0.1,0.4-0.1c0,0,0.1,0,0.1,0
					s0.1,0,0.1,0V2c-0.1,0-0.1,0-0.2,0s-0.1,0-0.1,0c-0.1,0-0.3,0-0.3,0.1S18,2.2,18,2.2c0,0.1-0.1,0.1-0.1,0.2c0,0.1,0,0.1,0,0.2
					v1.3h-0.6V1.4z"/>
				<path id="Fill-23" class="st0" d="M35.7,2.8h-0.1c-0.1,0-0.2,0-0.3,0c-0.1,0-0.2,0-0.3,0S34.8,2.9,34.7,3s-0.1,0.1-0.1,0.2
					c0,0.1,0,0.1,0,0.1c0,0,0.1,0.1,0.1,0.1c0,0,0.1,0,0.1,0.1c0.1,0,0.1,0,0.2,0c0.2,0,0.4-0.1,0.5-0.2c0.1-0.1,0.2-0.2,0.2-0.4
					V2.8z M35.7,3.6L35.7,3.6c-0.1,0.1-0.2,0.2-0.4,0.3C35.2,4,35.1,4,34.9,4c-0.1,0-0.2,0-0.3,0c-0.1,0-0.2-0.1-0.3-0.1
					c-0.1-0.1-0.2-0.1-0.2-0.2C34,3.5,34,3.4,34,3.3c0-0.1,0-0.3,0.1-0.3c0-0.1,0.1-0.2,0.2-0.2c0.1-0.1,0.2-0.1,0.3-0.2
					c0.1,0,0.2-0.1,0.3-0.1c0.1,0,0.2,0,0.3,0c0.1,0,0.2,0,0.3,0h0.2V2.3c0-0.2-0.1-0.3-0.2-0.4c-0.1-0.1-0.2-0.1-0.4-0.1
					c-0.1,0-0.3,0-0.4,0.1c-0.1,0-0.2,0.1-0.3,0.2l-0.3-0.3c0.1-0.1,0.3-0.2,0.5-0.3c0.2-0.1,0.4-0.1,0.6-0.1c0.2,0,0.3,0,0.4,0.1
					c0.1,0,0.2,0.1,0.3,0.2c0.1,0.1,0.1,0.1,0.2,0.2c0,0.1,0.1,0.2,0.1,0.2c0,0.1,0,0.2,0,0.2c0,0.1,0,0.1,0,0.2v1.4h-0.6V3.6z"/>
				<path id="Fill-25" class="st0" d="M50.9,2.7c0,0.1,0,0.2,0,0.3c0,0.1,0.1,0.2,0.1,0.2c0.1,0.1,0.1,0.1,0.2,0.2
					c0.1,0,0.2,0.1,0.3,0.1c0.1,0,0.2,0,0.3-0.1c0.1,0,0.2-0.1,0.2-0.2c0.1-0.1,0.1-0.1,0.1-0.2c0-0.1,0-0.2,0-0.3
					c0-0.1,0-0.2,0-0.3c0-0.1-0.1-0.2-0.1-0.2C52.1,2.1,52,2,51.9,2c-0.1,0-0.2-0.1-0.3-0.1c-0.1,0-0.2,0-0.3,0.1
					c-0.1,0-0.2,0.1-0.2,0.2C51,2.2,51,2.3,50.9,2.4C50.9,2.5,50.9,2.6,50.9,2.7L50.9,2.7z M52.3,3.6L52.3,3.6
					c-0.1,0.2-0.2,0.3-0.4,0.3C51.8,4,51.7,4,51.5,4c-0.2,0-0.4,0-0.5-0.1c-0.1-0.1-0.3-0.2-0.4-0.3c-0.1-0.1-0.2-0.3-0.2-0.4
					c-0.1-0.2-0.1-0.3-0.1-0.5c0-0.2,0-0.4,0.1-0.5c0.1-0.2,0.1-0.3,0.2-0.4c0.1-0.1,0.2-0.2,0.4-0.3c0.1-0.1,0.3-0.1,0.5-0.1
					c0.1,0,0.2,0,0.3,0c0.1,0,0.2,0.1,0.2,0.1c0.1,0,0.1,0.1,0.2,0.1c0,0,0.1,0.1,0.1,0.1h0V0h0.6v3.9h-0.6V3.6z"/>
				<path id="Fill-27" class="st0" d="M67.1,3.9h0.6V1.4h-0.6V3.9z M67,0.6c0-0.1,0-0.2,0.1-0.3c0.1-0.1,0.2-0.1,0.3-0.1
					c0.1,0,0.2,0,0.3,0.1c0.1,0.1,0.1,0.2,0.1,0.3s0,0.2-0.1,0.3C67.6,0.9,67.5,1,67.4,1c-0.1,0-0.2,0-0.3-0.1C67,0.8,67,0.7,67,0.6
					L67,0.6z"/>
				<path id="Fill-29" class="st0" d="M83.4,1.4h0.6v0.4h0c0.1-0.1,0.1-0.2,0.3-0.3c0.1-0.1,0.3-0.1,0.5-0.1c0.2,0,0.3,0,0.4,0.1
					c0.1,0.1,0.2,0.1,0.3,0.2c0.1,0.1,0.1,0.2,0.2,0.3c0,0.1,0,0.2,0,0.4v1.6H85V2.7c0-0.1,0-0.1,0-0.2c0-0.1,0-0.2-0.1-0.2
					c0-0.1-0.1-0.1-0.1-0.2c-0.1-0.1-0.1-0.1-0.3-0.1c-0.1,0-0.2,0-0.3,0.1c-0.1,0-0.1,0.1-0.2,0.1c0,0.1-0.1,0.1-0.1,0.2
					c0,0.1,0,0.2,0,0.2v1.4h-0.6V1.4z"/>
				<path id="Fill-30" class="st0" d="M102.5,1.9c-0.1,0-0.2,0-0.3,0.1S102,2.1,102,2.1c-0.1,0.1-0.1,0.1-0.1,0.2
					c0,0.1-0.1,0.2-0.1,0.3c0,0.1,0,0.2,0.1,0.3c0,0.1,0.1,0.2,0.2,0.2c0.1,0.1,0.1,0.1,0.2,0.2c0.1,0,0.2,0.1,0.3,0.1
					c0.1,0,0.2,0,0.3-0.1c0.1,0,0.2-0.1,0.2-0.2c0.1-0.1,0.1-0.1,0.1-0.2c0-0.1,0.1-0.2,0.1-0.3c0-0.2-0.1-0.4-0.2-0.5
					S102.7,1.9,102.5,1.9L102.5,1.9z M103.8,1.4v2.3c0,0.2,0,0.4-0.1,0.6c-0.1,0.2-0.1,0.3-0.3,0.5S103.2,5,103,5.1
					c-0.2,0.1-0.4,0.1-0.6,0.1c-0.2,0-0.4,0-0.7-0.1c-0.2-0.1-0.4-0.2-0.6-0.3l0.4-0.5c0.1,0.1,0.3,0.2,0.4,0.3
					c0.1,0.1,0.3,0.1,0.5,0.1c0.1,0,0.3,0,0.4-0.1c0.1,0,0.2-0.1,0.2-0.2c0.1-0.1,0.1-0.2,0.1-0.3c0-0.1,0-0.2,0-0.3V3.6h0
					c-0.1,0.1-0.2,0.2-0.4,0.3c-0.1,0.1-0.3,0.1-0.5,0.1c-0.2,0-0.4,0-0.5-0.1c-0.2-0.1-0.3-0.2-0.4-0.3c-0.1-0.1-0.2-0.3-0.2-0.4
					c-0.1-0.2-0.1-0.3-0.1-0.5c0-0.2,0-0.4,0.1-0.5c0.1-0.2,0.1-0.3,0.2-0.4c0.1-0.1,0.2-0.2,0.4-0.3c0.1-0.1,0.3-0.1,0.5-0.1
					c0.2,0,0.3,0,0.5,0.1c0.2,0.1,0.3,0.2,0.4,0.3h0V1.4H103.8z"/>
			</g>
		</g>
	</g>
</g>
</svg>
