<?xml version="1.0" encoding="utf-8"?>
<!-- Generator: Adobe Illustrator 24.2.3, SVG Export Plug-In . SVG Version: 6.00 Build 0)  -->
<svg version="1.1" id="Capa_1" xmlns="http://www.w3.org/2000/svg" xmlns:xlink="http://www.w3.org/1999/xlink" x="0px" y="0px"
	 viewBox="0 0 336 67" style="enable-background:new 0 0 336 67;" xml:space="preserve">
<style type="text/css">
	.st0{fill:#3C3C3C;}
</style>
<g id="SWZSVa.tif">
	<g>
		<path class="st0" d="M167.2,60c-49.7,0-99.3,0-149,0c-1.3,0-2.7,0-4,0c-1.2,0.1-1.3-0.5-1.3-1.5c0-15.3,0-30.7,0-46
			c0-1,0.1-1.6,1.3-1.5c1.2,0.1,2.3,0,3.5,0c99.8,0,199.6,0,299.4,0c1.5,0,3.7-0.5,4.3,0.3c0.8,1.1,0.5,3.1,0.5,4.7c0,14,0,28,0,42
			c0,1.4-0.1,2.2-1.8,2c-1.2-0.1-2.3,0-3.5,0C266.9,60,217.1,60,167.2,60z M65,35.3c0,1.5,0,3,0,4.5c0,4,2.3,6.2,6.3,6.2
			c1.5,0,3,0.2,4.5,0c2.5-0.4,4,0.9,5.2,2.8c0.2,0.4,0.3,0.9,0.5,1.3c0.9,1.3,2.4,1.3,4.1-0.1c1.1-1,0.1-1.7-0.6-2.4
			c-0.7-0.7-1.6-1.1,0.4-1.6c4.2-0.9,5.6-2.8,5.6-6.8c0-3,0-6,0-9c0-0.8-0.2-1.6-0.6-2.2c-1.7-2.5-4.4-3.8-7.3-3.8
			c-4.5,0-9-0.8-13.5,0.8c-2.9,1-4.4,2-4.5,4.9C64.9,31.7,65,33.5,65,35.3z M209.2,34.2c-0.1,0-0.1,0-0.2,0c0,3.2-0.1,6.3,0,9.5
			c0,1.4,1.1,2.3,2.5,2.3c1.4,0,2.4-0.9,2.4-2.4c0.1-1.5-0.1-3,0.1-4.5c0-0.4,0.7-1.1,1.1-1.1c3.8-0.1,7.6-0.1,11.4,0
			c1.4,0,2.4,0.9,2.4,2.4c0,1.3,0,2.7,0,4c0,0.9,0.1,1.5,1.3,1.6c2.6,0.2,2.9,0.1,2.7-2.5c-0.2-2.4,1-4.9-0.9-7.1
			c-0.2-0.2-0.1-0.8,0-0.9c1.9-2,0.8-4.4,0.9-6.6c0.1-2.8-2.1-4.8-5-4.9c-2.8-0.1-5.6-0.1-8.5,0c-3.4,0.1-6.9,0.2-10.3,0.3
			C209.2,27.6,209.2,30.9,209.2,34.2z M173.1,34.8c0,0-0.1,0-0.1,0c0,3,0.1,6,0,9c0,1.5-0.1,2.5,2,2.3c5.5-0.6,11.1,1,16.5-1
			c2.8,0.9,4.1-1.3,5.8-2.8c1.2-1.1,0.4-2.5,0.7-3.7c1.5-5.6,1.3-6.1-0.7-10.8c-1.1-2.6-2.8-3.6-5.4-3.7c-2.7-0.1-5.3-0.1-8,0
			c-3.6,0.1-7.2,0.2-10.8,0.4C173.1,27.9,173.1,31.3,173.1,34.8z M149.8,24c-0.9,0.3-1.9-0.7-2.8,0.9c-3.7,6.5-7.6,12.8-11.5,19.2
			c-0.1,0.2-0.1,0.8,0.2,1c1.5,1.5,3.1,1.3,4.4-0.6c2.4-3.5,2.4-3.5,6.4-3.5c2.8,0,5.6,0.1,8.5,0c1.5-0.1,2.4,0.5,3.1,1.8
			c0.5,1,1.1,2.2,2,2.6c1,0.5,2.7,0.9,3.6,0.4c1.8-1-0.6-1.7-0.6-2.8c0-0.8-0.5-1.8-1-2.5c-3.4-4.6-6.3-9.6-8.9-14.7
			C152.3,24.4,151.3,23.7,149.8,24z M255.3,41c1.5,0,3,0,4.5,0c2-0.1,3.7-0.1,4.5,2.6c0.4,1.5,2.1,2.9,4.3,2.5
			c1.4-0.2,1.8-0.6,1.2-1.8c-2.8-4.8-5.6-9.6-8.4-14.4c-0.9-1.5-1.6-3-2.5-4.5c-0.9-1.6-2.5-1.2-3.9-1.4c-1.5-0.2-1.6,0.7-2.2,1.7
			c-3.6,6.2-7.4,12.2-11.2,18.3c-0.2,0.3-0.2,0.8,0,1c0.7,1.3,1.9,0.9,3.1,1c1.1,0.1,1-0.6,1.5-1.4c2.3-3.7,2.4-3.7,6.7-3.7
			C253.6,41,254.5,41,255.3,41z M102,32.9c0,2.7,0.1,5.3,0,8c-0.1,1.3,0.5,2.2,1.4,2.9c1.5,1.2,3,2.2,5.1,2.2
			c3.3-0.1,6.7-0.3,10,0.1c2.1,0.2,3.6-1.1,5.6-1.2c0.7,0,1.6-1.1,1.9-1.8c0.9-2.6,1.5-14.6,1.1-17c-0.3-1.5-1.7-2.2-3.9-2
			c-1.7,0.1-1.1,1.3-1.1,2.2c0,4.3,0,8.7,0,13c0,2.1-0.8,2.8-3,2.8c-3.3,0-6.7,0-10,0c-2.2,0-3-0.8-3-2.9c-0.1-4.5,0-9,0-13.5
			c0-0.5-0.1-1.3-0.3-1.3c-0.9-0.2-1.9-0.4-2.9-0.2c-0.3,0-0.8,0.9-0.8,1.4C102,27.9,102,30.4,102,32.9z"/>
		<path class="st0" d="M77.5,42c-1.8,0-3.7,0-5.5,0c-2.2-0.1-2.9-0.8-3-2.9c-0.1-2.7,0.3-5.4-0.1-8c-0.4-2.4,1.7-2.8,2.4-2.8
			C75.6,28,79.9,28,84.2,28c1,0,2.8,2.4,2.8,3.6c0,2.7,0.1,5.3,0,8C86.9,41,86.1,42,84.5,42C82.2,42,79.8,42,77.5,42z"/>
		<path class="st0" d="M220.7,34c-1.3,0-2.6,0-4,0c-2.7,0-2.7,0-2.7-3c0-3,0-3,2.8-3c3.1,0,6.3-0.1,9.4,0c2.1,0,2.8,0.9,2.8,3
			c0,2.1-0.7,2.9-2.8,3C224.3,34.1,222.5,34,220.7,34z"/>
		<path class="st0" d="M185,28c1.8,0,3.6,0,5.5,0c2.9,0,3.5,0.6,3.6,3.3c0,2.1,0,4.3,0,6.5c-0.1,2.5-1.7,4.2-4.1,4.3
			c-0.3,0-0.7,0-1,0c-3.9-0.1-7.8-0.3-11.8-0.4c0-4,0-7.9-0.2-11.9c-0.1-1.7,0.7-1.8,2.1-1.8C181,28.1,183,28,185,28z"/>
		<path class="st0" d="M149.3,37.2c-1.4-0.2-2.8-0.4-4.2-0.7c0.8-1.1,1.6-2.3,2.3-3.4c0.6-0.9,1.1-1.8,1.6-2.8c0.5-1,1.3-1,1.9,0.1
			c0.5,1,0.7,2,1.2,3c0.4,0.7,1.1,1.2,1.6,1.8c0.3,0.4,0.5,1,0.3,1.3c-0.1,0.3-0.8,0.5-1.2,0.5c-1.1,0.1-2.3,0-3.5,0
			C149.3,37.1,149.3,37.1,149.3,37.2z"/>
		<path class="st0" d="M255.7,37.2c-1.8-0.2-3.2-0.4-4.6-0.6c0.9-1.3,1.8-2.5,2.6-3.8c0.7-1.2,0.7-2.7,2.1-3.5
			c0.7,1.2,1.5,2.3,2.2,3.5c0.7,1.2,1.3,2.4,2,3.6C258.5,36.7,257,37,255.7,37.2z"/>
	</g>
</g>
</svg>
