<?xml version="1.0" encoding="utf-8"?>
<!-- Generator: Adobe Illustrator 24.2.3, SVG Export Plug-In . SVG Version: 6.00 Build 0)  -->
<svg version="1.1" id="Capa_1" xmlns="http://www.w3.org/2000/svg" xmlns:xlink="http://www.w3.org/1999/xlink" x="0px" y="0px"
	 viewBox="0 0 268 244" style="enable-background:new 0 0 268 244;" xml:space="preserve">
<style type="text/css">
	.st0{fill:#3C3C3C;}
</style>
<g id="oD5naZ.tif">
	<g>
		<path class="st0" d="M175.7,234.4c-1.4-0.8-2.9-1.5-4.2-2.5c-3-2.1-4.4-5.2-4.7-8.7c-0.2-2.6-0.2-5.2,0-7.8
			c0.4-4.8,2.8-8.2,7.2-10.1c2-0.9,4.2-1.3,6.4-1.4c5-0.2,10-0.4,14.8,1.3c1.9,0.7,3.6,1.7,4.8,3.3c1.2,1.5,1.9,3.2,2,5.1
			c0.1,2.5,0.1,5.1,0.2,7.6c0,0.7-0.3,0.8-0.8,0.8s-1,0-1.4,0c-6.7,0-13.4,0-20.2,0c-2.6,0-2.9,0.5-1.8,2.9c1.3,3.2,4,4.1,7.2,4.2
			c4.5,0.1,9,0,13.6,0c0.4,0,0.8,0,1.2,0c1.6,0,1.6,0,1.7,1.6c0,1.2,0.1,2.5,0.1,3.7C193,234.4,184.4,234.4,175.7,234.4z
			 M185.1,217.5L185.1,217.5c2.1,0,4.1,0,6.2,0c1,0,1.5-0.4,1.5-1.5c0-0.8,0-1.6-0.1-2.5c-0.2-2.5-1.3-4-3.9-4.3
			c-2.3-0.3-4.8-0.5-7.1-0.2c-3.3,0.3-4.3,1.7-4.4,5.1c0,0.3,0,0.5,0,0.8c0,2.5,0.1,2.6,2.5,2.6
			C181.6,217.5,183.4,217.5,185.1,217.5z"/>
		<path class="st0" d="M55.9,234.4c-1.3-0.7-2.8-1.2-4-2c-3.1-2.2-4.8-5.4-5-9c-0.3-6.1-0.1-12.2-0.1-18.3c0-1.1,0.5-1.4,1.5-1.4
			c2.4,0,4.8,0,7.2,0c1.4,0,1.4,0.1,1.5,1.6c0,4.7,0,9.5,0,14.2c0,1.2,0,2.3,0,3.5c0.1,3.3,1.5,5.3,4.7,5.7c2.1,0.3,4.2,0,6.3-0.2
			c1.9-0.2,3-1.6,3.4-3.4c0.3-1.1,0.4-2.3,0.4-3.4c0-5.3,0-10.6,0-15.8c0-2,0-2,2.1-2c2.3,0,4.5,0,6.8,0c1,0,1.3,0.3,1.3,1.3
			c0,5.8,0.2,11.7-0.1,17.5c-0.2,4.6-2.6,10-8.8,11.7c-0.2,0.1-0.3,0.2-0.5,0.3C67.2,234.4,61.5,234.4,55.9,234.4z"/>
		<path class="st0" d="M129.6,234.4c0-1.6,0-3.2,0-4.7c0-1.1,0.4-1.5,1.5-1.5c2.6,0,5.2,0,7.8,0c3.4-0.1,6.9-0.1,10.3-0.3
			c2-0.1,2.6-0.8,2.7-2.2c0.1-1.5-0.6-2.8-2.2-3.3c-0.9-0.3-1.9-0.4-2.8-0.4c-2.7-0.1-5.5,0.1-8.2-0.1c-1.5-0.1-3-0.4-4.4-0.9
			c-3.5-1.4-5.2-4.2-5.3-7.9s1.6-6.5,4.8-8.2c1-0.5,2.4-0.8,3.6-0.8c6.7-0.1,13.3-0.1,20-0.1c0.9,0,1.4,0.2,1.4,1.3
			c-0.1,1.1-0.1,2.2,0,3.3s-0.3,1.4-1.4,1.4c-2.9-0.1-5.8,0-8.6,0c-2.1,0-4.3-0.1-6.4,0.1c-0.9,0.1-2.1,0.5-2.7,1.2
			c-1.4,1.5-1.6,4.7,1.7,5.3c1,0.2,2,0.1,3.1,0.1c3.2,0.1,6.5,0,9.6,0.5c5.3,0.8,8,4.3,6.5,10.6c-0.7,2.9-2.3,5.1-5.2,6.1
			c-0.2,0.1-0.4,0.3-0.6,0.5C146.4,234.4,138,234.4,129.6,234.4z"/>
		<path class="st0" d="M90.5,234.4c0-1.6,0.1-3.2,0.1-4.7c0-1.1,0.4-1.4,1.4-1.4c3.4,0,6.9,0,10.3,0c2.7,0,5.3-0.1,8-0.3
			c1.7-0.1,2.3-0.6,2.5-1.9c0.2-1.6-0.5-3.1-1.9-3.5c-1-0.3-2.1-0.5-3.2-0.5c-2.3-0.1-4.5,0.1-6.8,0c-1.4,0-2.9-0.2-4.3-0.5
			c-6.1-1.4-7.7-7.8-5.9-12.2c1.4-3.5,4.2-5.2,7.9-5.2c6.5-0.1,13,0,19.6,0c1.4,0,1.5,0,1.5,1.5c0,1,0,2.1,0,3.1
			c0.1,1.1-0.4,1.4-1.4,1.4c-4.3,0-8.6,0-13,0c-0.7,0-1.4,0-2.1,0c-2,0.2-3.1,1.2-3.5,3.1c-0.3,1.6,0.3,2.7,1.8,3.2
			c0.9,0.3,1.9,0.4,2.8,0.4c2.5,0,4.9,0,7.4,0c2.2,0,4.3,0.5,6.4,1.4c1.6,0.8,2.8,2,3.3,3.7c1.4,4.7-0.4,10.4-5.1,12
			c-0.2,0.1-0.4,0.3-0.6,0.5C107.2,234.4,98.9,234.4,90.5,234.4z"/>
		<path class="st0" d="M247,234.4c-1.5-0.8-3-1.5-4.4-2.5c-3.2-2.3-4.7-5.8-4.9-9.5c-0.3-6.6-0.1-13.3-0.1-19.9c0-1.7,0-1.7,1.7-1.7
			c2.3,0,4.7,0,7,0c1.8,0,1.9,0,1.9,1.8c0,3.2,0,6.3,0,9.5c0,2.7-0.1,5.5,0,8.2c0.1,2.3,0.4,4.5,2.2,6.2c1.3,1.2,2.7,1.9,4.4,2
			c1.8,0.1,3.6,0.2,5.3,0.3c0,1.6,0,3.3,0,4.9c0,0.7-0.1,0.9-0.8,0.8C255.2,234.4,251.1,234.4,247,234.4z"/>
		<path class="st0" d="M219.4,234.4c-0.3-0.2-0.6-0.4-0.9-0.5c-4.9-1.2-8.7-7.1-8.6-12.3c0.1-6.2,0-12.5,0-18.7c0-2.2,0-2.2,2.3-2.2
			c2,0,4,0,6,0c2.3,0,2.3,0,2.3,2.4c0,5.6,0,11.2,0,16.9c0,1,0.1,2.1,0.3,3c0.7,2.9,2.6,4.8,5.6,5.2c1.4,0.2,2.9,0.3,4.3,0.3
			c1.5,0.1,1.5,0.1,1.6,1.5s0.1,2.9,0.2,4.3C228.2,234.4,223.8,234.4,219.4,234.4z"/>
		<path class="st0" d="M13.1,234.4c0.1-1,0.2-1.9,0.2-2.9c0-4.7,0-9.3,0-14c0-2.7,0.8-5.3,2-7.6c2.1-4.1,5.6-6.1,10.1-6.3
			c4.7-0.1,9.3-0.1,14-0.1c0.9,0,1.2,0.3,1.2,1.2c0,1-0.1,2.1,0,3.1c0.1,1.1-0.5,1.4-1.5,1.4c-1.9,0-3.8-0.1-5.8,0
			c-1.2,0-2.5,0.1-3.7,0.4c-3.3,0.7-5.4,3.1-5.5,6.5c-0.1,4.3-0.1,8.6-0.1,13c0,1.8,0.1,3.6,0.1,5.3
			C20.5,234.4,16.8,234.4,13.1,234.4z"/>
		<path class="st0" d="M115,11c31.9,0,63.8,0,95.7,0c5.6,0,11,1.2,16.1,3.6c6.1,2.9,11.3,7.1,15.1,12.7c5.2,7.8,7.3,16.4,5.9,25.8
			c-1.4,9-5.5,16.5-12.3,22.4c-5.8,5-12.6,7.9-20.3,8.5c-2.3,0.2-4.7,0.3-7,0.3c-21.3,0-42.7,0-64,0c-0.6,0-1.2,0-1.9,0
			c-1-0.1-1.7-0.8-1.8-1.9c-0.1-0.5,0-1.1,0-1.6c0-9,0-18,0-27c0-4.3-1.6-7.9-4.9-10.6c-2.2-1.9-4.8-2.9-7.7-2.9
			c-4.7,0-9.5,0-14.2,0c-2.4,0-3,0.7-3.1,3.1c0,3.2,0,6.3,0,9.5c0,39.7,0,79.5,0,119.2c0,3.9-0.3,4.2-4.2,4.2c-29.4,0-58.9,0-88.3,0
			c-3.7,0-4-0.6-4-4c0-52.3,0-104.6,0-156.9c0-3.5,0.5-4.5,4.4-4.5C50.6,11,82.8,11,115,11z"/>
		<path class="st0" d="M200,176.2c-18.6,0-37.2,0-55.8,0c-0.6,0-1.2,0-1.9,0c-1.1,0-1.8-0.7-1.9-1.8c-0.1-0.6-0.1-1.2-0.1-1.8
			c0-12.8-0.1-25.5,0.1-38.3c0.1-6.8-6.2-11.8-11.5-12c-4.6-0.2-8.7,1.1-12.4,3.7c-0.4,0.3-0.8,0.6-1.2,0.8
			c-0.1,0.1-0.5-0.1-0.5-0.3c-0.1-0.4-0.1-0.8-0.1-1.2c0-5.2,0-10.4,0-15.6c0-2.2,0.4-4.3,1.5-6.3c1.9-3.4,4.7-5.1,8.5-5.2
			c2-0.1,4,0,6,0c4.3,0,7.4-1.8,9-5.9c0.5-1.3,1.3-1.9,2.8-1.9c19.6,0,39.1,0,58.7,0.1c6.1,0,11.8,1.8,17.3,4.2
			c5,2.2,9.4,5.3,13.3,9.2c4.5,4.6,7.6,10,9.3,16.2c3.1,10.9,6.1,21.9,9,32.9c1.6,5.9,3.9,11.4,7,16.6c0.7,1.2,1.4,2.4,2.1,3.5
			c0.9,1.6,0.1,3-1.8,3.2c-0.5,0-1.1,0-1.6,0C237.2,176.2,218.6,176.2,200,176.2z M160.8,102.2L160.8,102.2c-2.1,0-4.3,0-6.4,0
			c-1.1,0-1.2,0.3-0.7,1.2c0.7,1.3,1.5,2.6,2.2,3.9c0.9,1.6,0.9,1.7,2.7,0.7c1.3-0.7,2.5-1.4,3.8-2.1c1.4-0.8,2.9-1.5,4.3-2.4
			c0.4-0.3,0.8-0.7,1.1-1.1c-0.5-0.1-0.9-0.4-1.4-0.4C164.5,102.2,162.6,102.2,160.8,102.2z"/>
	</g>
</g>
</svg>
