<?xml version="1.0" encoding="utf-8"?>
<!-- Generator: Adobe Illustrator 24.2.3, SVG Export Plug-In . SVG Version: 6.00 Build 0)  -->
<svg version="1.1" id="Capa_1" xmlns="http://www.w3.org/2000/svg" xmlns:xlink="http://www.w3.org/1999/xlink" x="0px" y="0px"
	 viewBox="0 0 478.1 319.3" style="enable-background:new 0 0 478.1 319.3;" xml:space="preserve">
<style type="text/css">
	.st0{fill:#3D3C3C;}
	.st1{fill:none;}
</style>
<g>
	<polygon class="st0" points="261.5,186.3 261.5,71 273.9,71 273.9,173.9 318.8,173.9 318.8,186.3 	"/>
	<path class="st0" d="M193.1,78.1c-29,0-50,22.9-50,54.4c0,31.5,21,54.4,50,54.4c29,0,50-22.9,50-54.4
		C243.1,101,222.1,78.1,193.1,78.1 M193.1,174.4c-22.3,0-38.5-17.6-38.5-41.9s16.2-41.9,38.5-41.9c22.3,0,38.5,17.6,38.5,41.9
		S215.5,174.4,193.1,174.4"/>
	<path class="st0" d="M407.1,106.1c0,4.4-3.4,7.8-7.9,7.8c-4.4,0-8-3.4-8-7.8c0-4.3,3.5-7.7,8-7.7
		C403.7,98.4,407.1,101.8,407.1,106.1 M393.2,106.1c0,3.4,2.5,6.2,6,6.2c3.4,0,5.9-2.7,5.9-6.1c0-3.4-2.5-6.2-5.9-6.2
		C395.7,99.9,393.2,102.7,393.2,106.1 M398,110.1h-1.8v-7.7c0.7-0.1,1.7-0.2,3-0.2c1.5,0,2.1,0.2,2.7,0.6c0.4,0.3,0.8,0.9,0.8,1.7
		c0,0.8-0.7,1.5-1.6,1.8v0.1c0.8,0.3,1.2,0.8,1.4,1.9c0.2,1.2,0.4,1.6,0.6,1.9H401c-0.2-0.3-0.4-1-0.6-1.9c-0.1-0.8-0.6-1.2-1.6-1.2
		H398V110.1z M398,105.8h0.8c1,0,1.8-0.3,1.8-1.1c0-0.7-0.5-1.2-1.6-1.2c-0.5,0-0.8,0-1,0.1V105.8z"/>
	<polygon class="st0" points="230.3,239.5 227.7,239.5 227.7,226.2 226,226.2 226,223.8 227.7,223.8 227.7,218.1 230.3,218.1 
		230.3,223.8 233.1,223.8 233.1,226.2 230.3,226.2 	"/>
	<path class="st0" d="M238.2,211.9v13.7l0.1,0.1c1.1-1.5,2.5-2.3,4.5-2.3c4.3,0,5.4,3.1,5.4,6.8v9.3h-2.7v-8.9
		c0-2.5-0.2-4.8-3.3-4.8c-3.7,0-3.9,3.4-3.9,6.2v7.5h-2.7v-27.6H238.2z"/>
	<path class="st0" d="M254.5,232.2c0,2.9,2.1,5.2,5.1,5.2c2.3,0,3.7-1.4,4.8-3.2l2.3,1.3c-1.5,2.8-4,4.4-7.3,4.4
		c-4.7,0-7.7-3.6-7.7-8.1c0-4.6,2.7-8.5,7.6-8.5c5,0,7.7,4.2,7.5,8.9H254.5z M264.1,229.9c-0.4-2.3-2.3-4.1-4.6-4.1
		c-2.3,0-4.4,1.8-4.8,4.1H264.1z"/>
	<path class="st0" d="M283.8,239.5h-2.7v-13.2h-1.5v-2.5h1.5v-6.3c0-1.3,0-2.9,0.7-4.1c0.9-1.4,2.4-2,4-2c0.6,0,1.3,0.1,1.9,0.3v2.7
		c-0.6-0.2-1.1-0.4-1.8-0.4c-2.2,0-2.2,1.5-2.2,4.3v5.3h4v2.5h-4V239.5z"/>
	<path class="st0" d="M304.3,239.5h-2.7v-2.2h-0.1c-1.4,1.7-3.2,2.6-5.4,2.6c-4.6,0-7.5-3.9-7.5-8.3c0-4.5,2.8-8.3,7.6-8.3
		c2.1,0,4.1,1,5.4,2.7h0.1v-2.2h2.7V239.5z M291.4,231.5c0,3.1,1.8,6,5.1,6c3.4,0,5.2-2.8,5.2-5.9c0-3.1-2-5.7-5.3-5.7
		C293.4,225.8,291.4,228.5,291.4,231.5"/>
	<path class="st0" d="M313,217.9c0,1.1-0.9,1.9-1.9,1.9c-1,0-1.9-0.8-1.9-1.9c0-1,0.9-1.9,1.9-1.9C312.2,215.9,313,216.8,313,217.9
		 M312.5,239.5h-2.7v-15.7h2.7V239.5z"/>
	<path class="st0" d="M320.6,225.5L320.6,225.5c1-1.2,1.8-2.1,3.5-2.1c0.9,0,1.6,0.3,2.4,0.7l-1.3,2.4c-0.5-0.4-0.9-0.7-1.6-0.7
		c-2.9,0-3.1,3.8-3.1,5.8v7.9h-2.7v-15.7h2.7V225.5z"/>
	<path class="st0" d="M345.9,227.4c-0.4-0.8-1.2-1.6-2.1-1.6c-0.9,0-1.9,0.7-1.9,1.7c0,1.4,1.8,2,3.6,2.7c1.8,0.8,3.6,1.9,3.6,4.5
		c0,3-2.4,5.1-5.3,5.1c-2.6,0-4.7-1.5-5.6-4l2.4-1c0.7,1.5,1.4,2.5,3.2,2.5c1.4,0,2.5-1,2.5-2.4c0-3.5-7.1-2.3-7.1-7.3
		c0-2.6,2.1-4.4,4.7-4.4c1.8,0,3.5,1.3,4.2,2.9L345.9,227.4z"/>
	<path class="st0" d="M355.4,226L355.4,226c1.4-1.7,3.3-2.7,5.5-2.7c4.6,0,7.5,4,7.5,8.3c0,4.5-2.8,8.3-7.6,8.3
		c-2.1,0-4.1-0.9-5.4-2.6h-0.1v11h-2.7v-24.5h2.7V226z M355.3,231.5c0,3.1,1.8,6,5.1,6c3.4,0,5.2-2.8,5.2-5.9c0-3.1-2-5.7-5.3-5.7
		C357.3,225.8,355.3,228.5,355.3,231.5"/>
	<path class="st0" d="M375.9,217.9c0,1.1-0.9,1.9-1.9,1.9c-1,0-1.9-0.8-1.9-1.9c0-1,0.9-1.9,1.9-1.9
		C375.1,215.9,375.9,216.8,375.9,217.9 M375.4,239.5h-2.7v-15.7h2.7V239.5z"/>
	<path class="st0" d="M383.5,225.5L383.5,225.5c1-1.2,1.8-2.1,3.5-2.1c0.9,0,1.6,0.3,2.4,0.7l-1.3,2.4c-0.5-0.4-0.9-0.7-1.6-0.7
		c-2.9,0-3.1,3.8-3.1,5.8v7.9h-2.7v-15.7h2.7V225.5z"/>
	<path class="st0" d="M395.9,217.9c0,1.1-0.9,1.9-1.9,1.9c-1,0-1.9-0.8-1.9-1.9c0-1,0.9-1.9,1.9-1.9
		C395,215.9,395.9,216.8,395.9,217.9 M395.3,239.5h-2.7v-15.7h2.7V239.5z"/>
	<polygon class="st0" points="403.7,239.5 401,239.5 401,226.2 399.4,226.2 399.4,223.8 401,223.8 401,218.1 403.7,218.1 
		403.7,223.8 406.5,223.8 406.5,226.2 403.7,226.2 	"/>
	<path class="st0" d="M142,71v12.3c-19.8,0.3-29.4,10.2-29.4,30.3v31.6c0,8.4-0.8,20.6-8,29.6c-7,8.8-17,12.3-33.6,11.9v-12.3
		c24.6-0.3,29.4-10.5,29.4-29.2v-31.6C100.4,86.8,115.5,71.4,142,71"/>
	<path class="st0" d="M407.1,71v12.3c-19.8,0.3-29.4,10.2-29.4,30.3v31.6c0,8.4-0.8,20.6-8,29.6c-7,8.8-17,12.3-33.6,11.9v-12.3
		c24.6-0.3,29.4-10.5,29.4-29.2v-31.6C365.5,86.8,380.6,71.4,407.1,71"/>
	<path class="st0" d="M337,71c-1.7,15.5-9.3,26.5-22.1,31.9l-3.8-11.8c7.5-3.6,12-10.3,13.4-20.1H337z"/>
</g>
<rect class="st1" width="478.1" height="319.3"/>
</svg>
