<?xml version="1.0" encoding="utf-8"?>
<!-- Generator: Adobe Illustrator 24.2.3, SVG Export Plug-In . SVG Version: 6.00 Build 0)  -->
<svg version="1.1" id="Capa_1" xmlns="http://www.w3.org/2000/svg" xmlns:xlink="http://www.w3.org/1999/xlink" x="0px" y="0px"
	 viewBox="0 0 142 40" style="enable-background:new 0 0 142 40;" xml:space="preserve">
<style type="text/css">
	.st0{fill:#3D3D3C;}
</style>
<g>
	<path class="st0" d="M86.4,21.3l-0.8,4.8c-1,0.4-2.1,0.6-3.2,0.6c-4,0-4.5-2.6-4-5.4l0.8-5.3c0.2-1-0.2-1.7-1.1-1.7
		c-0.6,0-1.2,0.4-1.5,0.9l-1.8,11.1h-6.2L70.2,16c0.2-1.2-0.3-1.7-1.1-1.7c-0.7,0-1.3,0.4-1.7,0.9l-1.8,11.1h-6.1l2.6-16.7H66
		l0.6,1.5c1.3-1.3,3.2-2,5-2c1.6-0.2,3.2,0.5,4.2,1.8c1.2-1.3,2.9-2,4.6-1.9c4.6,0,5.5,3.5,4.9,7.1l-0.7,4.3c-0.2,1,0.3,1.2,0.8,1.2
		C85.7,21.5,86.1,21.5,86.4,21.3"/>
	<path class="st0" d="M116.4,21.3l-0.8,4.8c-1,0.4-2.1,0.6-3.2,0.6c-3.9,0-4.5-2.5-4-5.4l0.8-5.2c0.2-1.1-0.2-1.8-1.3-1.8
		c-0.8,0-1.6,0.3-2.2,0.9l-1.8,11.1h-6.1l2.6-16.7h5.1l0.1,1.1c1.3-1.1,3-1.7,4.7-1.7c3.9,0,5.7,2.6,5,7.2l-0.7,4.2
		c-0.1,0.8,0.2,1.2,0.8,1.2C115.8,21.6,116.1,21.5,116.4,21.3"/>
	<path class="st0" d="M136.3,21.3l-0.8,4.8c-1,0.4-2,0.6-3.1,0.6c-1.5,0.2-3-0.6-3.8-1.9c-1.1,1.3-2.8,2-4.5,1.9
		c-4.1,0-6.1-2.8-6.1-7.3c0-6.6,3.7-10.4,9.2-10.4c1.7-0.1,3.3,0.4,4.7,1.3l0.7-0.8h3.6l-1.7,10.9c-0.1,0.6,0.1,1.1,0.8,1.1
		C135.6,21.5,136,21.4,136.3,21.3 M126.2,21.4c0.8,0,1.6-0.3,2.2-0.9l0.9-5.9c-0.6-0.3-1.3-0.5-2-0.4c-1.9,0-3.2,1.8-3.2,4.5
		C124.2,20.3,124.9,21.4,126.2,21.4"/>
	<path class="st0" d="M58,21.3l-0.8,4.8c-1,0.4-2,0.6-3.1,0.6c-1.5,0.2-3-0.6-3.8-2c-1.1,1.3-2.8,2-4.5,1.9c-4.1,0-6.1-2.8-6.1-7.3
		c0-6.6,3.7-10.4,9.2-10.4c1.7-0.1,3.3,0.4,4.7,1.3l0.7-0.8h3.6l-1.7,10.9c-0.1,0.6,0.1,1.1,0.8,1.1C57.4,21.5,57.7,21.4,58,21.3
		 M47.9,21.4c0.8,0,1.6-0.3,2.2-0.9l0.9-5.9c-0.6-0.3-1.3-0.5-2-0.4c-1.9,0-3.2,1.8-3.2,4.5C45.9,20.3,46.6,21.4,47.9,21.4"/>
	<path class="st0" d="M26.1,26.8c-0.2,0.5-0.6,0.9-1,1.1l-10.2,4c-0.4,0.2-0.8,0.2-1.1,0l-7.6-3.5C5.4,28,5,27,5.2,26.2l2.1-15.1
		c0.1-0.7,0.5-1.3,1.2-1.6l10.2-4c0.4-0.2,0.8-0.2,1.1,0l6.4,2.9l0.1-0.6l0,0l0.4-2.6L27,3.4L21.7,1c-1.5-0.7-3.3-0.7-4.9-0.1L6.7,5
		c-2.3,0.9-3.9,3-4.2,5.4L0.3,25.5c-0.6,3.1,1,6.1,3.8,7.4l7.7,3.5c0.8,0.4,1.7,0.6,2.6,0.6c0.8,0,1.6-0.2,2.3-0.5l10.2-4
		c1.7-0.7,3-2,3.7-3.7C29,28.6,26.8,27.8,26.1,26.8"/>
	<path class="st0" d="M37.5,21.1l-0.6,0.2c-0.7,0.2-1.4,0.3-2.1,0.3c-0.4,0-0.8-0.1-1.1-0.2l0,0c-0.9-0.4-1.1-1.3-0.9-2.9l0.5-3.1
		l0.1-0.8h4.2l0.4-2.4l0.3-2.2h-4.2c0.1-0.6,0.1-1.1-0.1-1.7c-0.1-0.4-0.3-0.8-0.5-1.2c-0.2-0.4-0.5-0.7-0.9-1h-0.1
		c-0.3-0.2-0.5-0.4-0.8-0.5l-0.4-0.2l-2.4-1.1l-0.5,3.2l-1.5,9.7l-0.3,2.2c-0.1,0.9-0.2,1.8-0.1,2.7c0,0.1,0,0.2,0,0.3
		c0.1,0.6,0.3,1.2,0.6,1.7c0.1,0.2,0.2,0.3,0.3,0.5c0.1,0.2,0.2,0.3,0.4,0.4c0.4,0.4,0.9,0.8,1.5,1c0.2,0.1,0.4,0.2,0.7,0.2l0.4,0.1
		c0.7,0.1,1.4,0.2,2.1,0.2h1.1c1.2,0,2.4-0.2,3.5-0.6l0.3-0.1l0.8-5.1L37.5,21.1"/>
	<path class="st0" d="M15.1,26c-2.5,0.1-5-0.3-7.3-1.2l-0.1,0.5c-0.1,0.4,0.1,0.8,0.5,1c0.1,0.1,0.2,0.1,0.3,0.2l5,2.3
		c0.5,0.3,1.1,0.4,1.7,0.4c0.6,0,1.1-0.1,1.6-0.3l5.7-2.2c0.4-0.2,0.7-0.5,0.8-1l0.3-2.2C22.2,25.1,19.3,26,15.1,26"/>
	<path class="st0" d="M18.7,19.6c0-0.7-0.8-0.9-3.3-1.3c-3.5-0.7-5.4-2.1-5.6-5.1l-1,6c2,1,4.3,1.5,6.6,1.5
		C17.9,20.7,18.7,20.5,18.7,19.6"/>
	<path class="st0" d="M16.3,11.9c0,0.6,0.7,0.7,3.7,1.3c2.5,0.5,4.2,1.4,5,3l0.7-4c-2.2-0.8-4.5-1.1-6.9-1.1
		C16.9,11,16.3,11.3,16.3,11.9"/>
	<path class="st0" d="M88.3,21.5l1.9-12h6.1L94.5,21c-0.1,0.7,0.1,0.9,0.7,0.9c0.2,0,0.4,0,0.6-0.1l-0.7,4.4c-1,0.3-2,0.4-3,0.4
		C88.7,26.6,87.8,25.2,88.3,21.5 M90.4,4.1c0-2.4,1.7-3.6,4-3.6c2.1,0,3.5,1,3.5,3c0,2.4-1.7,3.5-4,3.5C91.8,7.1,90.4,6,90.4,4.1"/>
	<path class="st0" d="M138.7,8.6c0-0.8,0.7-1.5,1.5-1.5s1.5,0.7,1.5,1.5s-0.7,1.5-1.5,1.5l0,0C139.4,10.1,138.7,9.4,138.7,8.6
		L138.7,8.6 M141.5,8.6c0-0.7-0.5-1.2-1.2-1.2s-1.2,0.5-1.2,1.2s0.5,1.2,1.2,1.2l0,0C140.9,9.8,141.5,9.2,141.5,8.6L141.5,8.6"/>
	<path class="st0" d="M140.5,8.6L140.5,8.6c0.1,0,0.1,0.1,0.1,0.1s0.1,0.1,0.1,0.2l0.2,0.5h-0.4L140.3,9c0,0,0-0.1-0.1-0.1
		c0,0-0.1-0.1-0.2-0.1h0v0.6h-0.4V7.7h0.7c0.1,0,0.2,0,0.3,0s0.1,0,0.2,0.1c0.1,0,0.1,0.1,0.1,0.2s0,0.2,0,0.3
		c0,0.1-0.1,0.2-0.2,0.2L140.5,8.6L140.5,8.6z M140,8v0.4h0.3l0.1-0.1c0,0,0-0.1,0-0.2c0-0.1,0-0.1-0.1-0.1L140,8L140,8z"/>
</g>
</svg>
