<?xml version="1.0" encoding="utf-8"?>
<!-- Generator: Adobe Illustrator 24.2.3, SVG Export Plug-In . SVG Version: 6.00 Build 0)  -->
<svg version="1.1" id="Calque_1" xmlns="http://www.w3.org/2000/svg" xmlns:xlink="http://www.w3.org/1999/xlink" x="0px" y="0px"
	 viewBox="0 0 297 152" style="enable-background:new 0 0 297 152;" xml:space="preserve">
<style type="text/css">
	.st0{fill:#3C3C3B;}
</style>
<g>
	<g>
		<polygon class="st0" points="28,126.1 31.7,126.1 53.1,83 49.4,83 		"/>
		<path class="st0" d="M142.9,83c-11.6,0-19.9,9.6-19.9,21.6c0,11.9,8.1,21.5,20.3,21.5c7.6,0,14.2-4.7,17.5-11.7l-0.1-0.1l-6.1-2.6
			c-5.2,12.5-22.5,9.8-24.2-3.5h31.9v-6C162.2,91.6,153.5,83,142.9,83z M130.2,101.9c1.5-17,23.9-17,25.3,0H130.2z"/>
		<polygon class="st0" points="175.9,83 169.2,83 169.2,126.1 192.5,126.1 192.5,119.8 175.9,119.8 		"/>
		<polygon class="st0" points="206.1,83 199.3,83 199.3,126.1 222.6,126.1 222.6,119.8 206.1,119.8 		"/>
		<path class="st0" d="M79.8,103l-6.1-2.5C69,98.6,67,96.7,67,93.9c0-3.1,2.2-5.1,6.1-5.1c4.6,0,7.1,2.6,7.1,7.1h6.8
			c0-7.8-5.4-12.9-13.6-12.9c-7.8,0-13.2,4.6-13.2,11.3c0,5.2,2.7,8.9,7.9,10.9l6.7,2.7c4.6,1.9,6.1,3.5,6.1,6.6
			c0,3.7-2.5,5.8-6.9,5.8c-5.1,0-8.2-3.2-8.2-8.6H59c0,9.2,5.5,14.5,15,14.5c8.2,0,13.6-4.8,13.6-11.8C87.6,108.7,85,105.1,79.8,103
			z"/>
		<path class="st0" d="M243.1,83c-7.8,0-14.5,4.8-17.4,11.5l6,2.3l0.3-0.6c1.9-4.3,6.2-7.3,11.1-7.3c5.9,0,10.8,4.2,11.9,9.8l0,0
			l0.1,0.8l-0.1,0h-14.1c-21.6-0.4-19.8,26.6,0,26.6c6.5,0,11.2-3.4,14.4-7.3v7.3h6.7v-24.3C261.9,91.5,253.5,83,243.1,83z
			 M240.8,120.1c-4.2,0-9-2.5-9-8.1c0-1.8,0.9-6.4,9.1-6.4h14.4C255.2,108.4,250.2,120.1,240.8,120.1z"/>
		<polygon class="st0" points="124.1,83 116.8,83 109.4,83 93.4,83 93.4,89.4 105.3,89.4 106.3,89.4 88,126.1 95.4,126.1 
			113.7,89.4 124.1,89.4 		"/>
	</g>
	<g>
		<path class="st0" d="M48.8,45.8l-6-2.5C38,41.4,36,39.5,36,36.7c0-3.1,2.2-5.1,6.1-5.1c4.6,0,7,2.6,7,7.1h6.7
			c0-7.7-5.4-12.9-13.6-12.9c-7.7,0-13.1,4.6-13.1,11.3c0,5.2,2.7,8.9,7.9,10.9l6.7,2.7c4.6,1.9,6.1,3.5,6.1,6.6
			c0,3.7-2.5,5.8-6.9,5.8c-5.1,0-8.2-3.2-8.2-8.6H28c0,9.2,5.5,14.4,15,14.4c8.2,0,13.6-4.8,13.6-11.8C56.6,51.5,54,47.9,48.8,45.8z
			"/>
		<path class="st0" d="M151.5,25.8c-9.2,0-15.3,5-15.3,14.6v28.5h6.7V40.9c0-5.9,3.3-9,8.5-9c5.2,0,8.5,3.1,8.5,9v28.1h6.7V40.5
			C166.7,30.9,160.7,25.8,151.5,25.8z"/>
		<polygon class="st0" points="262.1,25.8 253.3,43.5 242.3,25.8 234.5,25.8 249.9,50.4 240.7,68.9 247.6,68.9 268.9,25.8 		"/>
		<polygon class="st0" points="180.4,25.8 173.6,25.8 173.6,68.9 196.9,68.9 196.9,62.6 180.4,62.6 		"/>
		<path class="st0" d="M216.5,25.8c-11.6,0-19.9,9.6-19.9,21.5c0,11.9,8.1,21.5,20.2,21.5c7.6,0,14.2-4.7,17.5-11.6l-0.1-0.1
			l-6.1-2.6c-5.2,12.5-22.4,9.8-24.1-3.4h31.8v-6C235.8,34.5,227.1,25.8,216.5,25.8z M203.9,44.7c1.5-17,23.9-17,25.3,0H203.9z"/>
		<path class="st0" d="M110.5,25.8c-7.8,0-14.5,4.7-17.4,11.5l5.9,2.3l0.3-0.6c1.9-4.3,6.2-7.3,11.1-7.3c5.9,0,10.8,4.2,11.9,9.8
			l0,0l0.1,0.7l-0.1,0h-14.1c-21.6-0.4-19.8,26.6,0,26.6c6.5,0,11.2-3.4,14.4-7.3v7.3h6.7V44.7C129.3,34.3,120.9,25.8,110.5,25.8z
			 M108.2,62.9c-4.2,0-9-2.5-9-8.1c0-1.8,0.9-6.4,9-6.4h14.4C122.6,51.2,117.6,62.9,108.2,62.9z"/>
		<polygon class="st0" points="78,25.8 62,25.8 62,32.2 73.9,32.2 74.9,32.2 56.6,68.9 64,68.9 82.3,32.2 92.6,32.2 92.6,25.8 
			85.4,25.8 		"/>
	</g>
</g>
</svg>
