<?xml version="1.0" encoding="utf-8"?>
<!-- Generator: Adobe Illustrator 24.2.3, SVG Export Plug-In . SVG Version: 6.00 Build 0)  -->
<svg version="1.1" id="Layer_1" xmlns="http://www.w3.org/2000/svg" xmlns:xlink="http://www.w3.org/1999/xlink" x="0px" y="0px"
	 viewBox="0 0 289 178.4" style="enable-background:new 0 0 289 178.4;" xml:space="preserve">
<style type="text/css">
	.st0{fill:#3D3D3C;}
</style>
<g>
	<path class="st0" d="M3.2,41.7c0.2-0.9,4.6-3,5.4-3.2c0.3,0,0.6,0.1,0.8,0.4c0.1,0.3-0.4,2.5-0.6,3.7C3.9,70.3,4,114.9,4.5,117.3
		c0.1,0.4,0.4,0.5,0.5,0.5c1.7-0.3,12-29.6,15.1-39.1c3.5-10.4,4.6-14.1,4.3-15.8c-0.1-0.4-1-2.1-1-2.3c-0.3-1.4,4.3-4.5,5.8-4.8
		c0.5-0.1,1,0.1,1.2,0.9l1.1,6.7c2.3,9,5.6,17.7,9.8,26c5.7,10.6,8.9,12.1,13.3,11.2c7-1.3,9.9-11.7,7.8-22.6
		C59.5,62.6,49,50.7,44.7,51.5c-0.3,0-1.4,0.7-1.7,0.8c-0.5,0.1-2.8-1.2-3.2-3.1c-0.3-1.4,0.8-2,2-2.2c10.7-2.1,23.4,17.9,25.8,30.4
		c2.3,12.2-2.6,25.3-13.2,27.4c-8.7,1.7-13.5-5.9-16.8-12c-2.8-4.9-3.1-6-9.6-22.9c-1.5,3.4-14.2,39.4-17.5,46.5
		c-3.6,8-5.1,8.6-7.2,9c-1,0.4-2.2-0.1-2.6-1.1c-0.1-0.2-0.1-0.4-0.1-0.7C0.5,123.2-0.9,103,1,72L3.2,41.7z"/>
	<path class="st0" d="M88,66.5c0-0.2-0.3-1.9-1.8-1.6c-3,0.6-4.4,10.4-4.2,16C85.9,77.1,88.5,69.2,88,66.5 M89.5,92.5
		c3.6-0.7,7.2-4.9,9.1-7.2c0.6-0.7,1.8-2.2,2.5-2.3c0.5,0,0.9,0.3,1,0.8c0.2,0.9-0.6,2.1-1.7,3.6c-4.5,6-7.8,7.8-10.8,8.4
		c-7.2,1.4-9.6-5.6-10.4-9.5c-1.6-8.2-0.6-23.3,7.5-24.8c1.5-0.3,4,0,4.6,3.4c1,5.1-2.1,13.8-8.4,19.9
		C83.4,88.7,85.3,93.3,89.5,92.5"/>
	<path class="st0" d="M121.5,67c-0.7,0.1-0.8,0-2.4-2c-2.3-2.8-7.2-3.6-8.8-3.3c-0.3,0.1-1.1,0.3-1,1c0.3,1.4,7.7,9.2,9.4,11
		c7,6.8,8.2,8,8.6,10.5c0.6,2.9-1.4,5.7-5.5,6.5c-8.1,1.6-18.1-3.2-19.1-8.6c-0.5-2.4,1.1-3.8,2.1-4c0.5-0.1,1.1,0.2,1.2,0.7
		c0,0,0,0,0,0c0.1,0.5-0.2,2.5-0.2,2.8c0.8,4.2,10.7,7,15.4,6.1c2.2-0.4,2.7-1.6,2.6-2.3c-0.3-1.6-5.9-7.4-7.8-9.2
		c-8.6-8.5-10.8-10.8-11.3-13.5c-0.3-1.8,0.4-3.1,3.3-3.7c6.6-1.3,14.4,2.1,15.4,5.2C123.8,65.6,122.1,66.8,121.5,67"/>
	<path class="st0" d="M134.1,47.5c-0.1-0.7-1-3.8-1.1-4.5c-0.4-2.2,2.9-3.8,3.4-3.9c1.2-0.2,1.4,0.8,1.4,1.2l0.5,6.8
		c0.1,2,0.8,7,1.3,9.9c1.7-1.2,6.9-5.1,10.2-5.7c0.4-0.1,1.2-0.2,1.3,0.5c0.3,1.4-2.3,3.8-2.6,3.9s-1.1,0-1.3,0
		c-1.2,0.2-4.9,2.8-7.1,4.6c0.8,5.2,2,10.3,3.4,15.4c0.9,2.7,1.9,6.8,5.1,6.2c2.4-0.5,3.7-4.2,3.9-5.2c0.8-2.2,0.9-2.5,1.6-2.6
		s1.2,0.5,1.3,1.1c0.3,1.8-1.8,8.7-7.2,9.8c-4.9,0.9-6.6-4.1-7.8-7.8c-1.4-4.4-2.5-9.6-3.5-14.1c-0.8,0.7-6,5.6-6.2,5.7
		c-0.7,0.1-1.6-0.9-1.8-1.7c-0.1-0.3,0-0.6,0.6-1.2c3.5-3.2,5-4.6,6.8-6L134.1,47.5z"/>
	<path class="st0" d="M180,43.5c0.4-0.1,1.5-0.3,1.6,0.3c0.1,0.6,0,1.2-0.3,1.8c-0.8,0.9-1.7,1.7-2.7,2.2c-0.2,0-1.6-0.3-1.9-0.2
		c-1.3,0.2-5.4,2.2-8.7,5c2,9.3,5.1,22.7,8,30.8c3.9,10.8,7.3,12.2,8.9,11.9c0.5-0.1,2.1-1.1,2.4-1.2c0.4-0.1,0.9,0.1,1.1,0.6
		c0,0,0,0.1,0,0.1c0.1,0.7-1.1,2.4-3.3,2.8c-7.8,1.5-12.4-11.8-13.6-15.3c-3.2-9.4-6.4-24.5-7-27.3c-0.8,0.8-5.9,5.1-6.2,5.2
		c-0.9,0-1.7-0.5-2.1-1.3c-0.1-0.7,0.1-0.9,7.7-7.1c-1.3-6.8-2.6-14.2-1-20.5c0.6-2.4,1.9-6.6,6-7.3c0.5-0.1,2.5-0.2,2.8,1.4
		s-0.9,3.3-1.5,3.4c-0.2,0-1.1-0.3-1.4-0.2c-1.5,0.3-4.3,5.3-1.3,21C171,46.9,176.3,44.2,180,43.5"/>
	<path class="st0" d="M193,49.3c-0.3,0-0.5,0-0.8-0.2c-1-0.5-1.1-0.8-1.8-0.6c-1.5,0.3-3.7,5.1-2.5,11.4c1.6,8.5,7,11.7,11,11
		c4.3-0.8,8.6-7,7.2-14.2c-1.3-6.8-6.1-11.9-11.4-10.2C194.6,47.8,193.9,49.1,193,49.3 M196.3,43.1c4.9-0.9,11.7,3,13.2,11.2
		c1.4,7.3-2,18.6-11.2,20.4C191,76,186,69.5,184.6,62c-1.7-8.9,2.3-17.2,7-18.1c0.7-0.1,1.4,0,1.9,0.5
		C194.2,43.7,195.2,43.2,196.3,43.1"/>
	<path class="st0" d="M229.7,39.7c1.7-3.2,4.2-6.4,6.8-6.9c2-0.3,4,1,4.3,3.1c0,0.1,0,0.1,0,0.2c0.3,1.1-0.5,2.2-1.6,2.5
		c0,0-0.1,0-0.1,0c-1,0.2-2.1-0.4-2.6-1.3c-0.6-1-0.6-1.1-0.9-1s-2.5,2-4.6,6.8c-1.8,4.5-2.5,9.4-1.9,14.2c0.5,2.1,1.2,4.2,2.1,6.1
		c0,0,1.1,2.2,1.2,2.4c0.2,0.8-0.8,2.7-1.9,2.9c-1.6,0.3-2.1-0.7-3.6-3.9c-4-8.5-9.4-16.3-11.4-18c-0.4-0.3-2.1-1.2-2.2-1.5
		c-0.2-0.9,2.1-3,3.1-3.2c1.4-0.3,2.4,1.1,3.6,3c0.9,1.6,4.8,8.8,5.7,10.2C226.4,49.5,226.9,45.1,229.7,39.7"/>
	<path class="st0" d="M262.2,33.8c-2.4,0.5-6.9,7-9.2,12.9c-2.1,5.4-3.2,11.7-2.9,13.5c0.1,0.6,0.3,1.2,1,1
		c3.5-0.7,14.1-20.5,13-25.9c-0.1-0.5-0.7-1.8-2-1.6 M265.1,12.5c0.3,4.4,1,8.8,1.9,13.1c2.5,13.2,5.1,20,6.7,24.1
		c1.5,3.7,3.1,7.5,5.3,7.1c1-0.2,1.3-0.2,1.4,0.3c-0.2,1.3-1.1,2.4-2.4,2.6c-3.3,0.6-5.3-3.7-6.5-6.2c-1.9-4.5-3.5-9.1-4.8-13.9
		c-2.6,10.8-11.5,24.4-16.4,25.3c-1.8,0.3-2.9-0.8-3.2-2.5c-1.8-9.5,7.8-30.8,15.6-32.3c0.6-0.2,1.3-0.1,1.9,0.2
		c-1.4-6-2.8-12.1-3.9-18.2c-0.5-2.7-0.6-3,0.2-3.8c0.6-0.7,1.4-1.2,2.4-1.4c0.6-0.1,1.6-0.2,1.8,0.5L265.1,12.5z"/>
	<path class="st0" d="M234.7,144.1c1.3-0.3,2.6-1,3.6-1.9c0.3-0.3,0.7-0.5,1.1-0.6c0.5,0,0.9,0.3,0.9,0.8c0.3,1.8-2.9,4.3-6.2,4.9
		c-17,3.3-24-35.9-25.3-43.5c-4.4,9.3-10.1,33.3-9.6,44.1c0,0.1,0.6,0.8,0.6,1s-2,5.1-2.5,5.2s-7.3-4.6-26.9-38
		c-0.2,55-24.7,61.4-28.3,62.1c-10.9,2.1-20.1-9.1-20.9-13.3c-0.4-2.2,0.8-3.8,3.2-4.2c1.4-0.3,2.8-0.1,3,1.3
		c0.2,0.6-0.1,1.2-0.7,1.5c-1.1,0.5-1.7,0.7-1.6,1.6c0.7,3.5,8.6,11.5,16.7,9.9c9.9-1.9,19.1-15.1,22.1-31.6
		c1.2-6.5,3.6-24.1,1.9-32.6c-0.5-2.4-1.5-4.6-3.1-6.4c-0.2-0.5-1.6-2.4-1.7-2.6c-0.2-1.2,3.1-4,3.9-4.1s1,0.2,2.5,3.3
		c9,16.5,17.8,32.9,27.5,43.1c1.1-14.1,6.9-33.8,12.2-46.6c-0.3-1.6-1.8-9.7-1.3-10.9s4.1-2.3,4.2-2.3c0.5-0.1,1,0.2,1.1,0.7
		c0,0,0,0,0,0.1c0.2,1.3-0.3,5.3,2.6,20.8c1.6,8.4,4.9,24.7,11.9,33.4C229.5,144,232.8,144.5,234.7,144.1"/>
	<path class="st0" d="M250.1,141.6c1.9,0,1.9,0,2,0.6c0.3,1.4-1.8,2.5-3,2.8c-3.3,0.6-4.7-3.3-5.4-4.9c-1.7-4.9-3-9.8-3.9-14.9
		c-0.4-1.9-1.5-7.7-0.6-9c0.7-1,1.8-1.8,3-2.2c0.6-0.2,1.2,0.2,1.3,0.8c0,0,0,0,0,0.1c0,1.2-0.1,2.3-0.3,3.5
		c-0.1,3.6,0.3,7.1,1,10.6C244.9,131.8,246.8,141.7,250.1,141.6 M241.1,104.6c0,0.2,0.4,1,0.5,1.2c0.1,0.5-0.3,1.1-1.5,1.4
		c-1.8,0.3-2.3,0-3.8-8.1c-0.3-1.4,0.4-2.5,3-3c0.5-0.1,1.1,0,1.2,0.5c0.1,1,0,2-0.2,2.9c0,1,0.1,1.9,0.3,2.9
		C240.6,103.1,240.8,103.8,241.1,104.6"/>
	<path class="st0" d="M268.6,140.2c-4.1,0.8-6.5-3-8.9-10.3c-2.3-7.4-4.1-15-5.5-22.7c-0.2-0.9-2.1-10.9-1.4-12.3
		c0.4-0.9,2.5-2.1,3.4-2.2c0.5-0.1,1.1,0.2,1.2,0.7c0,0,0,0.1,0,0.1c0.2,0.8,0,4.5,0,5.2c0.3,5.4,0.9,10.7,2,16
		c1,5.2,4.1,20,7.6,22.4c0.9,0.6,2,0.8,3.1,0.6c0.6,0,0.7,0.4,0.7,0.6C271,139,269.9,140,268.6,140.2"/>
	<path class="st0" d="M283.7,137.3c-4.1,0.8-6.5-3-8.9-10.3c-2.3-7.4-4.1-15-5.5-22.7c-0.2-0.9-2.1-10.9-1.4-12.3
		c0.4-0.9,2.5-2,3.4-2.2c0.5-0.1,1.1,0.2,1.2,0.7c0,0,0,0.1,0,0.1c0.2,0.8,0,4.5,0,5.2c0.3,5.4,0.9,10.7,2,16c1,5.2,4.1,20,7.6,22.4
		c0.9,0.6,2,0.8,3.1,0.6c0.6,0,0.7,0.4,0.7,0.6C286.1,136.1,285,137.1,283.7,137.3"/>
	<path class="st0" d="M281.2,4.3h0.6c1,0,1.5,0.3,1.5,1s-0.5,1-1.4,1h-0.7L281.2,4.3z M279.1,3v7.6h2.1v-3h0.6l1.4,3h2.3l-1.7-3.4
		c1-0.2,1.6-1.1,1.6-2.1c0-1.4-1.1-2.2-3.3-2.2L279.1,3z M282.1,0c-1.8,0-3.5,0.7-4.8,2c-1.3,1.3-2.1,3.1-2.1,5c0,1.8,0.7,3.6,2,4.9
		c1.3,1.4,3,2.1,4.9,2.1c1.8,0,3.6-0.7,4.9-2c1.4-1.3,2.1-3.1,2.1-5c0-3.8-3-6.9-6.8-7C282.1,0,282.1,0,282.1,0 M282.1,1.3
		c1.5,0,3,0.6,4.1,1.7c1,1.1,1.6,2.5,1.6,4c0,1.5-0.6,2.9-1.7,4c-1.1,1.1-2.5,1.6-4,1.6c-1.5,0-3-0.6-4-1.7c-1-1.1-1.6-2.5-1.6-4
		c0-1.5,0.6-3,1.7-4.1C279.2,1.8,280.6,1.2,282.1,1.3"/>
</g>
</svg>
